<svg width="40" height="25" viewBox="0 0 40 25" fill="none" xmlns="http://www.w3.org/2000/svg">
<path fill-rule="evenodd" clip-rule="evenodd" d="M39.969 16.8297C40.061 15.4511 39.9484 14.1342 39.6284 12.874C39.3059 11.6112 38.7872 10.4857 38.0621 9.50175C37.3362 8.51606 36.4108 7.72854 35.284 7.1469C34.1513 6.55755 32.8327 6.26844 31.3258 6.26844C29.9608 6.26844 28.7274 6.51036 27.6093 6.99077C26.492 7.47461 25.533 8.13517 24.7237 8.9733C23.916 9.80629 23.3011 10.7997 22.8572 11.951C22.422 13.0979 22.1993 14.3393 22.1993 15.6681C22.1993 16.9969 22.4134 18.3103 22.8383 19.4556C23.2684 20.6069 23.8713 21.5865 24.648 22.4161C25.4453 23.2422 26.3923 23.8753 27.525 24.3274C28.6595 24.7735 29.9221 25 31.3258 25C33.3393 25 35.0664 24.5402 36.4839 23.6171C37.9185 22.6975 38.9678 21.1705 39.6611 19.0318H35.3511C35.1842 19.5817 34.7525 20.111 34.0437 20.6069C33.3281 21.1036 32.4758 21.3515 31.4892 21.3515C30.1165 21.3515 29.0569 20.9929 28.3232 20.2792C27.5887 19.5654 27.113 18.2357 27.113 16.8305H39.9681L39.969 16.8297ZM11.9236 24.5393C13.028 24.5393 14.104 24.4003 15.1404 24.1267C16.1897 23.8522 17.1238 23.4284 17.9392 22.8536C18.7477 22.2831 19.4039 21.5436 19.8856 20.6317C20.3638 19.7301 20.6021 18.6595 20.6021 17.4147C20.6021 15.8791 20.2356 14.57 19.4891 13.4763C18.7459 12.3893 17.6227 11.625 16.1106 11.1909C17.221 10.6659 18.0536 9.99074 18.6195 9.16718C19.1829 8.34191 19.4633 7.3099 19.4633 6.07457C19.4633 4.93274 19.2749 3.96678 18.9008 3.19556C18.5163 2.41233 17.9796 1.79123 17.2941 1.32369C16.5974 0.856153 15.7743 0.515579 14.8084 0.311407C13.8382 0.101229 12.776 0 11.5985 0H0V24.5402L11.9236 24.5393ZM11.3061 13.6024C12.4715 13.6024 13.4193 13.8692 14.1315 14.4079C14.8402 14.9526 15.1989 15.8517 15.1989 17.1162C15.1989 17.7613 15.094 18.2958 14.8755 18.7075C14.6579 19.121 14.3568 19.4479 13.9947 19.6855C13.6309 19.9326 13.2026 20.1007 12.7175 20.2062C12.2401 20.3126 11.7327 20.3598 11.1994 20.3598H5.41607V13.6024H11.3061ZM33.9466 10.9421C33.3643 10.3013 32.3803 9.95299 31.1787 9.95299C30.3969 9.95299 29.7501 10.0842 29.2315 10.3519C28.724 10.6161 28.3094 10.9438 27.9921 11.3307C27.6755 11.7236 27.4622 12.1388 27.3358 12.5832C27.2111 13.0156 27.1354 13.4076 27.113 13.7542H35.0733C34.9572 12.5094 34.5306 11.5889 33.9466 10.9421ZM10.4855 4.17953C10.9655 4.17953 11.4325 4.21385 11.8789 4.30049C12.3322 4.37856 12.7244 4.52268 13.071 4.73114C13.4193 4.93189 13.6971 5.21841 13.9061 5.58472C14.1083 5.95103 14.2072 6.42286 14.2072 6.99334C14.2072 8.02279 13.9061 8.7717 13.2834 9.22552C12.6538 9.68619 11.8582 9.91267 10.8992 9.91267H5.41607V4.17868H10.4847L10.4855 4.17953ZM36.0856 4.06715V1.64625H26.1127V4.06715H36.0856Z" fill="url(#paint0_linear_541_1944)" fill-opacity="0.4"/>
<defs>
<linearGradient id="paint0_linear_541_1944" x1="20" y1="0" x2="20" y2="25" gradientUnits="userSpaceOnUse">
<stop stop-color="#DAB6FF"/>
<stop offset="1" stop-color="white"/>
</linearGradient>
</defs>
</svg>
