<svg width="58" height="58" viewBox="0 0 58 58" fill="none" xmlns="http://www.w3.org/2000/svg">
<g filter="url(#filter0_ddd_541_1940)">
<path fill-rule="evenodd" clip-rule="evenodd" d="M47.8912 0C51.2628 0 54 2.7373 54 6.10879V43.8912C54 47.2627 51.2627 50 47.8912 50H10.1088C6.7373 50 4 47.2627 4 43.8912V6.10879C4 2.7373 6.73721 0 10.1088 0L47.8912 0ZM48.5011 32.2906C48.5907 30.9406 48.4808 29.6518 48.1683 28.4175C47.8529 27.1813 47.3472 26.0792 46.639 25.1158C45.9298 24.1505 45.0265 23.3794 43.9263 22.8099C42.8204 22.2329 41.5324 21.95 40.0605 21.95C38.7272 21.95 37.5234 22.1867 36.4315 22.6573C35.3405 23.1307 34.4039 23.7779 33.6134 24.598C32.8247 25.4135 32.2237 26.3861 31.791 27.5133C31.3657 28.6366 31.1484 29.8516 31.1484 31.1524C31.1484 32.4977 31.3574 33.7395 31.7726 34.8609C32.1923 35.988 32.7812 36.9478 33.5395 37.7595C34.318 38.5686 35.2425 39.188 36.3492 39.6309C37.4569 40.0673 38.6903 40.2892 40.0605 40.2892C42.0271 40.2892 43.7136 39.8389 45.0977 38.9355C46.4984 38.0351 47.5238 36.5399 48.2006 34.4458H43.9919C43.8291 34.9839 43.4075 35.5026 42.715 35.988C42.016 36.4743 41.1839 36.7175 40.2205 36.7175C38.8798 36.7175 37.8452 36.3662 37.1287 35.6672C36.4112 34.9682 35.9471 33.6664 35.9471 32.2906H48.5011ZM21.113 39.8389C22.1911 39.8389 23.2424 39.703 24.2547 39.4349C25.2792 39.1658 26.1917 38.7516 26.9878 38.1885C27.7774 37.6301 28.4182 36.9062 28.8888 36.013C29.3557 35.13 29.5887 34.0815 29.5887 32.8629C29.5887 31.3596 29.2309 30.078 28.5014 29.0064C27.7756 27.9423 26.679 27.1942 25.2024 26.7689C26.287 26.2549 27.0997 25.5938 27.6525 24.7876C28.2027 23.9795 28.4764 22.9689 28.4764 21.7596C28.4764 20.6417 28.2924 19.6959 27.9271 18.9405C27.5518 18.174 27.0275 17.5656 26.3582 17.1079C25.6776 16.6503 24.8742 16.3165 23.9312 16.1168C22.9834 15.9106 21.946 15.8117 20.7968 15.8117H9.46875V39.8389H21.113ZM20.5102 29.1304C21.6483 29.1304 22.5738 29.392 23.2691 29.919C23.9616 30.4525 24.3111 31.3327 24.3111 32.5707C24.3111 33.2022 24.2085 33.7256 23.9949 34.1287C23.7822 34.5336 23.4883 34.8535 23.1351 35.0865C22.78 35.3288 22.3611 35.4934 21.8878 35.596C21.4218 35.7005 20.9262 35.7467 20.4057 35.7467H14.7583V29.1304H20.5102ZM42.6198 26.5258C42.0512 25.898 41.0905 25.5577 39.9172 25.5577C39.1535 25.5577 38.522 25.6862 38.0153 25.9479C37.5197 26.2068 37.1148 26.5276 36.8051 26.9067C36.4963 27.2913 36.2873 27.6981 36.1644 28.1327C36.0423 28.5562 35.9684 28.9398 35.9471 29.2792H43.721C43.6072 28.0606 43.1902 27.1592 42.6198 26.5258ZM19.7085 19.9048C20.1773 19.9049 20.6332 19.9381 21.0695 20.0231C21.5124 20.0999 21.8952 20.2404 22.2336 20.4448C22.5738 20.6417 22.8447 20.9219 23.049 21.2807C23.246 21.6394 23.3431 22.1017 23.3431 22.6601C23.3431 23.6679 23.049 24.4011 22.4407 24.8458C21.8259 25.297 21.0492 25.5189 20.1126 25.5189H14.7583V19.9048H19.7085ZM44.7084 19.7948V17.4241H34.9688V19.7948H44.7084Z" fill="url(#paint0_linear_541_1940)" shape-rendering="crispEdges"/>
<path d="M48.735 32.5406H48.5011H36.2024C36.2547 33.7747 36.6898 34.8905 37.3032 35.4881L37.3033 35.4882C37.959 36.1279 38.9222 36.4675 40.2205 36.4675C41.1397 36.4675 41.9203 36.2362 42.572 35.783C43.2381 35.316 43.6119 34.8386 43.7526 34.3734L43.8063 34.1958H43.9919H48.2006H48.5441L48.4385 34.5227C47.7501 36.6527 46.6969 38.2045 45.2334 39.1455C45.2332 39.1456 45.233 39.1457 45.2328 39.1458L45.0977 38.9355C43.7136 39.8389 42.0271 40.2892 40.0605 40.2892C38.6903 40.2892 37.4569 40.0673 36.3492 39.6309L48.735 32.5406ZM48.735 32.5406L48.7505 32.3072C48.8418 30.9328 48.73 29.6175 48.4106 28.3561L48.4105 28.3557C48.088 27.0915 47.5694 25.9594 46.8404 24.9677C46.1081 23.9709 45.1751 23.1749 44.0417 22.5881C42.8937 21.9892 41.5646 21.7 40.0605 21.7C38.6969 21.7 37.459 21.9423 36.3326 22.4277L36.332 22.428C35.2119 22.914 34.2478 23.5798 33.4337 24.4242L48.735 32.5406ZM21.113 40.0889C22.2121 40.0889 23.2847 39.9504 24.3182 39.6767C25.3688 39.4008 26.3092 38.9747 27.1322 38.3926C27.954 37.8114 28.621 37.0574 29.1099 36.1295C29.5995 35.2035 29.8387 34.1133 29.8387 32.8629C29.8387 31.3183 29.4704 29.9857 28.708 28.8658L28.7079 28.8656C28.0429 27.8906 27.086 27.175 25.846 26.7168C26.7021 26.2319 27.3734 25.6368 27.8587 24.929L27.8592 24.9283C28.4439 24.0696 28.7264 23.0068 28.7264 21.7596C28.7264 20.616 28.5384 19.6304 28.1522 18.8317L28.1517 18.8306C27.7579 18.0266 27.2056 17.3845 26.4993 16.9015L26.4977 16.9004C25.7877 16.423 24.9539 16.0779 23.9836 15.8724C23.0153 15.6618 21.9599 15.5617 20.7968 15.5617H9.46875H9.21875V15.8117V39.8389V40.0889H9.46875H21.113ZM23.774 34.0117L23.7736 34.0124C23.5803 34.3803 23.315 34.6683 22.9974 34.8778L22.9974 34.8778L22.9941 34.88C22.6714 35.1002 22.2843 35.2542 21.8348 35.3517L21.8331 35.3521C21.3885 35.4517 20.9117 35.4967 20.4057 35.4967H15.0083V29.3804H20.5102C21.6109 29.3804 22.4778 29.6332 23.1174 30.1177C23.7259 30.587 24.0611 31.3779 24.0611 32.5707C24.0611 33.1783 23.9619 33.657 23.774 34.0117ZM36.4046 28.202L36.4049 28.2008C36.5183 27.7999 36.7111 27.4232 36.9994 27.064C37.2848 26.715 37.6614 26.4149 38.1307 26.1698C38.5915 25.9319 39.1803 25.8077 39.9172 25.8077C41.049 25.8077 41.9295 26.1364 42.4341 26.6932C42.922 27.2349 43.2985 27.9973 43.4406 29.0292H36.2233C36.2573 28.779 36.3178 28.5029 36.4046 28.202ZM20.1126 25.2689H15.0083V20.1548H19.7084C19.7085 20.1548 19.7085 20.1548 19.7085 20.1548C20.166 20.1549 20.6052 20.1873 21.0217 20.2685L21.0217 20.2686L21.0268 20.2695C21.4421 20.3415 21.7951 20.472 22.1043 20.6588L22.1043 20.6589L22.1084 20.6612C22.4068 20.8339 22.6468 21.0802 22.8308 21.4027C23.0006 21.7128 23.0931 22.1291 23.0931 22.6601C23.0931 23.6207 22.8147 24.2627 22.2932 24.644L22.2928 24.6442C21.7304 25.0569 21.0093 25.2689 20.1126 25.2689ZM44.7084 20.0448H44.9584V19.7948V17.4241V17.1741H44.7084H34.9688H34.7188V17.4241V19.7948V20.0448H34.9688H44.7084ZM47.8912 0.25C51.1247 0.25 53.75 2.87537 53.75 6.10879V43.8912C53.75 47.1246 51.1246 49.75 47.8912 49.75H10.1088C6.87538 49.75 4.25 47.1246 4.25 43.8912V6.10879C4.25 2.87537 6.87528 0.25 10.1088 0.25H47.8912Z" stroke="#C6ABFF" stroke-opacity="0.6" stroke-width="0.5" shape-rendering="crispEdges"/>
</g>
<defs>
<filter id="filter0_ddd_541_1940" x="0" y="0" width="58" height="58" filterUnits="userSpaceOnUse" color-interpolation-filters="sRGB">
<feFlood flood-opacity="0" result="BackgroundImageFix"/>
<feColorMatrix in="SourceAlpha" type="matrix" values="0 0 0 0 0 0 0 0 0 0 0 0 0 0 0 0 0 0 127 0" result="hardAlpha"/>
<feOffset dy="4"/>
<feGaussianBlur stdDeviation="2"/>
<feComposite in2="hardAlpha" operator="out"/>
<feColorMatrix type="matrix" values="0 0 0 0 0 0 0 0 0 0 0 0 0 0 0 0 0 0 0.25 0"/>
<feBlend mode="normal" in2="BackgroundImageFix" result="effect1_dropShadow_541_1940"/>
<feColorMatrix in="SourceAlpha" type="matrix" values="0 0 0 0 0 0 0 0 0 0 0 0 0 0 0 0 0 0 127 0" result="hardAlpha"/>
<feOffset dy="4"/>
<feGaussianBlur stdDeviation="2"/>
<feComposite in2="hardAlpha" operator="out"/>
<feColorMatrix type="matrix" values="0 0 0 0 0 0 0 0 0 0 0 0 0 0 0 0 0 0 0.25 0"/>
<feBlend mode="normal" in2="effect1_dropShadow_541_1940" result="effect2_dropShadow_541_1940"/>
<feColorMatrix in="SourceAlpha" type="matrix" values="0 0 0 0 0 0 0 0 0 0 0 0 0 0 0 0 0 0 127 0" result="hardAlpha"/>
<feOffset dy="4"/>
<feGaussianBlur stdDeviation="2"/>
<feComposite in2="hardAlpha" operator="out"/>
<feColorMatrix type="matrix" values="0 0 0 0 0 0 0 0 0 0 0 0 0 0 0 0 0 0 0.25 0"/>
<feBlend mode="normal" in2="effect2_dropShadow_541_1940" result="effect3_dropShadow_541_1940"/>
<feBlend mode="normal" in="SourceGraphic" in2="effect3_dropShadow_541_1940" result="shape"/>
</filter>
<linearGradient id="paint0_linear_541_1940" x1="29" y1="0" x2="29" y2="50" gradientUnits="userSpaceOnUse">
<stop stop-color="#5940D3" stop-opacity="0.13"/>
<stop offset="1" stop-color="#2E216D" stop-opacity="0"/>
</linearGradient>
</defs>
</svg>
