<?xml version="1.0" encoding="UTF-8"?>
<svg id="Calque_2" data-name="Calque 2" xmlns="http://www.w3.org/2000/svg" viewBox="0 0 22.24 22.24">
  <defs>
    <style>
      .cls-1 {
        fill: #0f0e12;
      }

      .cls-1, .cls-2 {
        stroke: #fff;
        stroke-miterlimit: 10;
        stroke-width: .1px;
      }

      .cls-3 {
        fill: #fff;
      }

      .cls-2 {
        fill: #5d58a3;
      }
    </style>
  </defs>
  <g id="Calque_1-2" data-name="Calque 1">
    <circle class="cls-1" cx="11.12" cy="11.12" r="11.07"/>
    <path class="cls-2" d="M12.21,7.73h2.95c.66,0,1.23.14,1.71.41.48.28.86.67,1.13,1.18.27.51.4,1.11.4,1.79s-.13,1.29-.4,1.79c-.26.51-.64.9-1.12,1.18-.48.28-1.06.42-1.72.42h-1.76v-3.89c-.18,0-.41,0-.66,0-.2,0-.34,0-.53,0v4.97h2.94c.9,0,1.69-.19,2.36-.56s1.19-.89,1.56-1.57.55-1.46.55-2.35-.18-1.68-.55-2.35c-.37-.67-.89-1.19-1.56-1.56-.67-.37-1.46-.55-2.36-.55h-2.94v1.13"/>
    <path class="cls-3" d="M7.92,11.95c.57-.18,1.02-.5,1.35-.95.33-.45.5-.99.5-1.62,0-.54-.12-1.02-.37-1.43-.24-.41-.59-.73-1.03-.96-.44-.23-.95-.34-1.54-.34h-3.07v.9c.32,0,.64,0,.96,0h2.16c.38,0,.72.07,1.01.22.29.15.51.36.67.63.16.27.24.6.24.97s-.08.7-.24.98c-.16.28-.38.49-.67.64-.29.15-.62.22-1.01.22h-2.16c-.32,0-.64,0-.96,0v4.39h.96v-3.48h2.18l1.97,3.48h1.13l-2.09-3.64Z"/>
  </g>
</svg>