<svg viewBox="0 0 512 512" xmlns="http://www.w3.org/2000/svg"><path d="M32 480c0 17.7 14.31 32 32 32h160V288H32v192zm448-352h-42.14c11.96-22.92 15.01-50.55-.04-81.4C423.4 16.99 392.6-.016 359.5 0 317.7.016 290.7 21.32 256 68.3 221.3 21.32 194.3.016 152.5 0c-33.1-.016-63.88 16.99-78.32 46.6-15.05 30.85-12 58.5-.03 81.4H32c-17.67 0-32 14.33-32 32v64c0 17.6 14.4 31.97 31.1 31.97h448c17.6 0 32-14.37 32-31.97v-64c.9-17.7-13.4-32-31.1-32zm-326.1 0c-22.09 0-40-17.91-40-40s17.91-40 40-40c19.9 0 34.6 3.3 86.1 80h-86.1zm204.2 0H272c51.5-76.7 66.19-80 86.09-80 22.09 0 40 17.91 40 40s-17.89 40-39.99 40zM288 512h160c17.69 0 32-14.3 32-32V288H288.9l-.9 224z" fill="#6a5acd" class="fill-000000"></path></svg>