<svg width="38" height="45" viewBox="0 0 38 45" fill="none" xmlns="http://www.w3.org/2000/svg">
<path fill-rule="evenodd" clip-rule="evenodd" d="M13.548 44.5C13.548 43.8082 13.4862 40.4968 13.4738 38.0816C5.7762 39.8301 4.14524 34.2072 4.14524 34.2072C2.88496 30.8738 1.06866 29.9807 1.06866 29.9807C-1.43956 28.1819 1.254 28.2196 1.254 28.2196C4.03404 28.4209 5.49202 31.2008 5.49202 31.2008C7.96317 35.6161 11.9664 34.3456 13.548 33.6034C13.7951 31.7417 14.5117 30.4587 15.3025 29.7417C9.16168 29.0121 2.69962 26.534 2.69962 15.4644C2.69962 12.3071 3.77457 9.72838 5.54144 7.71573C5.25726 6.98614 4.30587 4.04264 5.81327 0.067658C5.81327 0.067658 8.13615 -0.712244 13.4244 3.02374C15.6361 2.38221 17.996 2.06773 20.356 2.05515C22.7036 2.06773 25.0759 2.38221 27.2876 3.02374C32.5758 -0.712244 34.8864 0.067658 34.8864 0.067658C36.3938 4.04264 35.4424 6.98614 35.1582 7.71573C36.925 9.74096 38 12.3197 38 15.4644C38 26.5592 31.5256 28.9995 25.3601 29.7165C26.3485 30.6096 27.2381 32.3707 27.2381 35.0626C27.2381 38.9244 27.2381 43.5566 27.2381 44.5" fill="url(#paint0_linear_538_1830)" fill-opacity="0.5"/>
<defs>
<linearGradient id="paint0_linear_538_1830" x1="19" y1="43" x2="19" y2="0" gradientUnits="userSpaceOnUse">
<stop stop-color="white"/>
<stop offset="1" stop-color="#DAB6FF"/>
</linearGradient>
</defs>
</svg>
