<svg width="63" height="62" viewBox="0 0 63 62" fill="none" xmlns="http://www.w3.org/2000/svg">
<g filter="url(#filter0_ddd_538_1826)">
<path fill-rule="evenodd" clip-rule="evenodd" d="M31.4091 0C16.2729 0 4 12.3917 4 27.6885C4 39.9235 11.8556 50.2902 22.7459 53.9546C24.1163 54.2078 24.618 53.3519 24.618 52.6166C24.618 51.9536 24.5935 50.2178 24.5813 47.9034C16.9581 49.579 15.343 44.1907 15.343 44.1907C14.0949 40.9964 12.2961 40.1405 12.2961 40.1405C9.8122 38.4168 12.4797 38.4529 12.4797 38.4529C15.2328 38.6458 16.6767 41.3098 16.6767 41.3098C19.1239 45.5408 23.0885 44.3233 24.6547 43.6121C24.8994 41.8281 25.6091 40.5986 26.3922 39.9115C20.3109 39.2123 13.9113 36.8377 13.9113 26.23C13.9113 23.2044 14.9759 20.7332 16.7256 18.8046C16.4442 18.1054 15.502 15.2847 16.9948 11.4756C16.9948 11.4756 19.2953 10.7282 24.5323 14.3083C26.7226 13.6936 29.0597 13.3922 31.3969 13.3802C33.7217 13.3922 36.0711 13.6936 38.2614 14.3083C43.4985 10.7282 45.7866 11.4756 45.7866 11.4756C47.2794 15.2847 46.3373 18.1054 46.0558 18.8046C47.8056 20.7453 48.8702 23.2164 48.8702 26.23C48.8702 36.8618 42.4584 39.2003 36.3525 39.8874C37.3314 40.7432 38.2124 42.4308 38.2124 45.0104C38.2124 48.7111 38.1757 51.7005 38.1757 52.6046C38.1757 53.3399 38.6652 54.2078 40.0601 53.9305C50.9748 50.2781 58.8182 39.9115 58.8182 27.6885C58.8182 12.3917 46.5453 0 31.4091 0Z" fill="url(#paint0_linear_538_1826)" shape-rendering="crispEdges"/>
<path d="M16.9428 46.867C18.3282 48.0287 20.6318 48.9506 24.333 48.211C24.3398 49.3687 24.3493 50.3669 24.3567 51.142C24.3632 51.8163 24.368 52.3218 24.368 52.6166C24.368 52.9331 24.2595 53.2571 24.0262 53.4727C23.8028 53.6791 23.4259 53.8221 22.8084 53.7119C12.0269 50.0759 4.25 39.8077 4.25 27.6885C4.25 12.5274 16.4133 0.25 31.4091 0.25C46.4049 0.25 58.5682 12.5274 58.5682 27.6885C58.5682 39.7964 50.8026 50.0649 39.9961 53.6883C39.3646 53.8104 38.9862 53.6685 38.7645 53.4637C38.5324 53.2491 38.4257 52.9232 38.4257 52.6046C38.4257 52.3064 38.4297 51.7805 38.4351 51.0755C38.4378 50.7145 38.4409 50.3064 38.4441 49.8579C38.4532 48.5347 38.4624 46.8615 38.4624 45.0104C38.4624 42.699 37.7693 41.0586 36.894 40.0741C39.8008 39.7016 42.7734 38.9131 45.0624 36.9789C47.4983 34.9205 49.1202 31.5998 49.1202 26.23C49.1202 23.2114 48.0725 20.7195 46.3439 18.7522C46.6848 17.831 47.4566 15.0516 46.0194 11.3844L45.9764 11.2746L45.8642 11.238L45.7866 11.4756C45.8642 11.238 45.864 11.2379 45.8637 11.2378L45.8632 11.2376L45.8619 11.2372L45.8587 11.2362L45.8497 11.2335C45.8425 11.2314 45.8331 11.2288 45.8214 11.2258C45.798 11.2199 45.7654 11.2124 45.7235 11.2046C45.6396 11.1892 45.5186 11.1727 45.3592 11.1651C45.0402 11.1498 44.5691 11.1704 43.9359 11.3049C42.6856 11.5706 40.8054 12.2806 38.2165 14.0364C36.0348 13.436 33.7035 13.1421 31.3981 13.1302L31.3956 13.1302C29.0781 13.1421 26.7585 13.4361 24.5772 14.0364C21.9881 12.2805 20.1049 11.5706 18.8515 11.3049C18.2169 11.1703 17.7443 11.1499 17.4243 11.1651C17.2643 11.1726 17.1429 11.1891 17.0587 11.2046C17.0167 11.2123 16.984 11.2198 16.9605 11.2258C16.9487 11.2287 16.9393 11.2313 16.9322 11.2334L16.9232 11.2361L16.92 11.2371L16.9187 11.2375L16.9181 11.2377C16.9178 11.2378 16.9176 11.2378 16.9948 11.4756L16.9176 11.2378L16.8052 11.2744L16.7621 11.3844C15.3251 15.0509 16.0964 17.83 16.4374 18.7517C14.7085 20.708 13.6613 23.2002 13.6613 26.23C13.6613 31.5877 15.2801 34.9111 17.7093 36.9769C19.9927 38.9187 22.9573 39.7185 25.8539 40.0973C25.1991 40.8397 24.6536 41.956 24.4271 43.4397C23.6461 43.7789 22.3748 44.1885 21.0187 44.0653C19.6062 43.937 18.0767 43.2294 16.8945 41.187C16.894 41.1862 16.8936 41.1854 16.8931 41.1846L16.8908 41.1803L16.8765 41.1552C16.8642 41.1337 16.8462 41.103 16.8225 41.0643C16.7751 40.987 16.705 40.8776 16.6123 40.7464C16.4273 40.4842 16.1512 40.1329 15.7855 39.775C15.0559 39.0609 13.9539 38.3056 12.4972 38.2035L12.4972 38.2031L12.4831 38.2029L12.4797 38.4529C12.4831 38.2029 12.483 38.2029 12.4829 38.2029H12.4826L12.482 38.2029L12.4799 38.2029L12.4729 38.2029L12.4483 38.2029C12.4274 38.2031 12.3977 38.2036 12.3612 38.2049C12.2884 38.2074 12.1874 38.2131 12.074 38.2257C11.8572 38.2499 11.557 38.3031 11.3311 38.434C11.2153 38.5011 11.0965 38.6015 11.0327 38.7509C10.9659 38.9075 10.9764 39.0777 11.046 39.2455C11.1754 39.5571 11.5301 39.9132 12.1536 40.3459L12.1703 40.3575L12.188 40.3659L12.188 40.3659L12.1883 40.3661L12.1885 40.3661L12.1887 40.3663L12.1897 40.3668L12.2008 40.3724C12.2114 40.378 12.2285 40.3872 12.2514 40.4003C12.2972 40.4266 12.3664 40.4688 12.4545 40.5297C12.6306 40.6516 12.8824 40.8485 13.1736 41.1434C13.7546 41.7316 14.496 42.713 15.107 44.2738L15.11 44.2832C15.1109 44.286 15.1119 44.2889 15.1129 44.2922C15.1165 44.3031 15.1212 44.317 15.127 44.3335C15.1421 44.3764 15.1647 44.4375 15.1959 44.5138C15.2584 44.6663 15.3557 44.8797 15.4968 45.1294C15.7786 45.6284 16.2367 46.2748 16.9428 46.867Z" stroke="#C6ABFF" stroke-opacity="0.6" stroke-width="0.5" shape-rendering="crispEdges"/>
</g>
<defs>
<filter id="filter0_ddd_538_1826" x="0" y="0" width="62.8184" height="62" filterUnits="userSpaceOnUse" color-interpolation-filters="sRGB">
<feFlood flood-opacity="0" result="BackgroundImageFix"/>
<feColorMatrix in="SourceAlpha" type="matrix" values="0 0 0 0 0 0 0 0 0 0 0 0 0 0 0 0 0 0 127 0" result="hardAlpha"/>
<feOffset dy="4"/>
<feGaussianBlur stdDeviation="2"/>
<feComposite in2="hardAlpha" operator="out"/>
<feColorMatrix type="matrix" values="0 0 0 0 0 0 0 0 0 0 0 0 0 0 0 0 0 0 0.25 0"/>
<feBlend mode="normal" in2="BackgroundImageFix" result="effect1_dropShadow_538_1826"/>
<feColorMatrix in="SourceAlpha" type="matrix" values="0 0 0 0 0 0 0 0 0 0 0 0 0 0 0 0 0 0 127 0" result="hardAlpha"/>
<feOffset dy="4"/>
<feGaussianBlur stdDeviation="2"/>
<feComposite in2="hardAlpha" operator="out"/>
<feColorMatrix type="matrix" values="0 0 0 0 0 0 0 0 0 0 0 0 0 0 0 0 0 0 0.25 0"/>
<feBlend mode="normal" in2="effect1_dropShadow_538_1826" result="effect2_dropShadow_538_1826"/>
<feColorMatrix in="SourceAlpha" type="matrix" values="0 0 0 0 0 0 0 0 0 0 0 0 0 0 0 0 0 0 127 0" result="hardAlpha"/>
<feOffset dy="4"/>
<feGaussianBlur stdDeviation="2"/>
<feComposite in2="hardAlpha" operator="out"/>
<feColorMatrix type="matrix" values="0 0 0 0 0 0 0 0 0 0 0 0 0 0 0 0 0 0 0.25 0"/>
<feBlend mode="normal" in2="effect2_dropShadow_538_1826" result="effect3_dropShadow_538_1826"/>
<feBlend mode="normal" in="SourceGraphic" in2="effect3_dropShadow_538_1826" result="shape"/>
</filter>
<linearGradient id="paint0_linear_538_1826" x1="31.4091" y1="0" x2="31.4091" y2="54" gradientUnits="userSpaceOnUse">
<stop stop-color="#5940D3" stop-opacity="0.13"/>
<stop offset="1" stop-color="#2E216D" stop-opacity="0"/>
</linearGradient>
</defs>
</svg>
