<svg width="58" height="58" viewBox="0 0 58 58" fill="none" xmlns="http://www.w3.org/2000/svg">
<g filter="url(#filter0_ddd_541_1898)">
<mask id="path-1-inside-1_541_1898" fill="white">
<path d="M30.5773 22.4364V22.3594C30.5613 22.3854 30.5443 22.4114 30.5273 22.4364H30.5773Z"/>
</mask>
<path d="M30.5773 22.4364V22.3594C30.5613 22.3854 30.5443 22.4114 30.5273 22.4364H30.5773Z" fill="#C6ABFF" fill-opacity="0.6"/>
<path d="M30.5773 22.4364V23.4364H31.5773V22.4364H30.5773ZM30.5773 22.3594H31.5773V18.8263L29.7257 21.8353L30.5773 22.3594ZM30.5273 22.4364L29.7004 21.8741L28.638 23.4364H30.5273V22.4364ZM31.5773 22.4364V22.3594H29.5773V22.4364H31.5773ZM29.7257 21.8353C29.7192 21.8459 29.7107 21.859 29.7004 21.8741L31.3543 22.9987C31.378 22.9638 31.4035 22.9249 31.429 22.8835L29.7257 21.8353ZM30.5273 23.4364H30.5773V21.4364H30.5273V23.4364Z" fill="black" mask="url(#path-1-inside-1_541_1898)"/>
<path d="M49.771 0H7.651C5.635 0 4 1.596 4 3.563V46.176C4 48.142 5.635 49.738 7.651 49.738H49.771C51.79 49.738 53.425 48.141 53.425 46.176V3.563C53.425 1.595 51.789 0 49.771 0ZM18.981 41.637H11.516V19.178H18.981V41.637ZM15.249 16.11H15.199C12.695 16.11 11.075 14.385 11.075 12.23C11.075 10.027 12.745 8.35 15.298 8.35C17.852 8.35 19.423 10.027 19.473 12.23C19.473 14.385 17.851 16.11 15.249 16.11ZM45.9 41.637H38.435V29.619C38.435 26.601 37.355 24.541 34.654 24.541C32.592 24.541 31.364 25.93 30.823 27.272C30.626 27.751 30.578 28.421 30.578 29.093V41.636H23.113C23.113 41.636 23.211 21.282 23.113 19.177H30.578V22.356C31.57 20.826 33.344 18.647 37.307 18.647C42.218 18.647 45.901 21.858 45.901 28.757L45.9 41.637Z" fill="url(#paint0_linear_541_1898)"/>
<path d="M18.981 41.887H19.231V41.637V19.178V18.928H18.981H11.516H11.266V19.178V41.637V41.887H11.516H18.981ZM19.723 12.23H19.7231L19.7229 12.2243C19.6966 11.0638 19.2685 10.029 18.4983 9.28417C17.7276 8.53885 16.6313 8.1 15.298 8.1C13.9659 8.1 12.8462 8.53832 12.0576 9.28199C11.2685 10.0261 10.825 11.063 10.825 12.23C10.825 14.5288 12.5627 16.36 15.199 16.36H15.249C16.6066 16.36 17.7271 15.909 18.5098 15.1586C19.2923 14.4083 19.723 13.3719 19.723 12.23ZM45.9 41.887H46.15L46.15 41.637L46.151 28.757C46.151 25.2645 45.2183 22.6695 43.6295 20.9454C42.0387 19.2194 39.8182 18.397 37.307 18.397C35.2758 18.397 33.7917 18.9566 32.6861 19.7222C31.8833 20.2781 31.2871 20.9378 30.828 21.5551V19.177V18.927H30.578H23.113H22.8511L22.8633 19.1886C22.9119 20.2331 22.912 25.8383 22.8998 31.1953C22.8936 33.8709 22.8844 36.4808 22.8768 38.4218C22.873 39.3923 22.8695 40.1956 22.867 40.7562L22.8641 41.4057L22.8633 41.5764L22.8631 41.62L22.863 41.6311L22.863 41.6339L22.863 41.6346C22.863 41.6347 22.863 41.6348 23.113 41.636L22.863 41.6348L22.8618 41.886H23.113H30.578H30.828V41.636V29.093C30.828 28.4219 30.8777 27.7963 31.0542 27.3671L31.0549 27.3655C31.5721 26.0824 32.7276 24.791 34.654 24.791C35.9307 24.791 36.7945 25.2722 37.3507 26.089C37.9178 26.9217 38.185 28.1327 38.185 29.619V41.637V41.887H38.435H45.9ZM7.651 0.25H49.771C51.6569 0.25 53.175 1.73899 53.175 3.563V46.176C53.175 47.9971 51.6578 49.488 49.771 49.488H7.651C5.76726 49.488 4.25 47.9982 4.25 46.176V3.563C4.25 1.73977 5.76731 0.25 7.651 0.25Z" stroke="#C6ABFF" stroke-opacity="0.6" stroke-width="0.5"/>
</g>
<defs>
<filter id="filter0_ddd_541_1898" x="0" y="0" width="57.4258" height="57.7344" filterUnits="userSpaceOnUse" color-interpolation-filters="sRGB">
<feFlood flood-opacity="0" result="BackgroundImageFix"/>
<feColorMatrix in="SourceAlpha" type="matrix" values="0 0 0 0 0 0 0 0 0 0 0 0 0 0 0 0 0 0 127 0" result="hardAlpha"/>
<feOffset dy="4"/>
<feGaussianBlur stdDeviation="2"/>
<feComposite in2="hardAlpha" operator="out"/>
<feColorMatrix type="matrix" values="0 0 0 0 0 0 0 0 0 0 0 0 0 0 0 0 0 0 0.25 0"/>
<feBlend mode="normal" in2="BackgroundImageFix" result="effect1_dropShadow_541_1898"/>
<feColorMatrix in="SourceAlpha" type="matrix" values="0 0 0 0 0 0 0 0 0 0 0 0 0 0 0 0 0 0 127 0" result="hardAlpha"/>
<feOffset dy="4"/>
<feGaussianBlur stdDeviation="2"/>
<feComposite in2="hardAlpha" operator="out"/>
<feColorMatrix type="matrix" values="0 0 0 0 0 0 0 0 0 0 0 0 0 0 0 0 0 0 0.25 0"/>
<feBlend mode="normal" in2="effect1_dropShadow_541_1898" result="effect2_dropShadow_541_1898"/>
<feColorMatrix in="SourceAlpha" type="matrix" values="0 0 0 0 0 0 0 0 0 0 0 0 0 0 0 0 0 0 127 0" result="hardAlpha"/>
<feOffset dy="4"/>
<feGaussianBlur stdDeviation="2"/>
<feComposite in2="hardAlpha" operator="out"/>
<feColorMatrix type="matrix" values="0 0 0 0 0 0 0 0 0 0 0 0 0 0 0 0 0 0 0.25 0"/>
<feBlend mode="normal" in2="effect2_dropShadow_541_1898" result="effect3_dropShadow_541_1898"/>
<feBlend mode="normal" in="SourceGraphic" in2="effect3_dropShadow_541_1898" result="shape"/>
</filter>
<linearGradient id="paint0_linear_541_1898" x1="28.7125" y1="0" x2="28.7125" y2="49.738" gradientUnits="userSpaceOnUse">
<stop stop-color="#5940D3" stop-opacity="0.13"/>
<stop offset="1" stop-color="#2E216D" stop-opacity="0"/>
</linearGradient>
</defs>
</svg>
