<svg width="35" height="34" viewBox="0 0 35 34" fill="none" xmlns="http://www.w3.org/2000/svg">
<path d="M7.9 33.29H0.43V10.83H7.9V33.29ZM4.17 7.76001H4.12C1.62 7.76001 0 6.03 0 3.88C0 1.73 1.67 0 4.22 0C6.77 0 8.34 1.68 8.39 3.88C8.39 6.04 6.77 7.76001 4.17 7.76001ZM34.82 33.29H27.35V21.27C27.35 18.25 26.27 16.19 23.57 16.19C21.51 16.19 20.28 17.58 19.74 18.92C19.54 19.4 19.49 20.07 19.49 20.74V33.28H12.02C12.02 33.28 12.12 12.93 12.02 10.82H19.49V14C20.48 12.47 22.26 10.29 26.22 10.29C31.13 10.29 34.81 13.5 34.81 20.4V33.28L34.82 33.29Z" fill="url(#paint0_linear_541_1949)" fill-opacity="0.4"/>
<defs>
<linearGradient id="paint0_linear_541_1949" x1="17.41" y1="0" x2="17.41" y2="33.29" gradientUnits="userSpaceOnUse">
<stop stop-color="#DAB6FF"/>
<stop offset="1" stop-color="white"/>
</linearGradient>
</defs>
</svg>
