<svg width="84" height="80" viewBox="0 0 84 80" fill="none" xmlns="http://www.w3.org/2000/svg">
<path d="M30.0797 56.79H22.6097V34.33H30.0797V56.79ZM26.3497 31.26H26.2997C23.7997 31.26 22.1797 29.53 22.1797 27.38C22.1797 25.23 23.8497 23.5 26.3997 23.5C28.9497 23.5 30.5197 25.18 30.5697 27.38C30.5697 29.54 28.9497 31.26 26.3497 31.26ZM56.9997 56.79H49.5297V44.77C49.5297 41.75 48.4497 39.69 45.7497 39.69C43.6897 39.69 42.4597 41.08 41.9197 42.42C41.7197 42.9 41.6697 43.57 41.6697 44.24V56.78H34.1997C34.1997 56.78 34.2997 36.43 34.1997 34.32H41.6697V37.5C42.6597 35.97 44.4397 33.79 48.3997 33.79C53.3097 33.79 56.9897 37 56.9897 43.9V56.78L56.9997 56.79Z" fill="url(#paint0_linear_541_1901)" fill-opacity="0.4"/>
<g filter="url(#filter0_f_541_1901)">
<mask id="path-2-inside-1_541_1901" fill="white">
<path d="M73.05 15.077V15C73.034 15.026 73.017 15.052 73 15.077H73.05Z"/>
</mask>
<path d="M73.05 15.077V15C73.034 15.026 73.017 15.052 73 15.077H73.05Z" fill="#C6ABFF" fill-opacity="0.6"/>
<path d="M73.05 15.077V16.077H74.05V15.077H73.05ZM73.05 15H74.05V11.467L72.1983 14.4759L73.05 15ZM73 15.077L72.1731 14.5147L71.1107 16.077H73V15.077ZM74.05 15.077V15H72.05V15.077H74.05ZM72.1983 14.4759C72.1918 14.4865 72.1833 14.4996 72.1731 14.5147L73.8269 15.6393C73.8507 15.6044 73.8762 15.5655 73.9017 15.5241L72.1983 14.4759ZM73 16.077H73.05V14.077H73V16.077Z" fill="black" mask="url(#path-2-inside-1_541_1901)"/>
<path d="M65.5642 10H14.4322C11.9848 10 10 11.9253 10 14.2981V65.7031C10 68.0747 11.9848 70 14.4322 70H65.5642C68.0152 70 70 68.0735 70 65.7031V14.2981C70 11.9241 68.014 10 65.5642 10ZM28.1863 60.2276H19.1241V33.1348H28.1863V60.2276ZM23.6558 29.4338H23.5951C20.5554 29.4338 18.5888 27.3529 18.5888 24.7533C18.5888 22.0958 20.6161 20.0728 23.7153 20.0728C26.8158 20.0728 28.7229 22.0958 28.7836 24.7533C28.7836 27.3529 26.8146 29.4338 23.6558 29.4338ZM60.8649 60.2276H51.8027V45.73C51.8027 42.0893 50.4917 39.6043 47.2127 39.6043C44.7096 39.6043 43.2188 41.2799 42.5621 42.8988C42.3229 43.4766 42.2646 44.2849 42.2646 45.0955V60.2264H33.2024C33.2024 60.2264 33.3214 35.6729 33.2024 33.1336H42.2646V36.9685C43.4689 35.1228 45.6225 32.4943 50.4334 32.4943C56.3951 32.4943 60.8662 36.3678 60.8662 44.6902L60.8649 60.2276Z" fill="url(#paint1_linear_541_1901)"/>
<path d="M28.1863 60.4776H28.4363V60.2276V33.1348V32.8848H28.1863H19.1241H18.8741V33.1348V60.2276V60.4776H19.1241H28.1863ZM29.0336 24.7533H29.0337L29.0335 24.7476C29.0018 23.3593 28.4867 22.1242 27.5626 21.2362C26.6382 20.3478 25.3214 19.8228 23.7153 19.8228C22.1106 19.8228 20.7652 20.3473 19.8189 21.234C18.872 22.1213 18.3388 23.3585 18.3388 24.7533C18.3388 27.4982 20.4246 29.6838 23.5951 29.6838H23.6558C25.2913 29.6838 26.6376 29.1442 27.5767 28.2494C28.5158 27.3547 29.0336 26.118 29.0336 24.7533ZM60.8649 60.4776H61.1149L61.1149 60.2276L61.1162 44.6902C61.1162 40.4855 59.9863 37.3688 58.0687 35.3013C56.1495 33.232 53.4695 32.2443 50.4334 32.2443C47.9786 32.2443 46.1878 32.916 44.8548 33.8333C43.829 34.5392 43.0822 35.385 42.5146 36.1637V33.1336V32.8836H42.2646H33.2024H32.9404L32.9527 33.1453C33.0118 34.4069 33.0119 41.1705 32.997 47.6317C32.9896 50.8594 32.9785 54.0078 32.9692 56.3492C32.9645 57.52 32.9603 58.489 32.9573 59.1653L32.9537 59.9489L32.9528 60.1547L32.9525 60.2074L32.9525 60.2207L32.9524 60.2241L32.9524 60.2249C32.9524 60.225 32.9524 60.2251 32.98 60.2252C33.0099 60.2254 33.0723 60.2258 33.2024 60.2264L32.9524 60.2252L32.9512 60.4764H33.2024H42.2646H42.5146V60.2264V45.0955C42.5146 44.2858 42.5746 43.5222 42.7931 42.9944L42.7937 42.9928C43.4263 41.4335 44.8442 39.8543 47.2127 39.8543C48.7791 39.8543 49.8451 40.4423 50.5311 41.4432C51.2279 42.4599 51.5527 43.9326 51.5527 45.73V60.2276V60.4776H51.8027H60.8649ZM14.4322 10.25H65.5642C67.8834 10.25 69.75 12.0695 69.75 14.2981V65.7031C69.75 67.9281 67.8845 69.75 65.5642 69.75H14.4322C12.1156 69.75 10.25 67.9294 10.25 65.7031V14.2981C10.25 12.0705 12.1156 10.25 14.4322 10.25Z" stroke="#C6ABFF" stroke-opacity="0.6" stroke-width="0.5"/>
</g>
<g filter="url(#filter1_ddd_541_1901)">
<mask id="path-6-inside-2_541_1901" fill="white">
<path d="M41.5773 37.4364V37.3594C41.5613 37.3854 41.5443 37.4114 41.5273 37.4364H41.5773Z"/>
</mask>
<path d="M41.5773 37.4364V37.3594C41.5613 37.3854 41.5443 37.4114 41.5273 37.4364H41.5773Z" fill="#C6ABFF" fill-opacity="0.6"/>
<path d="M41.5773 37.4364V38.4364H42.5773V37.4364H41.5773ZM41.5773 37.3594H42.5773V33.8263L40.7257 36.8353L41.5773 37.3594ZM41.5273 37.4364L40.7004 36.8741L39.638 38.4364H41.5273V37.4364ZM42.5773 37.4364V37.3594H40.5773V37.4364H42.5773ZM40.7257 36.8353C40.7192 36.8459 40.7107 36.859 40.7004 36.8741L42.3543 37.9987C42.378 37.9638 42.4035 37.9249 42.429 37.8835L40.7257 36.8353ZM41.5273 38.4364H41.5773V36.4364H41.5273V38.4364Z" fill="black" mask="url(#path-6-inside-2_541_1901)"/>
<path d="M60.771 15H18.651C16.635 15 15 16.596 15 18.563V61.176C15 63.142 16.635 64.738 18.651 64.738H60.771C62.79 64.738 64.425 63.141 64.425 61.176V18.563C64.425 16.595 62.789 15 60.771 15ZM29.981 56.637H22.516V34.178H29.981V56.637ZM26.249 31.11H26.199C23.695 31.11 22.075 29.385 22.075 27.23C22.075 25.027 23.745 23.35 26.298 23.35C28.852 23.35 30.423 25.027 30.473 27.23C30.473 29.385 28.851 31.11 26.249 31.11ZM56.9 56.637H49.435V44.619C49.435 41.601 48.355 39.541 45.654 39.541C43.592 39.541 42.364 40.93 41.823 42.272C41.626 42.751 41.578 43.421 41.578 44.093V56.636H34.113C34.113 56.636 34.211 36.282 34.113 34.177H41.578V37.356C42.57 35.826 44.344 33.647 48.307 33.647C53.218 33.647 56.901 36.858 56.901 43.757L56.9 56.637Z" fill="url(#paint2_linear_541_1901)"/>
<path d="M29.981 56.887H30.231V56.637V34.178V33.928H29.981H22.516H22.266V34.178V56.637V56.887H22.516H29.981ZM30.723 27.23H30.7231L30.7229 27.2243C30.6966 26.0638 30.2685 25.029 29.4983 24.2842C28.7276 23.5388 27.6313 23.1 26.298 23.1C24.9659 23.1 23.8462 23.5383 23.0576 24.282C22.2685 25.0261 21.825 26.063 21.825 27.23C21.825 29.5288 23.5627 31.36 26.199 31.36H26.249C27.6066 31.36 28.7271 30.909 29.5098 30.1586C30.2923 29.4083 30.723 28.3719 30.723 27.23ZM56.9 56.887H57.15L57.15 56.637L57.151 43.757C57.151 40.2645 56.2183 37.6695 54.6295 35.9454C53.0387 34.2194 50.8182 33.397 48.307 33.397C46.2758 33.397 44.7917 33.9566 43.6861 34.7222C42.8833 35.2781 42.2871 35.9378 41.828 36.5551V34.177V33.927H41.578H34.113H33.8511L33.8633 34.1886C33.9119 35.2331 33.912 40.8383 33.8998 46.1953C33.8936 48.8709 33.8844 51.4808 33.8768 53.4218C33.873 54.3923 33.8695 55.1956 33.867 55.7562L33.8641 56.4057L33.8633 56.5764L33.8631 56.62L33.863 56.6311L33.863 56.6339L33.863 56.6346C33.863 56.6347 33.863 56.6348 34.113 56.636L33.863 56.6348L33.8618 56.886H34.113H41.578H41.828V56.636V44.093C41.828 43.4219 41.8777 42.7963 42.0542 42.3671L42.0549 42.3655C42.5721 41.0824 43.7276 39.791 45.654 39.791C46.9307 39.791 47.7945 40.2722 48.3507 41.089C48.9178 41.9217 49.185 43.1327 49.185 44.619V56.637V56.887H49.435H56.9ZM18.651 15.25H60.771C62.6569 15.25 64.175 16.739 64.175 18.563V61.176C64.175 62.9971 62.6578 64.488 60.771 64.488H18.651C16.7673 64.488 15.25 62.9982 15.25 61.176V18.563C15.25 16.7398 16.7673 15.25 18.651 15.25Z" stroke="#C6ABFF" stroke-opacity="0.6" stroke-width="0.5"/>
</g>
<defs>
<filter id="filter0_f_541_1901" x="0" y="0" width="83.0508" height="80" filterUnits="userSpaceOnUse" color-interpolation-filters="sRGB">
<feFlood flood-opacity="0" result="BackgroundImageFix"/>
<feBlend mode="normal" in="SourceGraphic" in2="BackgroundImageFix" result="shape"/>
<feGaussianBlur stdDeviation="5" result="effect1_foregroundBlur_541_1901"/>
</filter>
<filter id="filter1_ddd_541_1901" x="11" y="15" width="57.4258" height="57.7344" filterUnits="userSpaceOnUse" color-interpolation-filters="sRGB">
<feFlood flood-opacity="0" result="BackgroundImageFix"/>
<feColorMatrix in="SourceAlpha" type="matrix" values="0 0 0 0 0 0 0 0 0 0 0 0 0 0 0 0 0 0 127 0" result="hardAlpha"/>
<feOffset dy="4"/>
<feGaussianBlur stdDeviation="2"/>
<feComposite in2="hardAlpha" operator="out"/>
<feColorMatrix type="matrix" values="0 0 0 0 0 0 0 0 0 0 0 0 0 0 0 0 0 0 0.25 0"/>
<feBlend mode="normal" in2="BackgroundImageFix" result="effect1_dropShadow_541_1901"/>
<feColorMatrix in="SourceAlpha" type="matrix" values="0 0 0 0 0 0 0 0 0 0 0 0 0 0 0 0 0 0 127 0" result="hardAlpha"/>
<feOffset dy="4"/>
<feGaussianBlur stdDeviation="2"/>
<feComposite in2="hardAlpha" operator="out"/>
<feColorMatrix type="matrix" values="0 0 0 0 0 0 0 0 0 0 0 0 0 0 0 0 0 0 0.25 0"/>
<feBlend mode="normal" in2="effect1_dropShadow_541_1901" result="effect2_dropShadow_541_1901"/>
<feColorMatrix in="SourceAlpha" type="matrix" values="0 0 0 0 0 0 0 0 0 0 0 0 0 0 0 0 0 0 127 0" result="hardAlpha"/>
<feOffset dy="4"/>
<feGaussianBlur stdDeviation="2"/>
<feComposite in2="hardAlpha" operator="out"/>
<feColorMatrix type="matrix" values="0 0 0 0 0 0 0 0 0 0 0 0 0 0 0 0 0 0 0.25 0"/>
<feBlend mode="normal" in2="effect2_dropShadow_541_1901" result="effect3_dropShadow_541_1901"/>
<feBlend mode="normal" in="SourceGraphic" in2="effect3_dropShadow_541_1901" result="shape"/>
</filter>
<linearGradient id="paint0_linear_541_1901" x1="39.5897" y1="23.5" x2="39.5897" y2="56.79" gradientUnits="userSpaceOnUse">
<stop stop-color="#DAB6FF"/>
<stop offset="1" stop-color="white"/>
</linearGradient>
<linearGradient id="paint1_linear_541_1901" x1="40" y1="10" x2="40" y2="70" gradientUnits="userSpaceOnUse">
<stop stop-color="#5940D3" stop-opacity="0.5"/>
<stop offset="1" stop-color="#2E216D" stop-opacity="0"/>
</linearGradient>
<linearGradient id="paint2_linear_541_1901" x1="39.7125" y1="15" x2="39.7125" y2="64.738" gradientUnits="userSpaceOnUse">
<stop stop-color="#5940D3" stop-opacity="0.13"/>
<stop offset="1" stop-color="#2E216D" stop-opacity="0"/>
</linearGradient>
</defs>
</svg>
