<?xml version="1.0" encoding="UTF-8"?>
<svg id="Calque_2" data-name="Calque 2" xmlns="http://www.w3.org/2000/svg" viewBox="0 0 87.96 29.4">
  <defs>
    <style>
      .cls-1 {
        fill: #fff;
      }

      .cls-2 {
        fill: #5d58a3;
        stroke: #fff;
        stroke-miterlimit: 10;
        stroke-width: .1px;
      }
    </style>
  </defs>
  <g id="Calque_1-2" data-name="Calque 1">
    <g>
      <path class="cls-2" d="M23.44,29.35c-.52,0-.99-.1-1.42-.3-.43-.2-.79-.46-1.08-.8-.29-.33-.5-.7-.63-1.11l.79-.3c.19.56.49.98.89,1.27.4.29.88.43,1.44.43.35,0,.66-.06.93-.17.27-.11.47-.27.62-.48.15-.21.22-.44.22-.71,0-.4-.11-.71-.33-.94-.22-.22-.54-.39-.95-.51l-1.47-.44c-.58-.17-1.02-.45-1.34-.85-.31-.4-.47-.85-.47-1.35,0-.43.11-.82.32-1.15.21-.33.5-.6.87-.79.37-.19.79-.29,1.26-.29s.93.09,1.33.27.72.42,1,.71c.27.29.46.62.58.98l-.77.31c-.18-.48-.45-.85-.82-1.1-.37-.25-.8-.37-1.3-.37-.32,0-.59.06-.83.17-.24.11-.42.27-.56.47-.13.21-.2.45-.2.73,0,.34.11.64.32.91.21.27.54.47.98.6l1.3.39c.65.19,1.13.47,1.46.82.33.36.5.81.5,1.35,0,.44-.11.83-.33,1.16s-.54.6-.94.79c-.4.19-.86.29-1.38.29Z"/>
      <path class="cls-2" d="M27.79,29.22v-8.19h.88v8.19h-.88Z"/>
      <path class="cls-2" d="M37.23,25.76h-2.89v-.77h3.72v.68c0,.54-.09,1.03-.29,1.48-.19.45-.46.84-.79,1.17-.34.33-.73.58-1.18.76-.45.18-.94.27-1.46.27-.58,0-1.11-.1-1.59-.31s-.9-.5-1.26-.88c-.36-.38-.63-.82-.83-1.34s-.3-1.08-.3-1.69.1-1.18.3-1.69c.2-.51.47-.96.83-1.34s.78-.68,1.26-.89,1.02-.31,1.59-.31,1.06.1,1.5.3c.44.2.82.45,1.12.76.3.31.52.64.65.98l-.79.38c-.21-.5-.52-.89-.95-1.18-.42-.29-.94-.43-1.54-.43s-1.14.14-1.61.43c-.47.29-.84.68-1.1,1.19-.26.51-.4,1.11-.4,1.79s.13,1.27.4,1.78c.26.51.63.91,1.1,1.19.47.28,1,.42,1.61.42.54,0,1.02-.12,1.45-.35.43-.23.77-.56,1.02-.96.25-.41.37-.89.37-1.41"/>
      <path class="cls-2" d="M39.64,29.22v-8.19h.77l4.51,6.47h0v-6.47h.88v8.19h-.77l-4.51-6.51h0v6.51h-.88Z"/>
    </g>
    <g>
      <path class="cls-1" d="M5.6,7.09c.76-.25,1.36-.67,1.81-1.27.44-.6.67-1.32.67-2.17,0-.73-.16-1.37-.49-1.92-.33-.55-.78-.98-1.37-1.28s-1.27-.46-2.05-.46H.05v1.2h1.92s0,0,0,0h2.25c.51,0,.96.1,1.35.3s.68.48.9.84c.21.36.32.8.32,1.3s-.11.94-.32,1.31c-.21.37-.51.65-.9.85s-.83.3-1.35.3H.05S.05,11.95.05,11.95h1.28v-4.65h2.91l2.64,4.65h1.51l-2.79-4.86Z"/>
      <path class="cls-1" d="M11.79,5.41c.29-.32.64-.57,1.03-.75.4-.18.84-.27,1.33-.27.36,0,.7.07,1.01.17.59.24.88-.52.5-.72-.47-.18-.97-.28-1.51-.28-.58,0-1.12.1-1.63.31-.5.21-.95.51-1.33.89-.38.38-.68.84-.89,1.36-.22.53-.32,1.1-.32,1.73s.11,1.2.32,1.73c.21.52.51.97.88,1.35.45.38,1.07-.24.47-.8-.22-.28-.41-.58-.54-.93-.16-.42-.24-.86-.24-1.34s.08-.91.24-1.33c.16-.42.39-.79.68-1.11Z"/>
      <path class="cls-2" d="M65.01,22.47c.29-.32.64-.57,1.03-.75.4-.18.84-.27,1.33-.27.36,0,.7.07,1.01.17.59.24.88-.52.5-.72-.47-.18-.97-.28-1.51-.28-.58,0-1.12.1-1.63.31-.5.21-.95.51-1.33.89-.38.38-.68.84-.89,1.36-.22.53-.32,1.1-.32,1.73s.11,1.2.32,1.73c.21.52.51.97.88,1.35.45.38,1.07-.24.47-.8-.22-.28-.41-.58-.54-.93-.16-.42-.24-.86-.24-1.34s.08-.91.24-1.33c.16-.42.39-.79.68-1.11Z"/>
      <path class="cls-1" d="M18,6.12c-.19-.57-.56-1.23-.96-1.41h0c-.57-.25-.8.35-.38.88.26.33.4.6.54.92.16.42.24.86.24,1.33s-.08.92-.24,1.34c-.16.42-.39.79-.68,1.11s-.64.57-1.03.75c-.4.18-.84.28-1.32.27-.4-.01-.74-.08-1.04-.18s-.63-.1-.72.16c-.08.24.02.48.26.58.45.18.96.24,1.5.28.58.04,1.12-.11,1.63-.32.5-.21.94-.51,1.32-.89.38-.38.68-.84.89-1.36.22-.53.32-1.1.32-1.73s-.15-1.18-.32-1.72Z"/>
      <path class="cls-2" d="M71.15,23.11c-.19-.57-.56-1.23-.96-1.41h0c-.57-.25-.8.35-.38.88.26.33.4.6.54.92.16.42.24.86.24,1.33s-.08.92-.24,1.34c-.16.42-.39.79-.68,1.11s-.64.57-1.03.75c-.4.18-.84.28-1.32.27-.4-.01-.74-.08-1.04-.18s-.63-.1-.72.16c-.08.24.02.48.26.58.45.18.96.24,1.5.28.58.04,1.12-.11,1.63-.32.5-.21.94-.51,1.32-.89.38-.38.68-.84.89-1.36.22-.53.32-1.1.32-1.73s-.15-1.18-.32-1.72Z"/>
      <path class="cls-1" d="M20.05,12.01V3.69h.78l3.13,4.54h-.44l3.12-4.54h.78v8.33h-.89v-7.12l.29.11-3.06,4.44h-.04l-3.05-4.44.28-.11v7.12h-.89Z"/>
      <path class="cls-1" d="M28.53,12.01l3.04-8.33h.96l3.04,8.33h-.94l-.72-2.03h-3.72l-.73,2.03h-.94ZM30.49,9.14h3.12l-1.69-4.79h.27l-1.7,4.79Z"/>
      <path class="cls-1" d="M36.68,12.01V3.69h.89v8.33h-.89Z"/>
      <path class="cls-1" d="M39.55,12.01V3.69h.78l4.89,7.01h-.3V3.69h.89v8.33h-.78l-4.89-7.06h.3v7.06h-.9Z"/>
      <path class="cls-2" d="M56.68,29.35c-.83,0-1.59-.15-2.29-.45s-1.3-.72-1.81-1.26c-.51-.54-.91-1.18-1.19-1.92s-.43-1.55-.43-2.43.14-1.7.43-2.43c.28-.74.68-1.38,1.19-1.93s1.11-.97,1.81-1.27,1.46-.45,2.29-.45,1.52.14,2.16.43c.64.28,1.17.65,1.61,1.1.44.45.75.92.94,1.41l-1.18.52c-.29-.68-.74-1.23-1.35-1.65s-1.33-.62-2.17-.62-1.63.21-2.31.62c-.67.41-1.2.98-1.58,1.71-.38.73-.57,1.59-.57,2.57s.19,1.82.57,2.56c.38.74.91,1.31,1.58,1.71.67.41,1.44.61,2.31.61s1.57-.21,2.17-.62,1.06-.96,1.35-1.64l1.18.52c-.19.48-.5.95-.94,1.4-.44.45-.97.81-1.61,1.1-.64.28-1.36.43-2.16.43Z"/>
      <path class="cls-2" d="M79.36,22.68c-.33-.61-.8-1.09-1.4-1.42-.6-.33-1.31-.5-2.12-.5h-2.7v.82h.88s1.82,0,1.82,0c.62,0,1.17.13,1.63.4.46.27.82.65,1.08,1.13.26.49.38,1.07.38,1.73s-.13,1.25-.38,1.74c-.25.49-.61.87-1.07,1.14-.46.27-1.01.4-1.64.4h-1.82v-3.66h-.88v4.48h2.7c.81,0,1.52-.17,2.12-.51.6-.34,1.07-.81,1.4-1.43.33-.62.5-1.34.5-2.17s-.17-1.56-.5-2.17Z"/>
      <polyline class="cls-2" points="81.74 25.25 87.91 25.25 87.91 24.42 81.79 24.42 81.79 25.3"/>
      <polyline class="cls-2" points="81.74 21.59 87.91 21.59 87.91 20.76 81.79 20.76 81.79 21.64"/>
      <polyline class="cls-2" points="81.74 28.91 87.91 28.91 87.91 28.08 81.79 28.08 81.79 28.96"/>
      <polyline class="cls-2" points="12.21 25.38 18.38 25.38 18.38 24.55 12.25 24.55 12.25 25.43"/>
      <polyline class="cls-2" points="12.21 21.72 18.38 21.72 18.38 20.89 12.25 20.89 12.25 21.77"/>
      <polyline class="cls-2" points="12.21 29.04 18.38 29.04 18.38 28.21 12.25 28.21 12.25 29.09"/>
      <path class="cls-2" d="M9.26,19.79c-.49-.91-1.18-1.61-2.07-2.1-.89-.5-1.94-.74-3.15-.74H.05v1.22h1.3s2.69,0,2.69,0c.92,0,1.73.2,2.41.6.68.4,1.22.96,1.6,1.68.38.72.57,1.58.57,2.57s-.19,1.85-.56,2.58c-.37.73-.9,1.29-1.59,1.69-.68.4-1.5.59-2.43.59H1.35v-5.42H.05v6.64h3.99c1.21,0,2.26-.25,3.15-.75.89-.5,1.58-1.21,2.07-2.12.49-.91.73-1.98.73-3.21s-.24-2.31-.73-3.22Z"/>
    </g>
  </g>
</svg>