<svg width="82" height="22" viewBox="0 0 82 22" fill="none" xmlns="http://www.w3.org/2000/svg">
<path d="M0.0498047 13.8791H2.9998C3.6598 13.8791 4.2298 14.0191 4.7098 14.2891C5.1898 14.5691 5.5698 14.9591 5.8398 15.4691C6.1098 15.9791 6.2398 16.5791 6.2398 17.2591C6.2398 17.9391 6.1098 18.5491 5.8398 19.0491C5.5798 19.5591 5.1998 19.9491 4.7198 20.2291C4.2398 20.5091 3.6598 20.6491 2.9998 20.6491H1.2398V16.7591C1.0598 16.7591 0.829805 16.7591 0.579805 16.7591C0.379805 16.7591 0.239805 16.7591 0.0498047 16.7591V21.7291H2.9898C3.8898 21.7291 4.6798 21.5391 5.3498 21.1691C6.0198 20.7991 6.5398 20.2791 6.9098 19.5991C7.2798 18.9191 7.4598 18.1391 7.4598 17.2491C7.4598 16.3591 7.2798 15.5691 6.9098 14.8991C6.5398 14.2291 6.0198 13.7091 5.3498 13.3391C4.6798 12.9691 3.8898 12.7891 2.9898 12.7891H0.0498047V13.9191" fill="#5D58A3"/>
<path d="M0.0498047 13.8791H2.9998C3.6598 13.8791 4.2298 14.0191 4.7098 14.2891C5.1898 14.5691 5.5698 14.9591 5.8398 15.4691C6.1098 15.9791 6.2398 16.5791 6.2398 17.2591C6.2398 17.9391 6.1098 18.5491 5.8398 19.0491C5.5798 19.5591 5.1998 19.9491 4.7198 20.2291C4.2398 20.5091 3.6598 20.6491 2.9998 20.6491H1.2398V16.7591C1.0598 16.7591 0.829805 16.7591 0.579805 16.7591C0.379805 16.7591 0.239805 16.7591 0.0498047 16.7591V21.7291H2.9898C3.8898 21.7291 4.6798 21.5391 5.3498 21.1691C6.0198 20.7991 6.5398 20.2791 6.9098 19.5991C7.2798 18.9191 7.4598 18.1391 7.4598 17.2491C7.4598 16.3591 7.2798 15.5691 6.9098 14.8991C6.5398 14.2291 6.0198 13.7091 5.3498 13.3391C4.6798 12.9691 3.8898 12.7891 2.9898 12.7891H0.0498047V13.9191" stroke="white" stroke-width="0.1" stroke-miterlimit="10"/>
<path d="M66.6797 13.8791H69.6297C70.2897 13.8791 70.8597 14.0191 71.3397 14.2891C71.8197 14.5691 72.1997 14.9591 72.4697 15.4691C72.7397 15.9791 72.8697 16.5791 72.8697 17.2591C72.8697 17.9391 72.7397 18.5491 72.4697 19.0491C72.2097 19.5591 71.8297 19.9491 71.3497 20.2291C70.8697 20.5091 70.2897 20.6491 69.6297 20.6491H67.8697V16.7591C67.6897 16.7591 67.4597 16.7591 67.2097 16.7591C67.0097 16.7591 66.8697 16.7591 66.6797 16.7591V21.7291H69.6197C70.5197 21.7291 71.3097 21.5391 71.9797 21.1691C72.6497 20.7991 73.1697 20.2791 73.5397 19.5991C73.9097 18.9191 74.0897 18.1391 74.0897 17.2491C74.0897 16.3591 73.9097 15.5691 73.5397 14.8991C73.1697 14.2291 72.6497 13.7091 71.9797 13.3391C71.3097 12.9691 70.5197 12.7891 69.6197 12.7891H66.6797V13.9191" fill="#5D58A3"/>
<path d="M66.6797 13.8791H69.6297C70.2897 13.8791 70.8597 14.0191 71.3397 14.2891C71.8197 14.5691 72.1997 14.9591 72.4697 15.4691C72.7397 15.9791 72.8697 16.5791 72.8697 17.2591C72.8697 17.9391 72.7397 18.5491 72.4697 19.0491C72.2097 19.5591 71.8297 19.9491 71.3497 20.2291C70.8697 20.5091 70.2897 20.6491 69.6297 20.6491H67.8697V16.7591C67.6897 16.7591 67.4597 16.7591 67.2097 16.7591C67.0097 16.7591 66.8697 16.7591 66.6797 16.7591V21.7291H69.6197C70.5197 21.7291 71.3097 21.5391 71.9797 21.1691C72.6497 20.7991 73.1697 20.2791 73.5397 19.5991C73.9097 18.9191 74.0897 18.1391 74.0897 17.2491C74.0897 16.3591 73.9097 15.5691 73.5397 14.8991C73.1697 14.2291 72.6497 13.7091 71.9797 13.3391C71.3097 12.9691 70.5197 12.7891 69.6197 12.7891H66.6797V13.9191" stroke="white" stroke-width="0.1" stroke-miterlimit="10"/>
<path d="M14.7699 12.7969H8.93994V13.8769H14.7699V12.7969Z" fill="#5D58A3" stroke="white" stroke-width="0.1" stroke-miterlimit="10"/>
<path d="M14.5299 16.7053H8.93994V17.8053C8.93994 17.8053 9.01994 17.8053 9.04994 17.8053H14.5299V16.6953V16.7053Z" fill="#5D58A3" stroke="white" stroke-width="0.1" stroke-miterlimit="10"/>
<path d="M8.93965 20.6784V21.7284H14.7696V20.6484H8.88965" fill="#5D58A3"/>
<path d="M8.93965 20.6784V21.7284H14.7696V20.6484H8.88965" stroke="white" stroke-width="0.1" stroke-miterlimit="10"/>
<path d="M19.2898 21.8762C18.7298 21.8762 18.2098 21.7662 17.7398 21.5562C17.2698 21.3462 16.8698 21.0563 16.5398 20.6863C16.2098 20.3163 15.9698 19.9063 15.8198 19.4463L16.8498 19.0263C17.0698 19.6063 17.3898 20.0463 17.8198 20.3563C18.2498 20.6663 18.7498 20.8162 19.3298 20.8162C19.6798 20.8162 19.9898 20.7562 20.2498 20.6462C20.5098 20.5362 20.7198 20.3763 20.8698 20.1763C21.0198 19.9763 21.0898 19.7362 21.0898 19.4662C21.0898 19.0862 20.9798 18.7963 20.7698 18.5763C20.5598 18.3563 20.2498 18.1963 19.8398 18.0763L18.1998 17.5763C17.5498 17.3763 17.0498 17.0662 16.7098 16.6362C16.3598 16.2062 16.1898 15.7062 16.1898 15.1462C16.1898 14.6562 16.3098 14.2262 16.5498 13.8562C16.7898 13.4862 17.1198 13.1962 17.5398 12.9762C17.9598 12.7662 18.4398 12.6562 18.9698 12.6562C19.4998 12.6562 19.9898 12.7562 20.4298 12.9462C20.8698 13.1362 21.2398 13.3963 21.5398 13.7163C21.8398 14.0363 22.0698 14.4063 22.2098 14.8263L21.1898 15.2463C21.0098 14.7463 20.7198 14.3662 20.3298 14.1062C19.9398 13.8462 19.4898 13.7063 18.9798 13.7063C18.6598 13.7063 18.3798 13.7563 18.1298 13.8663C17.8898 13.9763 17.6998 14.1363 17.5698 14.3363C17.4398 14.5363 17.3698 14.7863 17.3698 15.0563C17.3698 15.3863 17.4698 15.6762 17.6798 15.9362C17.8898 16.1962 18.1998 16.3863 18.6298 16.5263L20.1298 16.9662C20.8298 17.1862 21.3698 17.4862 21.7298 17.8862C22.0898 18.2862 22.2698 18.7862 22.2698 19.3762C22.2698 19.8662 22.1398 20.2963 21.8898 20.6763C21.6398 21.0563 21.2898 21.3462 20.8498 21.5562C20.4098 21.7662 19.8898 21.8762 19.2998 21.8762H19.2898Z" fill="#5D58A3" stroke="white" stroke-width="0.1" stroke-miterlimit="10"/>
<path d="M23.9697 21.7369V12.7969H25.1597V21.7369H23.9697Z" fill="#5D58A3" stroke="white" stroke-width="0.1" stroke-miterlimit="10"/>
<path d="M31.2696 21.8784C30.6396 21.8784 30.0496 21.7684 29.5196 21.5384C28.9796 21.3084 28.5196 20.9884 28.1196 20.5684C27.7196 20.1484 27.4196 19.6684 27.1996 19.1084C26.9796 18.5484 26.8696 17.9384 26.8696 17.2684C26.8696 16.5984 26.9796 15.9784 27.1996 15.4184C27.4196 14.8584 27.7296 14.3684 28.1196 13.9584C28.5096 13.5384 28.9696 13.2184 29.5096 12.9884C30.0396 12.7584 30.6296 12.6484 31.2696 12.6484C31.9096 12.6484 32.4396 12.7584 32.9296 12.9684C33.4196 13.1884 33.8396 13.4684 34.1796 13.8084C34.5196 14.1484 34.7596 14.5184 34.9096 14.9084L33.8496 15.4284C33.6396 14.9184 33.3196 14.5084 32.8696 14.1984C32.4296 13.8884 31.8896 13.7384 31.2696 13.7384C30.6496 13.7384 30.0896 13.8884 29.6096 14.1784C29.1296 14.4784 28.7496 14.8884 28.4796 15.4184C28.2096 15.9484 28.0696 16.5584 28.0696 17.2684C28.0696 17.9784 28.2096 18.5784 28.4796 19.1084C28.7596 19.6384 29.1396 20.0484 29.6196 20.3484C30.0996 20.6484 30.6596 20.7884 31.2796 20.7884C31.8196 20.7884 32.2996 20.6684 32.7396 20.4384C33.1796 20.2084 33.5296 19.8884 33.7896 19.4784C34.0496 19.0684 34.1796 18.5984 34.1796 18.0584C33.2096 18.0384 32.2396 18.0284 31.2596 18.0084V16.9884H35.3596V17.7784C35.3596 18.3984 35.2496 18.9684 35.0396 19.4684C34.8196 19.9684 34.5296 20.4084 34.1496 20.7684C33.7696 21.1284 33.3396 21.3984 32.8396 21.5884C32.3396 21.7784 31.8196 21.8684 31.2696 21.8684V21.8784Z" fill="#5D58A3" stroke="white" stroke-width="0.1" stroke-miterlimit="10"/>
<path d="M36.9399 21.7369V12.7969H37.9399L42.7799 19.6169L42.6299 12.7969H43.8199V21.7369H42.8199L38.0999 15.0069L38.1299 21.7369H36.9399Z" fill="#5D58A3" stroke="white" stroke-width="0.1" stroke-miterlimit="10"/>
<path d="M50.9198 21.8784C50.2898 21.8784 49.6998 21.7684 49.1698 21.5384C48.6298 21.3084 48.1698 20.9884 47.7798 20.5684C47.3898 20.1484 47.0798 19.6684 46.8598 19.1084C46.6398 18.5484 46.5298 17.9384 46.5298 17.2684C46.5298 16.5984 46.6398 15.9784 46.8598 15.4184C47.0798 14.8584 47.3898 14.3684 47.7798 13.9584C48.1698 13.5384 48.6298 13.2184 49.1698 12.9884C49.6998 12.7584 50.2898 12.6484 50.9298 12.6484C51.5698 12.6484 52.0998 12.7584 52.5898 12.9684C53.0798 13.1884 53.4998 13.4684 53.8398 13.8084C54.1798 14.1484 54.4198 14.5184 54.5698 14.9084L53.4898 15.4084C53.2798 14.9084 52.9598 14.4984 52.5198 14.1884C52.0798 13.8784 51.5498 13.7284 50.9398 13.7284C50.3298 13.7284 49.7598 13.8784 49.2798 14.1684C48.7998 14.4684 48.4198 14.8784 48.1498 15.4084C47.8798 15.9384 47.7398 16.5484 47.7398 17.2584C47.7398 17.9684 47.8798 18.5684 48.1498 19.0984C48.4198 19.6284 48.7998 20.0384 49.2798 20.3384C49.7598 20.6384 50.3198 20.7784 50.9398 20.7784C51.5598 20.7784 52.0798 20.6284 52.5198 20.3184C52.9598 20.0084 53.2798 19.6084 53.4898 19.1084L54.5698 19.5984C54.4298 19.9884 54.1798 20.3584 53.8398 20.6984C53.4998 21.0384 53.0798 21.3184 52.5898 21.5384C52.0998 21.7584 51.5398 21.8584 50.9298 21.8584L50.9198 21.8784Z" fill="#5D58A3" stroke="white" stroke-width="0.1" stroke-miterlimit="10"/>
<path d="M64.62 15.425C64.38 14.865 64.1 14.315 63.69 13.895C63.6 13.805 63.44 13.735 63.34 13.675C62.64 13.365 62.2 14.085 62.94 14.915C63.19 15.195 63.38 15.525 63.53 15.885C63.7 16.305 63.78 16.765 63.78 17.255C63.78 17.745 63.7 18.205 63.53 18.625C63.36 19.055 63.13 19.425 62.83 19.755C62.71 19.885 62.58 20.005 62.43 20.115C62.3 20.215 62.06 20.355 61.76 20.505C61.13 20.825 60.53 20.775 60.42 20.775C60.29 20.775 60.19 20.755 60.12 20.745C59.48 20.665 59.33 20.945 59.3 21.225C59.27 21.445 59.46 21.705 59.75 21.775C59.79 21.775 59.85 21.795 59.92 21.815C59.92 21.815 60.16 21.855 60.42 21.875C61.28 21.915 62.2 21.535 62.2 21.535C62.75 21.305 63.23 20.985 63.64 20.565C64.05 20.145 64.38 19.655 64.61 19.095C64.85 18.535 64.96 17.915 64.96 17.255C64.96 16.595 64.84 15.975 64.61 15.415L64.62 15.425Z" fill="#5D58A3" stroke="white" stroke-width="0.1" stroke-miterlimit="10"/>
<path d="M58.0199 14.7684C58.3199 14.4484 58.6699 14.1884 59.0799 14.0084C59.4899 13.8284 59.9399 13.7384 60.4199 13.7384C60.4399 13.7384 60.7799 13.7384 60.7999 13.7384C61.7199 13.7884 61.7099 12.7884 60.9299 12.6784C60.7599 12.6484 60.5999 12.6484 60.4199 12.6484C59.7799 12.6484 59.1899 12.7584 58.6399 12.9884C58.0899 13.2184 57.6099 13.5384 57.1999 13.9484C56.7899 14.3584 56.4599 14.8484 56.2299 15.4084C55.9899 15.9684 55.8799 16.5884 55.8799 17.2484C55.8799 17.9084 55.9999 18.5284 56.2299 19.0884C56.4699 19.6484 56.7899 20.1384 57.1999 20.5584C57.2399 20.5984 57.2799 20.6384 57.3299 20.6684C57.5499 20.7984 57.7999 20.7984 57.9899 20.6884C58.2999 20.4884 58.2599 20.0384 58.0599 19.8084C58.0599 19.7984 57.9899 19.7284 57.9899 19.7284C57.6699 19.4084 57.5099 19.0484 57.3099 18.6284C57.1099 18.2084 57.0599 17.7384 57.0599 17.2584C57.0599 16.7784 57.1399 16.3184 57.3099 15.8884C57.4799 15.4684 57.7099 15.0884 58.0099 14.7684H58.0199Z" fill="#5D58A3" stroke="white" stroke-width="0.1" stroke-miterlimit="10"/>
<path d="M81.1598 16.7109H75.5698V17.8109C77.4298 17.8109 79.2998 17.8109 81.1598 17.8109V16.7209V16.7109Z" fill="#5D58A3" stroke="white" stroke-width="0.1" stroke-miterlimit="10"/>
<path d="M75.6898 20.6562C75.6898 20.6562 75.6098 20.6562 75.5698 20.6562V21.7362H81.3998V20.6562H75.7798C75.7798 20.6562 75.7198 20.6562 75.6898 20.6562Z" fill="#5D58A3" stroke="white" stroke-width="0.1" stroke-miterlimit="10"/>
<path d="M75.5698 12.7969V13.8769C77.5098 13.8769 79.4598 13.8769 81.3998 13.8769V12.7969H75.5698Z" fill="#5D58A3" stroke="white" stroke-width="0.1" stroke-miterlimit="10"/>
<path d="M33.2499 2.76879C33.0099 2.20879 32.7299 1.65879 32.3199 1.23879C32.2299 1.14879 32.0699 1.07879 31.9699 1.01879C31.2699 0.70879 30.8299 1.42879 31.5699 2.25879C31.8199 2.53879 32.0099 2.86879 32.1599 3.22879C32.3299 3.64879 32.4099 4.10879 32.4099 4.59879C32.4099 5.08879 32.3299 5.54879 32.1599 5.96879C31.9899 6.39879 31.7599 6.76879 31.4599 7.09879C31.3399 7.22879 31.2099 7.34879 31.0599 7.45879C30.9299 7.55879 30.6899 7.69879 30.3899 7.84879C29.7599 8.16879 29.1599 8.11879 29.0499 8.11879C28.9199 8.11879 28.8199 8.09879 28.7499 8.08879C28.1099 8.00879 27.9599 8.28879 27.9299 8.56879C27.8999 8.78879 28.0899 9.04879 28.3799 9.11879C28.4199 9.11879 28.4799 9.13879 28.5499 9.15879C28.5499 9.15879 28.7899 9.19879 29.0499 9.21879C29.9099 9.25879 30.8299 8.87879 30.8299 8.87879C31.3799 8.64879 31.8599 8.32879 32.2699 7.90879C32.6799 7.48879 33.0099 6.99879 33.2399 6.43879C33.4799 5.87879 33.5899 5.25879 33.5899 4.59879C33.5899 3.93879 33.4699 3.31879 33.2399 2.75879L33.2499 2.76879Z" fill="white"/>
<path d="M26.6498 2.12C26.9498 1.8 27.2998 1.54 27.7098 1.36C28.1198 1.18 28.5698 1.09 29.0498 1.09C29.0698 1.09 29.4098 1.09 29.4298 1.09C30.3498 1.14 30.3398 0.14 29.5598 0.03C29.3898 0 29.2298 0 29.0498 0C28.4098 0 27.8198 0.11 27.2698 0.34C26.7198 0.57 26.2398 0.89 25.8298 1.3C25.4198 1.71 25.0898 2.2 24.8598 2.76C24.6198 3.32 24.5098 3.94 24.5098 4.6C24.5098 5.26 24.6298 5.88 24.8598 6.44C25.0998 7 25.4198 7.49 25.8298 7.91C25.8698 7.95 25.9098 7.99 25.9598 8.02C26.1798 8.15 26.4298 8.15 26.6198 8.04C26.9298 7.84 26.8898 7.39 26.6898 7.16C26.6898 7.15 26.6198 7.08 26.6198 7.08C26.2998 6.76 26.1398 6.4 25.9398 5.98C25.7398 5.56 25.6898 5.09 25.6898 4.61C25.6898 4.13 25.7698 3.67 25.9398 3.24C26.1098 2.82 26.3398 2.44 26.6398 2.12H26.6498Z" fill="white"/>
<path d="M21.15 5.37813C21.72 5.19813 22.17 4.87812 22.5 4.42812C22.83 3.97812 23 3.43813 23 2.80813C23 2.26812 22.88 1.78812 22.63 1.37812C22.39 0.968125 22.04 0.648125 21.6 0.418125C21.16 0.188125 20.65 0.078125 20.06 0.078125H17V0.978125C17.32 0.978125 17.64 0.978125 17.96 0.978125H20.12C20.5 0.978125 20.84 1.04812 21.13 1.19813C21.42 1.34813 21.64 1.55812 21.8 1.82812C21.96 2.09813 22.04 2.42813 22.04 2.79813C22.04 3.16813 21.96 3.49813 21.8 3.77813C21.64 4.05813 21.42 4.26813 21.13 4.41813C20.84 4.56813 20.51 4.63812 20.12 4.63812H17.96C17.64 4.63812 17.32 4.63812 17 4.63812V9.02812H17.96V5.54813H20.14L22.11 9.02812H23.24L21.15 5.38812V5.37813Z" fill="white"/>
<path d="M35.2302 9.01813V0.078125H36.0702L39.4302 4.94812H38.9602L42.3102 0.078125H43.1502V9.01813H42.1902V1.36812L42.5002 1.48812L39.2102 6.24813H39.1602L35.8802 1.48812L36.1802 1.36812V9.00813H35.2202L35.2302 9.01813Z" fill="white"/>
<path d="M44.3398 9.01813L47.5998 0.078125H48.6298L51.8898 9.01813H50.8798L50.1098 6.83813H46.1098L45.3298 9.01813H44.3198H44.3398ZM46.4398 5.92812H49.7898L47.9798 0.788125H48.2698L46.4498 5.92812H46.4398Z" fill="white"/>
<path d="M53.0801 9.01813V0.078125H54.0401V9.01813H53.0801Z" fill="white"/>
<path d="M56.1602 9.01813V0.078125H57.0002L62.2402 7.59812H61.9202V0.078125H62.8802V9.01813H62.0402L56.8002 1.44813H57.1202V9.01813H56.1602Z" fill="white"/>
</svg>
