<svg width="197" height="181" viewBox="0 0 197 181" fill="none" xmlns="http://www.w3.org/2000/svg">
<g filter="url(#filter0_f_545_2049)">
<path d="M13.5416 87.9596L92.2855 13.5271L129.999 53.0961L167.712 92.665L88.9681 167.097L13.5416 87.9596Z" stroke="url(#paint0_linear_545_2049)" stroke-opacity="0.8" stroke-width="5"/>
</g>
<path d="M27.6712 90.0068L109.322 12.8266L187.508 94.86L105.857 172.04L27.6712 90.0068Z" stroke="#C6ABFF" stroke-opacity="0.6"/>
<path d="M10.7083 90.0068L92.3591 12.8266L170.545 94.86L88.8945 172.04L10.7083 90.0068Z" stroke="#C6ABFF" stroke-opacity="0.6"/>
<g filter="url(#filter1_f_545_2049)">
<path d="M28.3854 87.9596L107.129 13.5271L144.842 53.0961L182.556 92.665L103.812 167.097L28.3854 87.9596Z" stroke="url(#paint1_linear_545_2049)" stroke-opacity="0.8" stroke-width="5"/>
</g>
<path d="M87.576 108.768C86.776 108.768 85.912 108.352 84.984 107.52C84.088 106.688 83.256 105.584 82.488 104.208L77.352 94.896H73.368L73.224 102.048C73.224 103.2 73.288 104.064 73.416 104.64C73.576 105.184 73.896 105.552 74.376 105.744C74.888 105.904 75.656 105.984 76.68 105.984L76.776 106.176L76.344 108.192C76.344 108.192 76.184 108.176 75.864 108.144C75.544 108.144 75.128 108.128 74.616 108.096C74.136 108.096 73.592 108.08 72.984 108.048C72.408 108.048 71.832 108.048 71.256 108.048C70.456 108.016 69.624 108.016 68.76 108.048C67.928 108.08 67.208 108.112 66.6 108.144C66.024 108.176 65.736 108.192 65.736 108.192L66.168 106.032C67.672 105.872 68.648 105.552 69.096 105.072C69.576 104.56 69.816 103.616 69.816 102.24L69.864 82.08C69.864 81.056 69.736 80.368 69.48 80.016C69.256 79.664 68.792 79.488 68.088 79.488C67.8 79.488 67.448 79.504 67.032 79.536C66.648 79.568 66.456 79.584 66.456 79.584L66.36 79.392L66.696 77.28C66.696 77.28 66.872 77.296 67.224 77.328C67.608 77.328 68.088 77.344 68.664 77.376C69.24 77.376 69.832 77.392 70.44 77.424C71.048 77.424 71.576 77.424 72.024 77.424C72.44 77.424 72.968 77.424 73.608 77.424C74.28 77.392 74.936 77.36 75.576 77.328C76.248 77.296 76.808 77.28 77.256 77.28C77.704 77.248 77.928 77.232 77.928 77.232C80.904 77.232 83.256 77.904 84.984 79.248C86.712 80.592 87.576 82.432 87.576 84.768C87.576 86.688 86.952 88.448 85.704 90.048C84.488 91.648 82.76 92.96 80.52 93.984L85.8 102.336C86.728 103.84 87.624 104.896 88.488 105.504C89.384 106.112 90.472 106.416 91.752 106.416L91.944 106.608L91.656 108.24L87.576 108.768ZM78.408 92.688C78.408 92.688 78.664 92.592 79.176 92.4C79.72 92.176 80.328 91.808 81 91.296C81.672 90.784 82.264 90.064 82.776 89.136C83.32 88.208 83.592 87.04 83.592 85.632C83.592 83.52 82.856 81.936 81.384 80.88C79.944 79.824 77.752 79.296 74.808 79.296C74.488 79.296 74.264 79.376 74.136 79.536C74.04 79.664 73.976 79.952 73.944 80.4C73.816 82.928 73.704 85.104 73.608 86.928C73.544 88.752 73.496 90.512 73.464 92.208L78.408 92.688ZM111.4 108.912C110.376 106.032 109.352 103.152 108.328 100.272C107.304 97.392 106.28 94.528 105.256 91.68C104.232 88.8 103.208 85.92 102.184 83.04H101.944C101.944 83.04 101.896 83.536 101.8 84.528C101.736 85.488 101.64 86.752 101.512 88.32C101.384 89.856 101.24 91.504 101.08 93.264C100.92 95.024 100.776 96.72 100.648 98.352C100.52 99.952 100.408 101.312 100.312 102.432C100.248 103.52 100.216 104.176 100.216 104.4C100.216 105.392 100.712 105.888 101.704 105.888C101.96 105.888 102.344 105.888 102.856 105.888C103.4 105.856 103.672 105.84 103.672 105.84L103.768 106.032L103.336 108.192C103.336 108.192 103.048 108.176 102.472 108.144C101.928 108.112 101.288 108.08 100.552 108.048C99.8478 108.016 99.2238 108 98.6797 108C98.1998 108 97.7198 108.016 97.2398 108.048C96.7598 108.08 96.3118 108.128 95.8958 108.192C95.4798 108.256 95.1438 108.304 94.8878 108.336C94.6638 108.368 94.5518 108.384 94.5518 108.384L94.7918 106.176C95.8158 106.048 96.5518 105.728 96.9998 105.216C97.4478 104.672 97.7358 103.76 97.8638 102.48C97.9278 101.904 98.0238 101.04 98.1518 99.888C98.2798 98.704 98.4238 97.376 98.5838 95.904C98.7438 94.4 98.8878 92.88 99.0158 91.344C99.1758 89.808 99.3198 88.352 99.4478 86.976C99.6078 85.6 99.7198 84.448 99.7838 83.52C99.8798 82.56 99.9278 81.968 99.9278 81.744C99.9278 81.168 99.7838 80.704 99.4958 80.352C99.2078 80 98.7598 79.728 98.1518 79.536C97.5438 79.312 96.7598 79.168 95.7998 79.104L95.6558 78.864L96.0398 77.184C96.0398 77.184 96.3598 77.2 96.9998 77.232C97.6718 77.264 98.4238 77.312 99.2558 77.376C100.088 77.408 100.76 77.424 101.272 77.424C101.752 77.424 102.232 77.408 102.712 77.376C103.224 77.344 103.656 77.312 104.008 77.28C104.36 77.248 104.536 77.232 104.536 77.232C105.624 80.72 106.648 83.92 107.608 86.832C108.6 89.744 109.464 92.256 110.2 94.368C110.968 96.48 111.56 98.128 111.976 99.312C112.424 100.464 112.648 101.04 112.648 101.04H112.888C112.888 101.04 113.096 100.464 113.512 99.312C113.96 98.128 114.568 96.48 115.336 94.368C116.104 92.224 116.984 89.712 117.976 86.832C118.968 83.952 120.04 80.784 121.192 77.328C121.192 77.296 121.384 77.296 121.768 77.328C122.184 77.36 122.632 77.392 123.112 77.424C123.624 77.424 124.04 77.424 124.36 77.424C124.84 77.424 125.496 77.408 126.328 77.376C127.16 77.312 127.896 77.264 128.536 77.232C129.208 77.168 129.544 77.136 129.544 77.136L129.64 77.328L129.4 79.104C128.024 79.264 127.048 79.552 126.472 79.968C125.896 80.352 125.608 80.944 125.608 81.744C125.608 82.032 125.624 82.672 125.656 83.664C125.72 84.656 125.8 85.872 125.896 87.312C125.992 88.752 126.088 90.304 126.184 91.968C126.312 93.6 126.424 95.232 126.52 96.864C126.648 98.496 126.76 99.984 126.856 101.328C127.08 103.184 127.336 104.416 127.624 105.024C127.912 105.6 128.44 105.888 129.208 105.888C129.496 105.888 129.784 105.872 130.072 105.84C130.392 105.808 130.552 105.792 130.552 105.792L130.648 105.984L130.216 108.144C130.216 108.144 129.96 108.128 129.448 108.096C128.936 108.064 128.312 108.032 127.576 108C126.872 108 126.232 108 125.656 108C125.144 108 124.6 108.016 124.024 108.048C123.448 108.08 122.904 108.128 122.392 108.192C121.88 108.256 121.464 108.304 121.144 108.336C120.824 108.368 120.664 108.384 120.664 108.384L120.856 106.176C121.848 106.048 122.568 105.792 123.016 105.408C123.464 105.024 123.688 104.48 123.688 103.776C123.688 103.488 123.64 102.8 123.544 101.712C123.48 100.592 123.384 99.248 123.256 97.68C123.128 96.112 123 94.48 122.872 92.784C122.744 91.088 122.616 89.504 122.488 88.032C122.36 86.56 122.248 85.36 122.152 84.432C122.088 83.504 122.056 83.04 122.056 83.04H121.816C121.048 85.152 120.28 87.28 119.512 89.424C118.744 91.536 117.96 93.664 117.16 95.808C116.392 97.952 115.624 100.096 114.856 102.24C114.088 104.352 113.32 106.464 112.552 108.576L111.4 108.912Z" fill="white"/>
<defs>
<filter id="filter0_f_545_2049" x="0" y="0" width="181.254" height="180.625" filterUnits="userSpaceOnUse" color-interpolation-filters="sRGB">
<feFlood flood-opacity="0" result="BackgroundImageFix"/>
<feBlend mode="normal" in="SourceGraphic" in2="BackgroundImageFix" result="shape"/>
<feGaussianBlur stdDeviation="5" result="effect1_foregroundBlur_545_2049"/>
</filter>
<filter id="filter1_f_545_2049" x="14.8438" y="0" width="181.254" height="180.625" filterUnits="userSpaceOnUse" color-interpolation-filters="sRGB">
<feFlood flood-opacity="0" result="BackgroundImageFix"/>
<feBlend mode="normal" in="SourceGraphic" in2="BackgroundImageFix" result="shape"/>
<feGaussianBlur stdDeviation="5" result="effect1_foregroundBlur_545_2049"/>
</filter>
<linearGradient id="paint0_linear_545_2049" x1="227.49" y1="299.547" x2="306.195" y2="382.467" gradientUnits="userSpaceOnUse">
<stop stop-color="#5940D3"/>
<stop offset="1" stop-color="#2E216D" stop-opacity="0"/>
</linearGradient>
<linearGradient id="paint1_linear_545_2049" x1="242.334" y1="299.547" x2="321.039" y2="382.467" gradientUnits="userSpaceOnUse">
<stop stop-color="#5940D3"/>
<stop offset="1" stop-color="#2E216D" stop-opacity="0"/>
</linearGradient>
</defs>
</svg>
