<?xml version="1.0" encoding="UTF-8"?>
<svg id="Calque_2" data-name="Calque 2" xmlns="http://www.w3.org/2000/svg" viewBox="0 0 87.96 29.6">
  <defs>
    <style>
      .cls-1 {
        fill: #fff;
      }

      .cls-2 {
        fill: #5d58a3;
        stroke: #fff;
        stroke-miterlimit: 10;
        stroke-width: .1px;
      }
    </style>
  </defs>
  <g id="Calque_1-2" data-name="Calque 1">
    <g>
      <path class="cls-2" d="M23.44,29.55c-.52,0-.99-.1-1.42-.3-.42-.2-.78-.46-1.08-.8-.29-.33-.5-.7-.63-1.11l.79-.3c.19.56.49.98.89,1.27.4.29.88.43,1.44.43.35,0,.66-.06.93-.17s.47-.27.62-.48c.15-.21.22-.44.22-.71,0-.4-.11-.71-.33-.94s-.54-.39-.95-.51l-1.47-.44c-.58-.17-1.03-.45-1.34-.85s-.47-.85-.47-1.35c0-.43.11-.82.32-1.15s.5-.6.88-.79c.37-.19.79-.29,1.26-.29s.93.09,1.33.27c.39.18.72.42,1,.71.27.29.47.62.58.98l-.77.31c-.18-.48-.45-.85-.82-1.1-.37-.25-.8-.37-1.3-.37-.32,0-.59.06-.83.17-.24.11-.42.27-.56.47-.13.21-.2.45-.2.73,0,.34.11.64.32.91.21.27.54.47.98.6l1.3.39c.65.19,1.13.47,1.46.82.33.36.5.81.5,1.35,0,.44-.11.83-.34,1.16s-.54.6-.93.79c-.4.19-.86.29-1.38.29Z"/>
      <path class="cls-2" d="M27.79,29.41v-8.19h.88v8.19h-.88Z"/>
      <path class="cls-2" d="M34.35,29.55c-.58,0-1.11-.1-1.6-.31-.48-.21-.9-.5-1.26-.88-.36-.38-.63-.82-.83-1.34-.2-.51-.3-1.08-.3-1.69s.1-1.18.3-1.69c.2-.51.47-.96.83-1.34.36-.38.78-.68,1.26-.89.48-.21,1.02-.31,1.6-.31s1.06.1,1.5.3c.44.2.82.45,1.12.76.3.31.52.64.65.98l-.79.38c-.21-.5-.52-.89-.95-1.18-.43-.29-.94-.43-1.54-.43s-1.14.14-1.61.43c-.47.29-.84.68-1.1,1.19-.26.51-.4,1.11-.4,1.79s.13,1.27.4,1.78c.26.51.63.91,1.1,1.19.47.28,1,.42,1.61.42.54,0,1.02-.12,1.45-.35s.77-.56,1.02-.96c.25-.41.37-.87.37-1.4v-.45l.4.4h-3.23v-.77h3.72v.68c0,.54-.1,1.03-.29,1.48-.19.45-.46.84-.79,1.17s-.73.58-1.18.76c-.45.18-.94.27-1.46.27Z"/>
      <path class="cls-2" d="M39.64,29.41v-8.19h.77l4.81,6.9h-.3v-6.9h.88v8.19h-.77l-4.81-6.94h.3v6.94h-.88Z"/>
    </g>
    <g>
      <path class="cls-1" d="M5.6,7.28c.76-.25,1.36-.67,1.81-1.27.44-.6.67-1.32.67-2.17,0-.73-.16-1.37-.49-1.92-.33-.55-.78-.98-1.37-1.28s-1.27-.46-2.05-.46H.05v1.2h1.92s0,0,0,0h2.25c.51,0,.96.1,1.35.3s.68.48.9.84c.21.36.32.8.32,1.3s-.11.94-.32,1.31c-.21.37-.51.65-.9.85s-.83.3-1.35.3H.05S.05,12.15.05,12.15h1.28v-4.65h2.91l2.64,4.65h1.51l-2.79-4.86Z"/>
      <path class="cls-1" d="M12.58,2.66c.42-.46.91-.82,1.48-1.07.57-.26,1.21-.39,1.9-.39.52,0,1,.1,1.45.24.84.34,1.26-.74.71-1.04-.68-.26-1.4-.41-2.17-.41-.83,0-1.61.15-2.33.45-.72.3-1.36.73-1.9,1.28-.55.55-.97,1.2-1.28,1.96-.31.75-.47,1.58-.47,2.48s.15,1.73.47,2.48c.31.74.73,1.39,1.26,1.93.64.55,1.54-.35.68-1.15-.32-.4-.59-.84-.78-1.33-.23-.6-.34-1.24-.34-1.93s.11-1.31.34-1.91c.23-.6.55-1.13.97-1.59Z"/>
      <path class="cls-1" d="M21.49,3.69c-.27-.82-.81-1.76-1.38-2.02h0c-.81-.36-1.15.51-.55,1.26.37.47.57.87.77,1.32.23.6.34,1.24.34,1.91s-.11,1.33-.34,1.93c-.23.6-.55,1.13-.97,1.59s-.91.82-1.48,1.07c-.57.26-1.21.4-1.9.39-.57-.02-1.06-.12-1.49-.26s-.91-.14-1.03.23c-.12.35.04.69.37.83.65.27,1.37.34,2.15.4.83.06,1.61-.15,2.33-.46.72-.3,1.36-.73,1.9-1.28.55-.55.97-1.2,1.28-1.96.31-.75.47-1.58.47-2.48s-.21-1.7-.47-2.47Z"/>
      <path class="cls-1" d="M24.42,12.15V.19h1.12l4.49,6.51h-.63L33.89.19h1.12v11.95h-1.28V1.93l.42.16-4.4,6.37h-.06l-4.38-6.37.4-.16v10.22h-1.28Z"/>
      <path class="cls-1" d="M36.6,12.15L40.96.19h1.38l4.36,11.95h-1.35l-1.03-2.92h-5.34l-1.04,2.92h-1.35ZM39.41,8.02h4.48l-2.42-6.87h.38l-2.44,6.87Z"/>
      <path class="cls-1" d="M48.3,12.15V.19h1.28v11.95h-1.28Z"/>
      <path class="cls-1" d="M52.4,12.15V.19h1.12l7.01,10.06h-.43V.19h1.28v11.95h-1.12l-7.01-10.12h.43v10.12h-1.28Z"/>
      <path class="cls-2" d="M56.68,29.55c-.83,0-1.59-.15-2.29-.45s-1.3-.72-1.81-1.26c-.51-.54-.91-1.18-1.19-1.92s-.43-1.55-.43-2.43.14-1.7.43-2.43c.28-.74.68-1.38,1.19-1.93s1.11-.97,1.81-1.27,1.46-.45,2.29-.45,1.52.14,2.16.43c.64.28,1.17.65,1.61,1.1.44.45.75.92.94,1.41l-1.18.52c-.29-.68-.74-1.23-1.35-1.65s-1.33-.62-2.17-.62-1.63.21-2.31.62c-.67.41-1.2.98-1.58,1.71-.38.73-.57,1.59-.57,2.57s.19,1.82.57,2.56c.38.74.91,1.31,1.58,1.71.67.41,1.44.61,2.31.61s1.57-.21,2.17-.62,1.06-.96,1.35-1.64l1.18.52c-.19.48-.5.95-.94,1.4-.44.45-.97.81-1.61,1.1-.64.28-1.36.43-2.16.43Z"/>
      <path class="cls-2" d="M67.35,29.28c-.57,0-1.11-.1-1.6-.31s-.93-.5-1.3-.88c-.37-.38-.67-.83-.88-1.34-.21-.52-.32-1.08-.32-1.7s.11-1.18.32-1.7c.21-.52.51-.96.88-1.34.37-.38.81-.67,1.3-.87.5-.21,1.03-.31,1.6-.31s1.11.1,1.6.31.93.5,1.3.88c.37.38.67.82.88,1.34s.32,1.08.32,1.69-.11,1.18-.32,1.7c-.21.52-.51.96-.88,1.34-.37.38-.81.67-1.3.88s-1.03.31-1.6.31ZM67.35,28.46c.48,0,.91-.09,1.3-.26.39-.18.73-.42,1.02-.74s.51-.68.67-1.09c.16-.41.24-.85.24-1.32s-.08-.9-.24-1.31c-.16-.41-.38-.77-.67-1.09s-.62-.56-1.02-.74c-.39-.18-.83-.26-1.3-.26s-.91.09-1.3.26c-.39.18-.73.42-1.02.74-.29.32-.51.68-.67,1.09-.16.41-.24.85-.24,1.31s.08.91.24,1.32c.16.41.38.77.67,1.09.29.32.63.56,1.02.74.4.18.83.26,1.3.26Z"/>
      <path class="cls-2" d="M79.36,22.88c-.33-.61-.8-1.09-1.4-1.42-.6-.33-1.31-.5-2.12-.5h-2.7v.82h.88s1.82,0,1.82,0c.62,0,1.17.13,1.63.4.46.27.82.65,1.08,1.13.26.49.38,1.07.38,1.73s-.13,1.25-.38,1.74c-.25.49-.61.87-1.07,1.14-.46.27-1.01.4-1.64.4h-1.82v-3.66h-.88v4.48h2.7c.81,0,1.52-.17,2.12-.51.6-.34,1.07-.81,1.4-1.43.33-.62.5-1.34.5-2.17s-.17-1.56-.5-2.17Z"/>
      <polyline class="cls-2" points="81.74 25.44 87.91 25.44 87.91 24.62 81.79 24.62 81.79 25.49"/>
      <polyline class="cls-2" points="81.74 21.78 87.91 21.78 87.91 20.96 81.79 20.96 81.79 21.83"/>
      <polyline class="cls-2" points="81.74 29.1 87.91 29.1 87.91 28.28 81.79 28.28 81.79 29.15"/>
      <polyline class="cls-2" points="12.21 25.57 18.38 25.57 18.38 24.75 12.25 24.75 12.25 25.62"/>
      <polyline class="cls-2" points="12.21 21.91 18.38 21.91 18.38 21.09 12.25 21.09 12.25 21.96"/>
      <polyline class="cls-2" points="12.21 29.23 18.38 29.23 18.38 28.41 12.25 28.41 12.25 29.28"/>
      <path class="cls-2" d="M9.26,19.98c-.49-.91-1.18-1.61-2.07-2.1-.89-.5-1.94-.74-3.15-.74H.05v1.22h1.3s2.69,0,2.69,0c.92,0,1.73.2,2.41.6.68.4,1.22.96,1.6,1.68.38.72.57,1.58.57,2.57s-.19,1.85-.56,2.58c-.37.73-.9,1.29-1.59,1.69-.68.4-1.5.59-2.43.59H1.35v-5.42H.05v6.64h3.99c1.21,0,2.26-.25,3.15-.75.89-.5,1.58-1.21,2.07-2.12.49-.91.73-1.98.73-3.21s-.24-2.31-.73-3.22Z"/>
    </g>
  </g>
</svg>