<?xml version="1.0" encoding="UTF-8"?>
<svg id="Calque_2" data-name="Calque 2" xmlns="http://www.w3.org/2000/svg" viewBox="0 0 79.74 23.17">
  <defs>
    <style>
      .cls-1 {
        font-family: PlusJakartaSans-Regular, 'Plus Jakarta Sans';
        font-size: 11px;
        font-variation-settings: 'wght' 400;
      }

      .cls-1, .cls-2 {
        fill: #5d58a3;
        stroke: #fff;
        stroke-miterlimit: 10;
        stroke-width: .1px;
      }

      .cls-3 {
        fill: #fff;
      }
    </style>
  </defs>
  <g id="Calque_1-2" data-name="Calque 1">
    <g>
      <text class="cls-1" transform="translate(16.76 20.48)"><tspan x="0" y="0">SIGN</tspan></text>
      <g>
        <path class="cls-3" d="M3.86,4.99c.52-.17.93-.46,1.24-.87.3-.41.46-.91.46-1.48,0-.5-.11-.94-.34-1.31-.22-.38-.54-.67-.94-.88s-.87-.31-1.41-.31H.05v.82h1.32s0,0,0,0h1.54c.35,0,.66.07.92.2s.47.33.62.58c.15.25.22.55.22.89s-.07.64-.22.9c-.15.25-.35.45-.62.58s-.57.2-.92.2H.05S.05,8.33.05,8.33h.88v-3.19h2l1.81,3.19h1.03l-1.91-3.33Z"/>
        <path class="cls-3" d="M8.64,1.83c.29-.32.63-.56,1.02-.74.39-.18.83-.26,1.3-.26.36,0,.69.07,1,.17.58.23.86-.51.49-.71-.46-.18-.96-.28-1.49-.28-.57,0-1.11.1-1.6.31-.5.21-.93.5-1.3.87-.37.38-.67.83-.88,1.34-.21.52-.32,1.08-.32,1.7s.11,1.18.32,1.7c.21.51.5.95.87,1.32.44.37,1.05-.24.47-.79-.22-.27-.4-.57-.53-.91-.16-.41-.24-.85-.24-1.32s.08-.9.24-1.31c.16-.41.38-.77.67-1.09Z"/>
        <path class="cls-3" d="M14.75,2.53c-.18-.56-.55-1.21-.95-1.38h0c-.56-.24-.79.35-.38.87.26.32.39.59.53.9.16.41.24.85.24,1.31s-.08.91-.24,1.32c-.16.41-.38.77-.67,1.09s-.62.56-1.02.74c-.39.18-.83.28-1.3.26-.39-.01-.73-.08-1.02-.18s-.62-.09-.71.16c-.08.24.02.47.26.57.45.18.94.23,1.47.27.57.04,1.11-.1,1.6-.31.49-.21.93-.5,1.3-.88.37-.38.67-.83.88-1.34.21-.52.32-1.08.32-1.7s-.15-1.17-.32-1.69Z"/>
        <path class="cls-3" d="M16.76,8.33V.13h.77l3.08,4.47h-.43L23.25.13h.77v8.19h-.88V1.32l.29.11-3.01,4.37h-.04l-3-4.37.27-.11v7.01h-.88Z"/>
        <path class="cls-3" d="M25.11,8.33L28.1.13h.95l2.99,8.19h-.92l-.7-2h-3.66l-.71,2h-.92ZM27.03,5.5h3.07l-1.66-4.71h.26l-1.67,4.71Z"/>
        <path class="cls-3" d="M33.13,8.33V.13h.88v8.19h-.88Z"/>
        <path class="cls-3" d="M35.94,8.33V.13h.77l4.81,6.9h-.3V.13h.88v8.19h-.77l-4.81-6.94h.3v6.94h-.88Z"/>
        <path class="cls-2" d="M50.42,20.61c-.58,0-1.11-.1-1.59-.31s-.9-.5-1.26-.88c-.36-.38-.63-.82-.83-1.34s-.3-1.08-.3-1.69.1-1.18.3-1.69c.2-.51.47-.96.83-1.34s.78-.68,1.26-.89,1.02-.31,1.59-.31,1.06.1,1.5.3c.44.2.82.45,1.12.76.3.31.52.64.65.98l-.83.36c-.21-.48-.52-.86-.94-1.15s-.93-.43-1.51-.43-1.14.14-1.61.43c-.47.29-.84.68-1.1,1.19-.26.51-.4,1.11-.4,1.79s.13,1.27.4,1.78c.26.51.63.91,1.1,1.19.47.28,1,.42,1.61.42s1.09-.14,1.51-.43.74-.67.94-1.14l.83.36c-.13.34-.35.66-.65.97-.3.31-.68.57-1.12.76-.44.2-.94.3-1.5.3Z"/>
        <path class="cls-2" d="M59.13,20.61c-.57,0-1.11-.1-1.6-.31s-.93-.5-1.3-.88c-.37-.38-.67-.83-.88-1.34-.21-.52-.32-1.08-.32-1.7s.11-1.18.32-1.7c.21-.52.51-.96.88-1.34.37-.38.81-.67,1.3-.87.5-.21,1.03-.31,1.6-.31s1.11.1,1.6.31.93.5,1.3.88c.37.38.67.82.88,1.34s.32,1.08.32,1.69-.11,1.18-.32,1.7c-.21.52-.51.96-.88,1.34-.37.38-.81.67-1.3.88s-1.03.31-1.6.31ZM59.13,19.78c.48,0,.91-.09,1.3-.26.39-.18.73-.42,1.02-.74s.51-.68.67-1.09c.16-.41.24-.85.24-1.32s-.08-.9-.24-1.31c-.16-.41-.38-.77-.67-1.09s-.62-.56-1.02-.74c-.39-.18-.83-.26-1.3-.26s-.91.09-1.3.26c-.39.18-.73.42-1.02.74-.29.32-.51.68-.67,1.09-.16.41-.24.85-.24,1.31s.08.91.24,1.32c.16.41.38.77.67,1.09.29.32.63.56,1.02.74.4.18.83.26,1.3.26Z"/>
        <path class="cls-2" d="M71.14,14.2c-.33-.61-.8-1.09-1.4-1.42-.6-.33-1.31-.5-2.12-.5h-2.7v.82h.88s1.82,0,1.82,0c.62,0,1.17.13,1.63.4.46.27.82.65,1.08,1.13.26.49.38,1.07.38,1.73s-.13,1.25-.38,1.74c-.25.49-.61.87-1.07,1.14-.46.27-1.01.4-1.64.4h-1.82v-3.66h-.88v4.48h2.7c.81,0,1.52-.17,2.12-.51.6-.34,1.07-.81,1.4-1.43.33-.62.5-1.34.5-2.17s-.17-1.56-.5-2.17Z"/>
        <polyline class="cls-2" points="73.52 16.77 79.69 16.77 79.69 15.94 73.56 15.94 73.56 16.82"/>
        <polyline class="cls-2" points="73.52 13.11 79.69 13.11 79.69 12.28 73.56 12.28 73.56 13.16"/>
        <polyline class="cls-2" points="73.52 20.43 79.69 20.43 79.69 19.6 73.56 19.6 73.56 20.48"/>
        <polyline class="cls-2" points="9.05 16.77 15.22 16.77 15.22 15.94 9.09 15.94 9.09 16.82"/>
        <polyline class="cls-2" points="9.05 13.11 15.22 13.11 15.22 12.28 9.09 12.28 9.09 13.16"/>
        <polyline class="cls-2" points="9.05 20.43 15.22 20.43 15.22 19.6 9.09 19.6 9.09 20.48"/>
        <path class="cls-2" d="M6.26,14.33c-.33-.61-.8-1.09-1.4-1.42-.6-.33-1.31-.5-2.12-.5H.05v.82h.88s1.82,0,1.82,0c.62,0,1.17.13,1.63.4.46.27.82.65,1.08,1.13.26.49.38,1.07.38,1.73s-.13,1.25-.38,1.74c-.25.49-.61.87-1.07,1.14-.46.27-1.01.4-1.64.4H.93v-3.66H.05v4.48h2.7c.81,0,1.52-.17,2.12-.51.6-.34,1.07-.81,1.4-1.43.33-.62.5-1.34.5-2.17s-.17-1.56-.5-2.17Z"/>
      </g>
    </g>
  </g>
</svg>