<?xml version="1.0" encoding="UTF-8"?>
<svg id="Calque_2" data-name="Calque 2" xmlns="http://www.w3.org/2000/svg" viewBox="0 0 81.45 21.93">
  <defs>
    <style>
      .cls-1 {
        fill: #fff;
      }

      .cls-2 {
        fill: #5d58a3;
        stroke: #fff;
        stroke-miterlimit: 10;
        stroke-width: .1px;
      }
    </style>
  </defs>
  <g id="Calque_1-2" data-name="Calque 1">
    <g>
      <path class="cls-2" d="M.05,13.88h2.95c.66,0,1.23.14,1.71.41.48.28.86.67,1.13,1.18.27.51.4,1.11.4,1.79s-.13,1.29-.4,1.79c-.26.51-.64.9-1.12,1.18-.48.28-1.06.42-1.72.42h-1.76v-3.89c-.18,0-.41,0-.66,0-.2,0-.34,0-.53,0v4.97h2.94c.9,0,1.69-.19,2.36-.56s1.19-.89,1.56-1.57.55-1.46.55-2.35-.18-1.68-.55-2.35c-.37-.67-.89-1.19-1.56-1.56-.67-.37-1.46-.55-2.36-.55H.05v1.13"/>
      <path class="cls-2" d="M66.68,13.88h2.95c.66,0,1.23.14,1.71.41.48.28.86.67,1.13,1.18.27.51.4,1.11.4,1.79s-.13,1.29-.4,1.79c-.26.51-.64.9-1.12,1.18-.48.28-1.06.42-1.72.42h-1.76v-3.89c-.18,0-.41,0-.66,0-.2,0-.34,0-.53,0v4.97h2.94c.9,0,1.69-.19,2.36-.56s1.19-.89,1.56-1.57.55-1.46.55-2.35-.18-1.68-.55-2.35c-.37-.67-.89-1.19-1.56-1.56-.67-.37-1.46-.55-2.36-.55h-2.94v1.13"/>
      <rect class="cls-2" x="8.94" y="12.8" width="5.83" height="1.08"/>
      <path class="cls-2" d="M14.53,16.71h-5.59v1.1s.08,0,.11,0h5.48v-1.11Z"/>
      <path class="cls-2" d="M8.94,20.68v1.05h5.83v-1.08h-5.88"/>
      <path class="cls-2" d="M19.29,21.88c-.56,0-1.08-.11-1.55-.32s-.87-.5-1.2-.87-.57-.78-.72-1.24l1.03-.42c.22.58.54,1.02.97,1.33.43.31.93.46,1.51.46.35,0,.66-.06.92-.17.26-.11.47-.27.62-.47.15-.2.22-.44.22-.71,0-.38-.11-.67-.32-.89-.21-.22-.52-.38-.93-.5l-1.64-.5c-.65-.2-1.15-.51-1.49-.94-.35-.43-.52-.93-.52-1.49,0-.49.12-.92.36-1.29.24-.37.57-.66.99-.88.42-.21.9-.32,1.43-.32s1.02.1,1.46.29c.44.19.81.45,1.11.77.3.32.53.69.67,1.11l-1.02.42c-.18-.5-.47-.88-.86-1.14-.39-.26-.84-.4-1.35-.4-.32,0-.6.05-.85.16-.24.11-.43.27-.56.47s-.2.45-.2.72c0,.33.1.62.31.88s.52.45.95.59l1.5.44c.7.22,1.24.52,1.6.92.36.4.54.9.54,1.49,0,.49-.13.92-.38,1.3-.25.38-.6.67-1.04.88-.44.21-.96.32-1.55.32Z"/>
      <path class="cls-2" d="M23.97,21.74v-8.94h1.19v8.94h-1.19Z"/>
      <path class="cls-2" d="M31.27,21.88c-.63,0-1.22-.11-1.75-.34-.54-.23-1-.55-1.4-.97-.4-.42-.7-.9-.92-1.46s-.33-1.17-.33-1.84.11-1.29.33-1.85.53-1.05.92-1.46c.39-.42.85-.74,1.39-.97.53-.23,1.12-.34,1.76-.34s1.17.11,1.66.32c.49.22.91.5,1.25.84.34.34.58.71.73,1.1l-1.06.52c-.21-.51-.53-.92-.98-1.23-.44-.31-.98-.46-1.6-.46s-1.18.15-1.66.44c-.48.3-.86.71-1.13,1.24-.27.53-.41,1.14-.41,1.85s.14,1.31.41,1.84c.28.53.66.94,1.14,1.24.48.3,1.04.44,1.66.44.54,0,1.02-.12,1.46-.35s.79-.55,1.05-.96c.26-.41.39-.88.39-1.42-.97-.02-1.94-.03-2.92-.05v-1.02h4.1v.79c0,.62-.11,1.19-.32,1.69-.22.5-.51.94-.89,1.3s-.81.63-1.31.82c-.5.19-1.02.28-1.57.28Z"/>
      <path class="cls-2" d="M36.94,21.74v-8.94h1l4.84,6.82h0l-.15-6.82h1.19v8.94h-1l-4.72-6.73h0l.03,6.73h-1.19Z"/>
      <path class="cls-2" d="M50.92,21.88c-.63,0-1.22-.11-1.75-.34-.54-.23-1-.55-1.39-.97-.39-.42-.7-.9-.92-1.46s-.33-1.17-.33-1.84.11-1.29.33-1.85.53-1.05.92-1.46c.39-.42.85-.74,1.39-.97.53-.23,1.12-.34,1.76-.34s1.17.11,1.66.32c.49.22.91.5,1.25.84.34.34.58.71.73,1.1l-1.08.5c-.21-.5-.53-.91-.97-1.22-.44-.31-.97-.46-1.58-.46s-1.18.15-1.66.44c-.48.3-.86.71-1.13,1.24-.27.53-.41,1.14-.41,1.85s.14,1.31.41,1.84c.27.53.65.94,1.13,1.24.48.3,1.04.44,1.66.44s1.14-.15,1.58-.46c.44-.31.76-.71.97-1.21l1.08.49c-.14.39-.39.76-.73,1.1-.34.34-.76.62-1.25.84-.49.22-1.05.32-1.66.32Z"/>
      <path class="cls-2" d="M64.62,15.43c-.24-.56-.52-1.11-.93-1.53-.09-.09-.25-.16-.35-.22-.7-.31-1.14.41-.4,1.24.25.28.44.61.59.97.17.42.25.88.25,1.37s-.08.95-.25,1.37c-.17.43-.4.8-.7,1.13-.12.13-.25.25-.4.36-.13.1-.37.24-.67.39-.63.32-1.23.27-1.34.27-.13,0-.23-.02-.3-.03-.64-.08-.79.2-.82.48-.03.22.16.48.45.55.04,0,.1.02.17.04,0,0,.24.04.5.06.86.04,1.78-.34,1.78-.34.55-.23,1.03-.55,1.44-.97s.74-.91.97-1.47c.24-.56.35-1.18.35-1.84s-.12-1.28-.35-1.84Z"/>
      <path class="cls-2" d="M58.02,14.77c.3-.32.65-.58,1.06-.76.41-.18.86-.27,1.34-.27.02,0,.36,0,.38,0,.92.05.91-.95.13-1.06-.17-.03-.33-.03-.51-.03-.64,0-1.23.11-1.78.34-.55.23-1.03.55-1.44.96-.41.41-.74.9-.97,1.46-.24.56-.35,1.18-.35,1.84s.12,1.28.35,1.84c.24.56.56,1.05.97,1.47.04.04.08.08.13.11.22.13.47.13.66.02.31-.2.27-.65.07-.88,0-.01-.07-.08-.07-.08-.32-.32-.48-.68-.68-1.1s-.25-.89-.25-1.37.08-.94.25-1.37c.17-.42.4-.8.7-1.12Z"/>
      <path class="cls-1" d="M16.3,2.77c-.24-.56-.52-1.11-.93-1.53-.09-.09-.25-.16-.35-.22-.7-.31-1.14.41-.4,1.24.25.28.44.61.59.97.17.42.25.88.25,1.37s-.08.95-.25,1.37c-.17.43-.4.8-.7,1.13-.12.13-.25.25-.4.36-.13.1-.37.24-.67.39-.63.32-1.23.27-1.34.27-.13,0-.23-.02-.3-.03-.64-.08-.79.2-.82.48-.03.22.16.48.45.55.04,0,.1.02.17.04,0,0,.24.04.5.06.86.04,1.78-.34,1.78-.34.55-.23,1.03-.55,1.44-.97s.74-.91.97-1.47c.24-.56.35-1.18.35-1.84s-.12-1.28-.35-1.84Z"/>
      <path class="cls-1" d="M9.7,2.12c.3-.32.65-.58,1.06-.76.41-.18.86-.27,1.34-.27.02,0,.36,0,.38,0,.92.05.91-.95.13-1.06-.17-.03-.33-.03-.51-.03-.64,0-1.23.11-1.78.34-.55.23-1.03.55-1.44.96-.41.41-.74.9-.97,1.46-.24.56-.35,1.18-.35,1.84s.12,1.28.35,1.84c.24.56.56,1.05.97,1.47.04.04.08.08.13.11.22.13.47.13.66.02.31-.2.27-.65.07-.88,0-.01-.07-.08-.07-.08-.32-.32-.48-.68-.68-1.1s-.25-.89-.25-1.37.08-.94.25-1.37c.17-.42.4-.8.7-1.12Z"/>
      <path class="cls-2" d="M81.16,16.71h-5.59v1.1c1.86,0,3.73,0,5.59,0v-1.09Z"/>
      <path class="cls-2" d="M75.69,20.66s-.08,0-.12,0v1.08h5.83v-1.08h-5.62s-.06,0-.09,0Z"/>
      <path class="cls-2" d="M75.57,12.8v1.08c1.94,0,3.89,0,5.83,0v-1.08h-5.83Z"/>
    </g>
    <g>
      <path class="cls-1" d="M4.2,5.38c.57-.18,1.02-.5,1.35-.95.33-.45.5-.99.5-1.62,0-.54-.12-1.02-.37-1.43-.24-.41-.59-.73-1.03-.96-.44-.23-.95-.34-1.54-.34H.05v.9c.32,0,.64,0,.96,0h2.16c.38,0,.72.07,1.01.22.29.15.51.36.67.63.16.27.24.6.24.97s-.08.7-.24.98c-.16.28-.38.49-.67.64-.29.15-.62.22-1.01.22H1.01c-.32,0-.64,0-.96,0v4.39h.96v-3.48h2.18l1.97,3.48h1.13l-2.09-3.64Z"/>
      <path class="cls-1" d="M18.28,9.02V.08h.84l3.36,4.87h-.47L25.36.08h.84v8.94h-.96V1.37l.31.12-3.29,4.76h-.05l-3.28-4.76.3-.12v7.64h-.96Z"/>
      <path class="cls-1" d="M27.39,9.02L30.65.08h1.03l3.26,8.94h-1.01l-.77-2.18h-4l-.78,2.18h-1.01ZM29.49,5.93h3.35l-1.81-5.14h.29l-1.82,5.14Z"/>
      <path class="cls-1" d="M36.13,9.02V.08h.96v8.94h-.96Z"/>
      <path class="cls-1" d="M39.21,9.02V.08h.84l5.24,7.52h-.32V.08h.96v8.94h-.84l-5.24-7.57h.32v7.57h-.96Z"/>
    </g>
  </g>
</svg>