<svg width="207" height="189" viewBox="0 0 207 189" fill="none" xmlns="http://www.w3.org/2000/svg">
<g filter="url(#filter0_f_480_2195)">
<rect x="30.2754" y="95.4531" width="95.389" height="8.47714" transform="rotate(-43.1365 30.2754 95.4531)" fill="url(#paint0_linear_480_2195)"/>
</g>
<g filter="url(#filter1_f_480_2195)">
<rect x="84" y="152.219" width="95.389" height="8.47714" transform="rotate(-43.1365 84 152.219)" fill="url(#paint1_linear_480_2195)"/>
</g>
<g filter="url(#filter2_f_480_2195)">
<rect x="95.7734" y="157.93" width="95.389" height="8.47714" transform="rotate(-133.592 95.7734 157.93)" fill="url(#paint2_linear_480_2195)"/>
</g>
<g filter="url(#filter3_f_480_2195)">
<rect x="151.773" y="104.93" width="95.389" height="8.47714" transform="rotate(-133.592 151.773 104.93)" fill="url(#paint3_linear_480_2195)"/>
</g>
<rect x="0.708325" y="0.0184728" width="77.3614" height="78.032" transform="matrix(0.726722 -0.686932 0.689929 0.723877 39.1808 93.3198)" stroke="white" stroke-opacity="0.8"/>
<g filter="url(#filter4_f_480_2195)">
<rect x="47.2754" y="95.4531" width="95.389" height="8.47714" transform="rotate(-43.1365 47.2754 95.4531)" fill="url(#paint4_linear_480_2195)"/>
</g>
<g filter="url(#filter5_f_480_2195)">
<rect x="101" y="152.219" width="95.389" height="8.47714" transform="rotate(-43.1365 101 152.219)" fill="url(#paint5_linear_480_2195)"/>
</g>
<g filter="url(#filter6_f_480_2195)">
<rect x="112.773" y="157.93" width="95.389" height="8.47714" transform="rotate(-133.592 112.773 157.93)" fill="url(#paint6_linear_480_2195)"/>
</g>
<g filter="url(#filter7_f_480_2195)">
<rect x="168.773" y="104.93" width="95.389" height="8.47714" transform="rotate(-133.592 168.773 104.93)" fill="url(#paint7_linear_480_2195)"/>
</g>
<rect x="0.708325" y="0.0184728" width="77.3614" height="78.032" transform="matrix(0.726722 -0.686932 0.689929 0.723877 56.1808 93.3198)" stroke="white" stroke-opacity="0.8"/>
<path d="M94.432 104.576C93.832 104.576 93.184 104.264 92.488 103.64C91.816 103.016 91.192 102.188 90.616 101.156L86.764 94.172H83.776L83.668 99.536C83.668 100.4 83.716 101.048 83.812 101.48C83.932 101.888 84.172 102.164 84.532 102.308C84.916 102.428 85.492 102.488 86.26 102.488L86.332 102.632L86.008 104.144C86.008 104.144 85.888 104.132 85.648 104.108C85.408 104.108 85.096 104.096 84.712 104.072C84.352 104.072 83.944 104.06 83.488 104.036C83.056 104.036 82.624 104.036 82.192 104.036C81.592 104.012 80.968 104.012 80.32 104.036C79.696 104.06 79.156 104.084 78.7 104.108C78.268 104.132 78.052 104.144 78.052 104.144L78.376 102.524C79.504 102.404 80.236 102.164 80.572 101.804C80.932 101.42 81.112 100.712 81.112 99.68L81.148 84.56C81.148 83.792 81.052 83.276 80.86 83.012C80.692 82.748 80.344 82.616 79.816 82.616C79.6 82.616 79.336 82.628 79.024 82.652C78.736 82.676 78.592 82.688 78.592 82.688L78.52 82.544L78.772 80.96C78.772 80.96 78.904 80.972 79.168 80.996C79.456 80.996 79.816 81.008 80.248 81.032C80.68 81.032 81.124 81.044 81.58 81.068C82.036 81.068 82.432 81.068 82.768 81.068C83.08 81.068 83.476 81.068 83.956 81.068C84.46 81.044 84.952 81.02 85.432 80.996C85.936 80.972 86.356 80.96 86.692 80.96C87.028 80.936 87.196 80.924 87.196 80.924C89.428 80.924 91.192 81.428 92.488 82.436C93.784 83.444 94.432 84.824 94.432 86.576C94.432 88.016 93.964 89.336 93.028 90.536C92.116 91.736 90.82 92.72 89.14 93.488L93.1 99.752C93.796 100.88 94.468 101.672 95.116 102.128C95.788 102.584 96.604 102.812 97.564 102.812L97.708 102.956L97.492 104.18L94.432 104.576ZM87.556 92.516C87.556 92.516 87.748 92.444 88.132 92.3C88.54 92.132 88.996 91.856 89.5 91.472C90.004 91.088 90.448 90.548 90.832 89.852C91.24 89.156 91.444 88.28 91.444 87.224C91.444 85.64 90.892 84.452 89.788 83.66C88.708 82.868 87.064 82.472 84.856 82.472C84.616 82.472 84.448 82.532 84.352 82.652C84.28 82.748 84.232 82.964 84.208 83.3C84.112 85.196 84.028 86.828 83.956 88.196C83.908 89.564 83.872 90.884 83.848 92.156L87.556 92.516ZM112.3 104.684C111.532 102.524 110.764 100.364 109.996 98.204C109.228 96.044 108.46 93.896 107.692 91.76C106.924 89.6 106.156 87.44 105.388 85.28H105.208C105.208 85.28 105.172 85.652 105.1 86.396C105.052 87.116 104.98 88.064 104.884 89.24C104.788 90.392 104.68 91.628 104.56 92.948C104.44 94.268 104.332 95.54 104.236 96.764C104.14 97.964 104.056 98.984 103.984 99.824C103.936 100.64 103.912 101.132 103.912 101.3C103.912 102.044 104.284 102.416 105.028 102.416C105.22 102.416 105.508 102.416 105.892 102.416C106.3 102.392 106.504 102.38 106.504 102.38L106.576 102.524L106.252 104.144C106.252 104.144 106.036 104.132 105.604 104.108C105.196 104.084 104.716 104.06 104.164 104.036C103.636 104.012 103.168 104 102.76 104C102.4 104 102.04 104.012 101.68 104.036C101.32 104.06 100.984 104.096 100.672 104.144C100.36 104.192 100.108 104.228 99.9158 104.252C99.7478 104.276 99.6638 104.288 99.6638 104.288L99.8438 102.632C100.612 102.536 101.164 102.296 101.5 101.912C101.836 101.504 102.052 100.82 102.148 99.86C102.196 99.428 102.268 98.78 102.364 97.916C102.46 97.028 102.568 96.032 102.688 94.928C102.808 93.8 102.916 92.66 103.012 91.508C103.132 90.356 103.24 89.264 103.336 88.232C103.456 87.2 103.54 86.336 103.588 85.64C103.66 84.92 103.696 84.476 103.696 84.308C103.696 83.876 103.588 83.528 103.372 83.264C103.156 83 102.82 82.796 102.364 82.652C101.908 82.484 101.32 82.376 100.6 82.328L100.492 82.148L100.78 80.888C100.78 80.888 101.02 80.9 101.5 80.924C102.004 80.948 102.568 80.984 103.192 81.032C103.816 81.056 104.32 81.068 104.704 81.068C105.064 81.068 105.424 81.056 105.784 81.032C106.168 81.008 106.492 80.984 106.756 80.96C107.02 80.936 107.152 80.924 107.152 80.924C107.968 83.54 108.736 85.94 109.456 88.124C110.2 90.308 110.848 92.192 111.4 93.776C111.976 95.36 112.42 96.596 112.732 97.484C113.068 98.348 113.236 98.78 113.236 98.78H113.416C113.416 98.78 113.572 98.348 113.884 97.484C114.22 96.596 114.676 95.36 115.252 93.776C115.828 92.168 116.488 90.284 117.232 88.124C117.976 85.964 118.78 83.588 119.644 80.996C119.644 80.972 119.788 80.972 120.076 80.996C120.388 81.02 120.724 81.044 121.084 81.068C121.468 81.068 121.78 81.068 122.02 81.068C122.38 81.068 122.872 81.056 123.496 81.032C124.12 80.984 124.672 80.948 125.152 80.924C125.656 80.876 125.908 80.852 125.908 80.852L125.98 80.996L125.8 82.328C124.768 82.448 124.036 82.664 123.604 82.976C123.172 83.264 122.956 83.708 122.956 84.308C122.956 84.524 122.968 85.004 122.992 85.748C123.04 86.492 123.1 87.404 123.172 88.484C123.244 89.564 123.316 90.728 123.388 91.976C123.484 93.2 123.568 94.424 123.64 95.648C123.736 96.872 123.82 97.988 123.892 98.996C124.06 100.388 124.252 101.312 124.468 101.768C124.684 102.2 125.08 102.416 125.656 102.416C125.872 102.416 126.088 102.404 126.304 102.38C126.544 102.356 126.664 102.344 126.664 102.344L126.736 102.488L126.412 104.108C126.412 104.108 126.22 104.096 125.836 104.072C125.452 104.048 124.984 104.024 124.432 104C123.904 104 123.424 104 122.992 104C122.608 104 122.2 104.012 121.768 104.036C121.336 104.06 120.928 104.096 120.544 104.144C120.16 104.192 119.848 104.228 119.608 104.252C119.368 104.276 119.248 104.288 119.248 104.288L119.392 102.632C120.136 102.536 120.676 102.344 121.012 102.056C121.348 101.768 121.516 101.36 121.516 100.832C121.516 100.616 121.48 100.1 121.408 99.284C121.36 98.444 121.288 97.436 121.192 96.26C121.096 95.084 121 93.86 120.904 92.588C120.808 91.316 120.712 90.128 120.616 89.024C120.52 87.92 120.436 87.02 120.364 86.324C120.316 85.628 120.292 85.28 120.292 85.28H120.112C119.536 86.864 118.96 88.46 118.384 90.068C117.808 91.652 117.22 93.248 116.62 94.856C116.044 96.464 115.468 98.072 114.892 99.68C114.316 101.264 113.74 102.848 113.164 104.432L112.3 104.684Z" fill="white"/>
<defs>
<filter id="filter0_f_480_2195" x="0.275391" y="0.234375" width="135.404" height="131.406" filterUnits="userSpaceOnUse" color-interpolation-filters="sRGB">
<feFlood flood-opacity="0" result="BackgroundImageFix"/>
<feBlend mode="normal" in="SourceGraphic" in2="BackgroundImageFix" result="shape"/>
<feGaussianBlur stdDeviation="15" result="effect1_foregroundBlur_480_2195"/>
</filter>
<filter id="filter1_f_480_2195" x="54" y="57" width="135.404" height="131.406" filterUnits="userSpaceOnUse" color-interpolation-filters="sRGB">
<feFlood flood-opacity="0" result="BackgroundImageFix"/>
<feBlend mode="normal" in="SourceGraphic" in2="BackgroundImageFix" result="shape"/>
<feGaussianBlur stdDeviation="15" result="effect1_foregroundBlur_480_2195"/>
</filter>
<filter id="filter2_f_480_2195" x="0" y="53" width="131.914" height="134.93" filterUnits="userSpaceOnUse" color-interpolation-filters="sRGB">
<feFlood flood-opacity="0" result="BackgroundImageFix"/>
<feBlend mode="normal" in="SourceGraphic" in2="BackgroundImageFix" result="shape"/>
<feGaussianBlur stdDeviation="15" result="effect1_foregroundBlur_480_2195"/>
</filter>
<filter id="filter3_f_480_2195" x="56" y="0" width="131.914" height="134.93" filterUnits="userSpaceOnUse" color-interpolation-filters="sRGB">
<feFlood flood-opacity="0" result="BackgroundImageFix"/>
<feBlend mode="normal" in="SourceGraphic" in2="BackgroundImageFix" result="shape"/>
<feGaussianBlur stdDeviation="15" result="effect1_foregroundBlur_480_2195"/>
</filter>
<filter id="filter4_f_480_2195" x="17.2754" y="0.234375" width="135.404" height="131.406" filterUnits="userSpaceOnUse" color-interpolation-filters="sRGB">
<feFlood flood-opacity="0" result="BackgroundImageFix"/>
<feBlend mode="normal" in="SourceGraphic" in2="BackgroundImageFix" result="shape"/>
<feGaussianBlur stdDeviation="15" result="effect1_foregroundBlur_480_2195"/>
</filter>
<filter id="filter5_f_480_2195" x="71" y="57" width="135.404" height="131.406" filterUnits="userSpaceOnUse" color-interpolation-filters="sRGB">
<feFlood flood-opacity="0" result="BackgroundImageFix"/>
<feBlend mode="normal" in="SourceGraphic" in2="BackgroundImageFix" result="shape"/>
<feGaussianBlur stdDeviation="15" result="effect1_foregroundBlur_480_2195"/>
</filter>
<filter id="filter6_f_480_2195" x="17" y="53" width="131.914" height="134.93" filterUnits="userSpaceOnUse" color-interpolation-filters="sRGB">
<feFlood flood-opacity="0" result="BackgroundImageFix"/>
<feBlend mode="normal" in="SourceGraphic" in2="BackgroundImageFix" result="shape"/>
<feGaussianBlur stdDeviation="15" result="effect1_foregroundBlur_480_2195"/>
</filter>
<filter id="filter7_f_480_2195" x="73" y="0" width="131.914" height="134.93" filterUnits="userSpaceOnUse" color-interpolation-filters="sRGB">
<feFlood flood-opacity="0" result="BackgroundImageFix"/>
<feBlend mode="normal" in="SourceGraphic" in2="BackgroundImageFix" result="shape"/>
<feGaussianBlur stdDeviation="15" result="effect1_foregroundBlur_480_2195"/>
</filter>
<linearGradient id="paint0_linear_480_2195" x1="77.9699" y1="103.93" x2="77.9699" y2="95.4531" gradientUnits="userSpaceOnUse">
<stop stop-color="#9400D3"/>
<stop offset="1" stop-color="#00C6FF"/>
</linearGradient>
<linearGradient id="paint1_linear_480_2195" x1="131.694" y1="160.696" x2="131.694" y2="152.219" gradientUnits="userSpaceOnUse">
<stop stop-color="#9400D3"/>
<stop offset="1" stop-color="#00C6FF"/>
</linearGradient>
<linearGradient id="paint2_linear_480_2195" x1="143.468" y1="166.407" x2="143.468" y2="157.93" gradientUnits="userSpaceOnUse">
<stop stop-color="#9400D3"/>
<stop offset="1" stop-color="#00C6FF"/>
</linearGradient>
<linearGradient id="paint3_linear_480_2195" x1="199.468" y1="113.407" x2="199.468" y2="104.93" gradientUnits="userSpaceOnUse">
<stop stop-color="#9400D3"/>
<stop offset="1" stop-color="#00C6FF"/>
</linearGradient>
<linearGradient id="paint4_linear_480_2195" x1="94.9699" y1="103.93" x2="94.9699" y2="95.4531" gradientUnits="userSpaceOnUse">
<stop stop-color="#9400D3"/>
<stop offset="1" stop-color="#00C6FF"/>
</linearGradient>
<linearGradient id="paint5_linear_480_2195" x1="148.694" y1="160.696" x2="148.694" y2="152.219" gradientUnits="userSpaceOnUse">
<stop stop-color="#9400D3"/>
<stop offset="1" stop-color="#00C6FF"/>
</linearGradient>
<linearGradient id="paint6_linear_480_2195" x1="160.468" y1="166.407" x2="160.468" y2="157.93" gradientUnits="userSpaceOnUse">
<stop stop-color="#9400D3"/>
<stop offset="1" stop-color="#00C6FF"/>
</linearGradient>
<linearGradient id="paint7_linear_480_2195" x1="216.468" y1="113.407" x2="216.468" y2="104.93" gradientUnits="userSpaceOnUse">
<stop stop-color="#9400D3"/>
<stop offset="1" stop-color="#00C6FF"/>
</linearGradient>
</defs>
</svg>
