<svg width="308" height="36" viewBox="0 0 308 36" fill="none" xmlns="http://www.w3.org/2000/svg">
<mask id="path-1-outside-1_973_3517" maskUnits="userSpaceOnUse" x="0" y="0" width="308" height="36" fill="black">
<rect fill="white" width="308" height="36"/>
<path d="M27.3062 35H24.1862L16.2662 23.912C15.7862 23.976 15.2902 24.024 14.7782 24.056C14.2662 24.088 13.7382 24.104 13.1942 24.104H3.73819V35H1.00219V21.704H13.1942C16.7142 21.704 19.3862 20.92 21.2102 19.352C23.0662 17.784 23.9942 15.592 23.9942 12.776C23.9942 9.928 23.0662 7.736 21.2102 6.2C19.3862 4.632 16.7142 3.848 13.1942 3.848H1.00219V1.4H13.1942C15.3062 1.4 17.1942 1.656 18.8582 2.168C20.5542 2.68 21.9782 3.432 23.1302 4.424C24.3142 5.384 25.2102 6.568 25.8182 7.976C26.4582 9.384 26.7782 10.984 26.7782 12.776C26.7782 15.464 26.0902 17.704 24.7142 19.496C23.3702 21.288 21.4502 22.552 18.9542 23.288L27.3062 35ZM49.9479 35.24C47.4519 35.24 45.1319 34.808 42.9879 33.944C40.8439 33.08 38.9879 31.896 37.4199 30.392C35.8519 28.888 34.6199 27.096 33.7239 25.016C32.8599 22.904 32.4279 20.632 32.4279 18.2C32.4279 15.736 32.8599 13.464 33.7239 11.384C34.6199 9.304 35.8519 7.512 37.4199 6.008C38.9879 4.504 40.8439 3.32 42.9879 2.456C45.1319 1.592 47.4519 1.16 49.9479 1.16C52.4439 1.16 54.7639 1.592 56.9079 2.456C59.0519 3.32 60.9079 4.504 62.4759 6.008C64.0439 7.512 65.2599 9.304 66.1239 11.384C67.0199 13.464 67.4679 15.736 67.4679 18.2C67.4679 20.632 67.0199 22.904 66.1239 25.016C65.2599 27.096 64.0439 28.888 62.4759 30.392C60.9079 31.896 59.0519 33.08 56.9079 33.944C54.7639 34.808 52.4439 35.24 49.9479 35.24ZM49.9479 32.744C52.0599 32.744 54.0119 32.376 55.8039 31.64C57.5959 30.904 59.1479 29.896 60.4599 28.616C61.8039 27.304 62.8439 25.768 63.5799 24.008C64.3159 22.216 64.6839 20.28 64.6839 18.2C64.6839 16.12 64.3159 14.2 63.5799 12.44C62.8439 10.648 61.8039 9.112 60.4599 7.832C59.1479 6.52 57.5959 5.496 55.8039 4.76C54.0119 4.024 52.0599 3.656 49.9479 3.656C47.8359 3.656 45.8839 4.024 44.0919 4.76C42.2999 5.496 40.7319 6.52 39.3879 7.832C38.0759 9.112 37.0519 10.648 36.3159 12.44C35.5799 14.2 35.2119 16.12 35.2119 18.2C35.2119 20.28 35.5799 22.216 36.3159 24.008C37.0519 25.768 38.0759 27.304 39.3879 28.616C40.7319 29.896 42.2999 30.904 44.0919 31.64C45.8839 32.376 47.8359 32.744 49.9479 32.744ZM78.5027 35H75.8147V1.4H78.1187L93.0467 27.08L107.879 1.4H110.135L110.183 35H107.495L107.447 6.776L93.6707 30.584H92.3267L78.5027 6.92V35ZM119.065 35H116.137L131.593 1.4H134.329L149.785 35H146.809L132.937 4.376L119.065 35ZM155.737 35V1.4H158.473V35H155.737ZM172.723 35H169.987V1.4H172.291L194.803 30.008V1.4H197.539V35H195.235L172.723 6.392V35ZM211.816 18.2V32.552H222.28C224.616 32.552 226.728 32.2 228.616 31.496C230.504 30.792 232.104 29.8 233.416 28.52C234.76 27.24 235.784 25.736 236.488 24.008C237.224 22.248 237.592 20.312 237.592 18.2C237.592 16.088 237.224 14.168 236.488 12.44C235.784 10.68 234.76 9.16 233.416 7.88C232.104 6.6 230.504 5.608 228.616 4.904C226.728 4.2 224.616 3.848 222.28 3.848H209.08V1.4H222.472C225.16 1.4 227.592 1.816 229.768 2.648C231.976 3.48 233.864 4.648 235.432 6.152C237 7.624 238.216 9.384 239.08 11.432C239.944 13.48 240.376 15.736 240.376 18.2C240.376 20.664 239.944 22.92 239.08 24.968C238.216 27.016 237 28.792 235.432 30.296C233.864 31.768 231.976 32.92 229.768 33.752C227.592 34.584 225.16 35 222.472 35H209.08V18.2H211.816ZM248.737 16.712H271.345V19.16H248.737V16.712ZM248.737 0.871999H271.345V3.32H248.737V0.871999ZM248.737 35H271.345V32.552H248.737V35ZM292.569 35H289.833L274.857 1.4H277.881L291.225 31.496L304.665 1.4H307.497L292.569 35Z"/>
</mask>
<path d="M27.3062 35H24.1862L16.2662 23.912C15.7862 23.976 15.2902 24.024 14.7782 24.056C14.2662 24.088 13.7382 24.104 13.1942 24.104H3.73819V35H1.00219V21.704H13.1942C16.7142 21.704 19.3862 20.92 21.2102 19.352C23.0662 17.784 23.9942 15.592 23.9942 12.776C23.9942 9.928 23.0662 7.736 21.2102 6.2C19.3862 4.632 16.7142 3.848 13.1942 3.848H1.00219V1.4H13.1942C15.3062 1.4 17.1942 1.656 18.8582 2.168C20.5542 2.68 21.9782 3.432 23.1302 4.424C24.3142 5.384 25.2102 6.568 25.8182 7.976C26.4582 9.384 26.7782 10.984 26.7782 12.776C26.7782 15.464 26.0902 17.704 24.7142 19.496C23.3702 21.288 21.4502 22.552 18.9542 23.288L27.3062 35ZM49.9479 35.24C47.4519 35.24 45.1319 34.808 42.9879 33.944C40.8439 33.08 38.9879 31.896 37.4199 30.392C35.8519 28.888 34.6199 27.096 33.7239 25.016C32.8599 22.904 32.4279 20.632 32.4279 18.2C32.4279 15.736 32.8599 13.464 33.7239 11.384C34.6199 9.304 35.8519 7.512 37.4199 6.008C38.9879 4.504 40.8439 3.32 42.9879 2.456C45.1319 1.592 47.4519 1.16 49.9479 1.16C52.4439 1.16 54.7639 1.592 56.9079 2.456C59.0519 3.32 60.9079 4.504 62.4759 6.008C64.0439 7.512 65.2599 9.304 66.1239 11.384C67.0199 13.464 67.4679 15.736 67.4679 18.2C67.4679 20.632 67.0199 22.904 66.1239 25.016C65.2599 27.096 64.0439 28.888 62.4759 30.392C60.9079 31.896 59.0519 33.08 56.9079 33.944C54.7639 34.808 52.4439 35.24 49.9479 35.24ZM49.9479 32.744C52.0599 32.744 54.0119 32.376 55.8039 31.64C57.5959 30.904 59.1479 29.896 60.4599 28.616C61.8039 27.304 62.8439 25.768 63.5799 24.008C64.3159 22.216 64.6839 20.28 64.6839 18.2C64.6839 16.12 64.3159 14.2 63.5799 12.44C62.8439 10.648 61.8039 9.112 60.4599 7.832C59.1479 6.52 57.5959 5.496 55.8039 4.76C54.0119 4.024 52.0599 3.656 49.9479 3.656C47.8359 3.656 45.8839 4.024 44.0919 4.76C42.2999 5.496 40.7319 6.52 39.3879 7.832C38.0759 9.112 37.0519 10.648 36.3159 12.44C35.5799 14.2 35.2119 16.12 35.2119 18.2C35.2119 20.28 35.5799 22.216 36.3159 24.008C37.0519 25.768 38.0759 27.304 39.3879 28.616C40.7319 29.896 42.2999 30.904 44.0919 31.64C45.8839 32.376 47.8359 32.744 49.9479 32.744ZM78.5027 35H75.8147V1.4H78.1187L93.0467 27.08L107.879 1.4H110.135L110.183 35H107.495L107.447 6.776L93.6707 30.584H92.3267L78.5027 6.92V35ZM119.065 35H116.137L131.593 1.4H134.329L149.785 35H146.809L132.937 4.376L119.065 35ZM155.737 35V1.4H158.473V35H155.737ZM172.723 35H169.987V1.4H172.291L194.803 30.008V1.4H197.539V35H195.235L172.723 6.392V35ZM211.816 18.2V32.552H222.28C224.616 32.552 226.728 32.2 228.616 31.496C230.504 30.792 232.104 29.8 233.416 28.52C234.76 27.24 235.784 25.736 236.488 24.008C237.224 22.248 237.592 20.312 237.592 18.2C237.592 16.088 237.224 14.168 236.488 12.44C235.784 10.68 234.76 9.16 233.416 7.88C232.104 6.6 230.504 5.608 228.616 4.904C226.728 4.2 224.616 3.848 222.28 3.848H209.08V1.4H222.472C225.16 1.4 227.592 1.816 229.768 2.648C231.976 3.48 233.864 4.648 235.432 6.152C237 7.624 238.216 9.384 239.08 11.432C239.944 13.48 240.376 15.736 240.376 18.2C240.376 20.664 239.944 22.92 239.08 24.968C238.216 27.016 237 28.792 235.432 30.296C233.864 31.768 231.976 32.92 229.768 33.752C227.592 34.584 225.16 35 222.472 35H209.08V18.2H211.816ZM248.737 16.712H271.345V19.16H248.737V16.712ZM248.737 0.871999H271.345V3.32H248.737V0.871999ZM248.737 35H271.345V32.552H248.737V35ZM292.569 35H289.833L274.857 1.4H277.881L291.225 31.496L304.665 1.4H307.497L292.569 35Z" fill="url(#paint0_linear_973_3517)"/>
<path d="M27.3062 35V35.25H27.7915L27.5097 34.8548L27.3062 35ZM24.1862 35L23.9828 35.1453L24.0575 35.25H24.1862V35ZM16.2662 23.912L16.4696 23.7667L16.3822 23.6443L16.2331 23.6642L16.2662 23.912ZM14.7782 24.056L14.7626 23.8065L14.7626 23.8065L14.7782 24.056ZM3.73819 24.104V23.854H3.48819V24.104H3.73819ZM3.73819 35V35.25H3.98819V35H3.73819ZM1.00219 35H0.752188V35.25H1.00219V35ZM1.00219 21.704V21.454H0.752188V21.704H1.00219ZM21.2102 19.352L21.0488 19.161L21.0472 19.1624L21.2102 19.352ZM21.2102 6.2L21.0472 6.38961L21.0508 6.3926L21.2102 6.2ZM1.00219 3.848H0.752188V4.098H1.00219V3.848ZM1.00219 1.4V1.15H0.752188V1.4H1.00219ZM18.8582 2.168L18.7847 2.40695L18.7859 2.40733L18.8582 2.168ZM23.1302 4.424L22.967 4.61352L22.9727 4.61819L23.1302 4.424ZM25.8182 7.976L25.5886 8.07513L25.5906 8.07945L25.8182 7.976ZM24.7142 19.496L24.5159 19.3437L24.5142 19.346L24.7142 19.496ZM18.9542 23.288L18.8835 23.0482L18.5469 23.1475L18.7506 23.4332L18.9542 23.288ZM27.3062 34.75H24.1862V35.25H27.3062V34.75ZM24.3896 34.8547L16.4696 23.7667L16.0628 24.0573L23.9828 35.1453L24.3896 34.8547ZM16.2331 23.6642C15.7593 23.7274 15.2691 23.7748 14.7626 23.8065L14.7938 24.3055C15.3113 24.2732 15.8131 24.2246 16.2992 24.1598L16.2331 23.6642ZM14.7626 23.8065C14.2561 23.8381 13.7333 23.854 13.1942 23.854V24.354C13.7431 24.354 14.2763 24.3379 14.7938 24.3055L14.7626 23.8065ZM13.1942 23.854H3.73819V24.354H13.1942V23.854ZM3.48819 24.104V35H3.98819V24.104H3.48819ZM3.73819 34.75H1.00219V35.25H3.73819V34.75ZM1.25219 35V21.704H0.752188V35H1.25219ZM1.00219 21.954H13.1942V21.454H1.00219V21.954ZM13.1942 21.954C16.7469 21.954 19.4868 21.1632 21.3732 19.5416L21.0472 19.1624C19.2856 20.6768 16.6814 21.454 13.1942 21.454V21.954ZM21.3715 19.543C23.293 17.9197 24.2442 15.6526 24.2442 12.776H23.7442C23.7442 15.5314 22.8394 17.6483 21.0488 19.161L21.3715 19.543ZM24.2442 12.776C24.2442 9.86856 23.2936 7.59973 21.3696 6.0074L21.0508 6.3926C22.8387 7.87227 23.7442 9.98743 23.7442 12.776H24.2442ZM21.3732 6.01042C19.4868 4.38883 16.7469 3.598 13.1942 3.598V4.098C16.6814 4.098 19.2856 4.87517 21.0472 6.38958L21.3732 6.01042ZM13.1942 3.598H1.00219V4.098H13.1942V3.598ZM1.25219 3.848V1.4H0.752188V3.848H1.25219ZM1.00219 1.65H13.1942V1.15H1.00219V1.65ZM13.1942 1.65C15.2864 1.65 17.1489 1.90364 18.7847 2.40694L18.9317 1.92905C17.2395 1.40836 15.326 1.15 13.1942 1.15V1.65ZM18.7859 2.40733C20.454 2.91089 21.8456 3.6477 22.9671 4.61344L23.2933 4.23456C22.1108 3.2163 20.6544 2.44911 18.9304 1.92867L18.7859 2.40733ZM22.9727 4.61819C24.1252 5.55261 24.9966 6.70391 25.5887 8.07511L26.0477 7.87689C25.4238 6.43208 24.5032 5.21538 23.2876 4.22981L22.9727 4.61819ZM25.5906 8.07945C26.2137 9.4502 26.5282 11.0141 26.5282 12.776H27.0282C27.0282 10.9539 26.7027 9.3178 26.0458 7.87255L25.5906 8.07945ZM26.5282 12.776C26.5282 15.4197 25.8523 17.6033 24.5159 19.3437L24.9125 19.6483C26.328 17.8047 27.0282 15.5083 27.0282 12.776H26.5282ZM24.5142 19.346C23.2075 21.0882 21.3365 22.3249 18.8835 23.0482L19.0249 23.5278C21.5639 22.7791 23.5329 21.4878 24.9142 19.646L24.5142 19.346ZM18.7506 23.4332L27.1026 35.1452L27.5097 34.8548L19.1577 23.1428L18.7506 23.4332ZM42.9879 33.944L43.0814 33.7121L42.9879 33.944ZM37.4199 30.392L37.2469 30.5724L37.2469 30.5724L37.4199 30.392ZM33.7239 25.016L33.4925 25.1107L33.4943 25.1149L33.7239 25.016ZM33.7239 11.384L33.4943 11.2851L33.4931 11.2881L33.7239 11.384ZM37.4199 6.008L37.2469 5.82758L37.2469 5.82758L37.4199 6.008ZM56.9079 2.456L56.8145 2.68788L56.8145 2.68788L56.9079 2.456ZM62.4759 6.008L62.3029 6.18842L62.3029 6.18842L62.4759 6.008ZM66.1239 11.384L65.893 11.4799L65.8943 11.4829L66.1239 11.384ZM66.1239 25.016L65.8938 24.9184L65.8931 24.9201L66.1239 25.016ZM62.4759 30.392L62.3029 30.2116L62.3029 30.2116L62.4759 30.392ZM56.9079 33.944L56.8145 33.7121L56.8145 33.7121L56.9079 33.944ZM55.8039 31.64L55.8989 31.8713L55.8989 31.8713L55.8039 31.64ZM60.4599 28.616L60.6345 28.7949L60.6346 28.7949L60.4599 28.616ZM63.5799 24.008L63.8106 24.1045L63.8112 24.103L63.5799 24.008ZM63.5799 12.44L63.3487 12.535L63.3493 12.5365L63.5799 12.44ZM60.4599 7.832L60.2831 8.00883L60.2875 8.01303L60.4599 7.832ZM44.0919 4.76L44.1869 4.99125L44.1869 4.99125L44.0919 4.76ZM39.3879 7.832L39.5625 8.01094L39.5626 8.01089L39.3879 7.832ZM36.3159 12.44L36.5466 12.5365L36.5472 12.535L36.3159 12.44ZM36.3159 24.008L36.0847 24.103L36.0853 24.1045L36.3159 24.008ZM39.3879 28.616L39.2111 28.7928L39.2155 28.797L39.3879 28.616ZM44.0919 31.64L44.1869 31.4087L44.1869 31.4087L44.0919 31.64ZM49.9479 34.99C47.4814 34.99 45.1934 34.5632 43.0814 33.7121L42.8945 34.1759C45.0705 35.0528 47.4225 35.49 49.9479 35.49V34.99ZM43.0814 33.7121C40.965 32.8593 39.1365 31.6921 37.593 30.2116L37.2469 30.5724C38.8393 32.0999 40.7228 33.3007 42.8945 34.1759L43.0814 33.7121ZM37.593 30.2116C36.0501 28.7317 34.8369 26.9677 33.9535 24.9171L33.4943 25.1149C34.403 27.2243 35.6538 29.0443 37.2469 30.5724L37.593 30.2116ZM33.9553 24.9213C33.1044 22.8413 32.6779 20.6017 32.6779 18.2H32.1779C32.1779 20.6623 32.6155 22.9667 33.4926 25.1107L33.9553 24.9213ZM32.6779 18.2C32.6779 15.7658 33.1046 13.5268 33.9548 11.4799L33.4931 11.2881C32.6153 13.4012 32.1779 15.7062 32.1779 18.2H32.6779ZM33.9535 11.4829C34.8369 9.43225 36.0501 7.66832 37.593 6.18842L37.2469 5.82758C35.6538 7.35568 34.403 9.17574 33.4943 11.2851L33.9535 11.4829ZM37.593 6.18842C39.1365 4.70788 40.965 3.54073 43.0814 2.68788L42.8945 2.22412C40.7228 3.09927 38.8393 4.30012 37.2469 5.82758L37.593 6.18842ZM43.0814 2.68788C45.1934 1.83677 47.4814 1.41 49.9479 1.41V0.909998C47.4225 0.909998 45.0705 1.34722 42.8945 2.22412L43.0814 2.68788ZM49.9479 1.41C52.4145 1.41 54.7025 1.83677 56.8145 2.68788L57.0014 2.22412C54.8254 1.34722 52.4734 0.909998 49.9479 0.909998V1.41ZM56.8145 2.68788C58.9308 3.54073 60.7593 4.70788 62.3029 6.18842L62.649 5.82758C61.0565 4.30012 59.173 3.09927 57.0014 2.22412L56.8145 2.68788ZM62.3029 6.18842C63.8451 7.66766 65.0418 9.43057 65.8931 11.4799L66.3548 11.2881C65.4781 9.17743 64.2428 7.35634 62.649 5.82758L62.3029 6.18842ZM65.8943 11.4829C66.7757 13.529 67.2179 15.767 67.2179 18.2H67.7179C67.7179 15.705 67.2641 13.399 66.3535 11.2851L65.8943 11.4829ZM67.2179 18.2C67.2179 20.6005 66.7759 22.8391 65.8938 24.9184L66.3541 25.1136C67.264 22.9689 67.7179 20.6635 67.7179 18.2H67.2179ZM65.8931 24.9201C65.0418 26.9694 63.8451 28.7323 62.3029 30.2116L62.649 30.5724C64.2428 29.0437 65.4781 27.2226 66.3548 25.1119L65.8931 24.9201ZM62.3029 30.2116C60.7593 31.6921 58.9308 32.8593 56.8145 33.7121L57.0014 34.1759C59.173 33.3007 61.0565 32.0999 62.649 30.5724L62.3029 30.2116ZM56.8145 33.7121C54.7025 34.5632 52.4145 34.99 49.9479 34.99V35.49C52.4734 35.49 54.8254 35.0528 57.0014 34.1759L56.8145 33.7121ZM49.9479 32.994C52.0896 32.994 54.0742 32.6207 55.8989 31.8713L55.709 31.4087C53.9497 32.1313 52.0303 32.494 49.9479 32.494V32.994ZM55.8989 31.8713C57.7188 31.1238 59.2983 30.0986 60.6345 28.7949L60.2854 28.4371C58.9976 29.6934 57.473 30.6842 55.709 31.4087L55.8989 31.8713ZM60.6346 28.7949C62.003 27.4591 63.0618 25.8949 63.8106 24.1045L63.3493 23.9115C62.626 25.6411 61.6049 27.1489 60.2853 28.4371L60.6346 28.7949ZM63.8112 24.103C64.5605 22.2787 64.9339 20.3102 64.9339 18.2H64.4339C64.4339 20.2498 64.0714 22.1533 63.3487 23.913L63.8112 24.103ZM64.9339 18.2C64.9339 16.0899 64.5605 14.1368 63.8106 12.3435L63.3493 12.5365C64.0714 14.2632 64.4339 16.1501 64.4339 18.2H64.9339ZM63.8112 12.345C63.0624 10.522 62.0029 8.95626 60.6324 7.65096L60.2875 8.01303C61.605 9.26774 62.6254 10.774 63.3487 12.535L63.8112 12.345ZM60.6367 7.65522C59.3003 6.3188 57.7201 5.27675 55.8989 4.52874L55.709 4.99125C57.4717 5.71525 58.9956 6.7212 60.2832 8.00877L60.6367 7.65522ZM55.8989 4.52874C54.0742 3.77929 52.0896 3.406 49.9479 3.406V3.906C52.0303 3.906 53.9497 4.26871 55.709 4.99125L55.8989 4.52874ZM49.9479 3.406C47.8063 3.406 45.8217 3.77929 43.997 4.52874L44.1869 4.99125C45.9462 4.26871 47.8656 3.906 49.9479 3.906V3.406ZM43.997 4.52874C42.1762 5.27654 40.581 6.318 39.2133 7.6531L39.5626 8.01089C40.8829 6.722 42.4236 5.71546 44.1869 4.99125L43.997 4.52874ZM39.2134 7.65305C37.8756 8.95822 36.8329 10.5233 36.0847 12.345L36.5472 12.535C37.271 10.7727 38.2763 9.26577 39.5625 8.01094L39.2134 7.65305ZM36.0853 12.3435C35.3354 14.1368 34.9619 16.0899 34.9619 18.2H35.4619C35.4619 16.1501 35.8245 14.2632 36.5466 12.5365L36.0853 12.3435ZM34.9619 18.2C34.9619 20.3102 35.3354 22.2787 36.0847 24.103L36.5472 23.913C35.8245 22.1533 35.4619 20.2498 35.4619 18.2H34.9619ZM36.0853 24.1045C36.8335 25.8936 37.8755 27.4571 39.2112 28.7928L39.5647 28.4392C38.2764 27.1509 37.2704 25.6424 36.5466 23.9115L36.0853 24.1045ZM39.2155 28.797C40.583 30.0994 42.1775 31.124 43.997 31.8713L44.1869 31.4087C42.4223 30.684 40.8809 29.6926 39.5604 28.435L39.2155 28.797ZM43.997 31.8713C45.8217 32.6207 47.8063 32.994 49.9479 32.994V32.494C47.8656 32.494 45.9462 32.1313 44.1869 31.4087L43.997 31.8713ZM78.5027 35V35.25H78.7527V35H78.5027ZM75.8147 35H75.5647V35.25H75.8147V35ZM75.8147 1.4V1.15H75.5647V1.4H75.8147ZM78.1187 1.4L78.3348 1.27436L78.2625 1.15H78.1187V1.4ZM93.0467 27.08L92.8306 27.2056L93.0474 27.5786L93.2632 27.205L93.0467 27.08ZM107.879 1.4V1.15H107.734L107.662 1.27496L107.879 1.4ZM110.135 1.4L110.385 1.39964L110.384 1.15H110.135V1.4ZM110.183 35V35.25H110.433L110.433 34.9996L110.183 35ZM107.495 35L107.245 35.0004L107.245 35.25H107.495V35ZM107.447 6.776L107.697 6.77557L107.695 5.8475L107.23 6.65079L107.447 6.776ZM93.6707 30.584V30.834H93.8149L93.8871 30.7092L93.6707 30.584ZM92.3267 30.584L92.1108 30.7101L92.1832 30.834H92.3267V30.584ZM78.5027 6.92L78.7186 6.79389L78.2527 5.99642V6.92H78.5027ZM78.5027 34.75H75.8147V35.25H78.5027V34.75ZM76.0647 35V1.4H75.5647V35H76.0647ZM75.8147 1.65H78.1187V1.15H75.8147V1.65ZM77.9026 1.52564L92.8306 27.2056L93.2628 26.9544L78.3348 1.27436L77.9026 1.52564ZM93.2632 27.205L108.095 1.52503L107.662 1.27496L92.8302 26.955L93.2632 27.205ZM107.879 1.65H110.135V1.15H107.879V1.65ZM109.885 1.40035L109.933 35.0004L110.433 34.9996L110.385 1.39964L109.885 1.40035ZM110.183 34.75H107.495V35.25H110.183V34.75ZM107.745 34.9996L107.697 6.77557L107.197 6.77643L107.245 35.0004L107.745 34.9996ZM107.23 6.65079L93.4543 30.4588L93.8871 30.7092L107.663 6.90121L107.23 6.65079ZM93.6707 30.334H92.3267V30.834H93.6707V30.334ZM92.5426 30.4579L78.7186 6.79389L78.2868 7.0461L92.1108 30.7101L92.5426 30.4579ZM78.2527 6.92V35H78.7527V6.92H78.2527ZM119.065 35V35.25H119.227L119.293 35.1032L119.065 35ZM116.137 35L115.91 34.8955L115.747 35.25H116.137V35ZM131.593 1.4V1.15H131.433L131.366 1.29552L131.593 1.4ZM134.329 1.4L134.556 1.29552L134.489 1.15H134.329V1.4ZM149.785 35V35.25H150.175L150.012 34.8955L149.785 35ZM146.809 35L146.582 35.1032L146.648 35.25H146.809V35ZM132.937 4.376L133.165 4.27284L132.937 3.77011L132.71 4.27284L132.937 4.376ZM119.065 34.75H116.137V35.25H119.065V34.75ZM116.364 35.1045L131.82 1.50447L131.366 1.29552L115.91 34.8955L116.364 35.1045ZM131.593 1.65H134.329V1.15H131.593V1.65ZM134.102 1.50447L149.558 35.1045L150.012 34.8955L134.556 1.29552L134.102 1.50447ZM149.785 34.75H146.809V35.25H149.785V34.75ZM147.037 34.8968L133.165 4.27284L132.71 4.47915L146.582 35.1032L147.037 34.8968ZM132.71 4.27284L118.838 34.8968L119.293 35.1032L133.165 4.47915L132.71 4.27284ZM155.737 35H155.487V35.25H155.737V35ZM155.737 1.4V1.15H155.487V1.4H155.737ZM158.473 1.4H158.723V1.15H158.473V1.4ZM158.473 35V35.25H158.723V35H158.473ZM155.987 35V1.4H155.487V35H155.987ZM155.737 1.65H158.473V1.15H155.737V1.65ZM158.223 1.4V35H158.723V1.4H158.223ZM158.473 34.75H155.737V35.25H158.473V34.75ZM172.723 35V35.25H172.973V35H172.723ZM169.987 35H169.737V35.25H169.987V35ZM169.987 1.4V1.15H169.737V1.4H169.987ZM172.291 1.4L172.487 1.2454L172.412 1.15H172.291V1.4ZM194.803 30.008L194.606 30.1626L195.053 30.73V30.008H194.803ZM194.803 1.4V1.15H194.553V1.4H194.803ZM197.539 1.4H197.789V1.15H197.539V1.4ZM197.539 35V35.25H197.789V35H197.539ZM195.235 35L195.038 35.1546L195.113 35.25H195.235V35ZM172.723 6.392L172.919 6.2374L172.473 5.67004V6.392H172.723ZM172.723 34.75H169.987V35.25H172.723V34.75ZM170.237 35V1.4H169.737V35H170.237ZM169.987 1.65H172.291V1.15H169.987V1.65ZM172.094 1.5546L194.606 30.1626L194.999 29.8534L172.487 1.2454L172.094 1.5546ZM195.053 30.008V1.4H194.553V30.008H195.053ZM194.803 1.65H197.539V1.15H194.803V1.65ZM197.289 1.4V35H197.789V1.4H197.289ZM197.539 34.75H195.235V35.25H197.539V34.75ZM195.431 34.8454L172.919 6.2374L172.526 6.5466L195.038 35.1546L195.431 34.8454ZM172.473 6.392V35H172.973V6.392H172.473ZM211.816 18.2H212.066V17.95H211.816V18.2ZM211.816 32.552H211.566V32.802H211.816V32.552ZM228.616 31.496L228.529 31.2618L228.529 31.2618L228.616 31.496ZM233.416 28.52L233.244 28.339L233.242 28.3411L233.416 28.52ZM236.488 24.008L236.258 23.9115L236.257 23.9137L236.488 24.008ZM236.488 12.44L236.256 12.5329L236.258 12.538L236.488 12.44ZM233.416 7.88L233.242 8.05896L233.244 8.06103L233.416 7.88ZM228.616 4.904L228.529 5.13824L228.529 5.13824L228.616 4.904ZM209.08 3.848H208.83V4.098H209.08V3.848ZM209.08 1.4V1.15H208.83V1.4H209.08ZM229.768 2.648L229.679 2.88151L229.68 2.88194L229.768 2.648ZM235.432 6.152L235.259 6.33243L235.261 6.33427L235.432 6.152ZM239.08 11.432L239.311 11.3348L239.311 11.3348L239.08 11.432ZM239.08 24.968L239.311 25.0652L239.311 25.0652L239.08 24.968ZM235.432 30.296L235.603 30.4783L235.605 30.4764L235.432 30.296ZM229.768 33.752L229.68 33.5181L229.679 33.5185L229.768 33.752ZM209.08 35H208.83V35.25H209.08V35ZM209.08 18.2V17.95H208.83V18.2H209.08ZM211.566 18.2V32.552H212.066V18.2H211.566ZM211.816 32.802H222.28V32.302H211.816V32.802ZM222.28 32.802C224.641 32.802 226.784 32.4462 228.704 31.7302L228.529 31.2618C226.673 31.9538 224.591 32.302 222.28 32.302V32.802ZM228.704 31.7302C230.621 31.0153 232.252 30.0056 233.591 28.6989L233.242 28.3411C231.957 29.5944 230.388 30.5687 228.529 31.2618L228.704 31.7302ZM233.589 28.701C234.958 27.3965 236.003 25.8629 236.72 24.1023L236.257 23.9137C235.566 25.6091 234.562 27.0835 233.244 28.339L233.589 28.701ZM236.719 24.1045C237.469 22.3108 237.842 20.3416 237.842 18.2H237.342C237.342 20.2824 236.98 22.1852 236.258 23.9115L236.719 24.1045ZM237.842 18.2C237.842 16.0585 237.469 14.1046 236.718 12.342L236.258 12.538C236.98 14.2314 237.342 16.1175 237.342 18.2H237.842ZM236.72 12.3472C236.003 10.5545 234.959 9.00427 233.589 7.69897L233.244 8.06103C234.561 9.31573 235.565 10.8055 236.256 12.5328L236.72 12.3472ZM233.591 7.70105C232.252 6.39443 230.621 5.3847 228.704 4.66975L228.529 5.13824C230.388 5.8313 231.957 6.80557 233.242 8.05895L233.591 7.70105ZM228.704 4.66975C226.784 3.95382 224.641 3.598 222.28 3.598V4.098C224.591 4.098 226.673 4.44618 228.529 5.13824L228.704 4.66975ZM222.28 3.598H209.08V4.098H222.28V3.598ZM209.33 3.848V1.4H208.83V3.848H209.33ZM209.08 1.65H222.472V1.15H209.08V1.65ZM222.472 1.65C225.134 1.65 227.536 2.06195 229.679 2.88151L229.858 2.41449C227.649 1.57005 225.186 1.15 222.472 1.15V1.65ZM229.68 2.88194C231.859 3.70306 233.718 4.85377 235.259 6.33242L235.605 5.97158C234.011 4.44223 232.093 3.25694 229.856 2.41406L229.68 2.88194ZM235.261 6.33427C236.803 7.78155 237.999 9.51226 238.85 11.5292L239.311 11.3348C238.434 9.25574 237.198 7.46645 235.603 5.96973L235.261 6.33427ZM238.85 11.5292C239.7 13.5432 240.126 15.7657 240.126 18.2H240.626C240.626 15.7063 240.189 13.4168 239.311 11.3348L238.85 11.5292ZM240.126 18.2C240.126 20.6343 239.7 22.8568 238.85 24.8708L239.311 25.0652C240.189 22.9832 240.626 20.6937 240.626 18.2H240.126ZM238.85 24.8708C237.999 26.8882 236.802 28.6357 235.259 30.1156L235.605 30.4764C237.199 28.9483 238.434 27.1438 239.311 25.0652L238.85 24.8708ZM235.261 30.1137C233.719 31.5611 231.86 32.6965 229.68 33.5181L229.856 33.9859C232.092 33.1435 234.009 31.9749 235.603 30.4783L235.261 30.1137ZM229.679 33.5185C227.536 34.338 225.134 34.75 222.472 34.75V35.25C225.186 35.25 227.649 34.83 229.858 33.9855L229.679 33.5185ZM222.472 34.75H209.08V35.25H222.472V34.75ZM209.33 35V18.2H208.83V35H209.33ZM209.08 18.45H211.816V17.95H209.08V18.45ZM248.737 16.712V16.462H248.487V16.712H248.737ZM271.345 16.712H271.595V16.462H271.345V16.712ZM271.345 19.16V19.41H271.595V19.16H271.345ZM248.737 19.16H248.487V19.41H248.737V19.16ZM248.737 0.871999V0.621999H248.487V0.871999H248.737ZM271.345 0.871999H271.595V0.621999H271.345V0.871999ZM271.345 3.32V3.57H271.595V3.32H271.345ZM248.737 3.32H248.487V3.57H248.737V3.32ZM248.737 35H248.487V35.25H248.737V35ZM271.345 35V35.25H271.595V35H271.345ZM271.345 32.552H271.595V32.302H271.345V32.552ZM248.737 32.552V32.302H248.487V32.552H248.737ZM248.737 16.962H271.345V16.462H248.737V16.962ZM271.095 16.712V19.16H271.595V16.712H271.095ZM271.345 18.91H248.737V19.41H271.345V18.91ZM248.987 19.16V16.712H248.487V19.16H248.987ZM248.737 1.122H271.345V0.621999H248.737V1.122ZM271.095 0.871999V3.32H271.595V0.871999H271.095ZM271.345 3.07H248.737V3.57H271.345V3.07ZM248.987 3.32V0.871999H248.487V3.32H248.987ZM248.737 35.25H271.345V34.75H248.737V35.25ZM271.595 35V32.552H271.095V35H271.595ZM271.345 32.302H248.737V32.802H271.345V32.302ZM248.487 32.552V35H248.987V32.552H248.487ZM292.569 35V35.25H292.732L292.798 35.1015L292.569 35ZM289.833 35L289.605 35.1018L289.671 35.25H289.833V35ZM274.857 1.4V1.15H274.472L274.629 1.50177L274.857 1.4ZM277.881 1.4L278.11 1.29867L278.044 1.15H277.881V1.4ZM291.225 31.496L290.997 31.5973L291.224 32.1109L291.453 31.5979L291.225 31.496ZM304.665 1.4V1.15H304.503L304.437 1.29806L304.665 1.4ZM307.497 1.4L307.726 1.5015L307.882 1.15H307.497V1.4ZM292.569 34.75H289.833V35.25H292.569V34.75ZM290.062 34.8982L275.086 1.29822L274.629 1.50177L289.605 35.1018L290.062 34.8982ZM274.857 1.65H277.881V1.15H274.857V1.65ZM277.653 1.50133L290.997 31.5973L291.454 31.3947L278.11 1.29867L277.653 1.50133ZM291.453 31.5979L304.893 1.50194L304.437 1.29806L290.997 31.3941L291.453 31.5979ZM304.665 1.65H307.497V1.15H304.665V1.65ZM307.269 1.29849L292.341 34.8985L292.798 35.1015L307.726 1.5015L307.269 1.29849Z" fill="white" mask="url(#path-1-outside-1_973_3517)"/>
<defs>
<linearGradient id="paint0_linear_973_3517" x1="-65" y1="21" x2="368" y2="21" gradientUnits="userSpaceOnUse">
<stop stop-color="white"/>
<stop offset="1" stop-color="#5940D3"/>
</linearGradient>
</defs>
</svg>
