<svg width="237" height="14" viewBox="0 0 237 14" fill="none" xmlns="http://www.w3.org/2000/svg">
<path d="M3.5 12.25L3.5 10.5L1.75 10.5L1.75 8.75L-5.08345e-09 8.75L-2.03338e-09 3.5L1.75 3.5L1.75 1.75L3.5 1.75L3.5 2.03338e-09L10.5 6.10014e-09L10.5 1.75L12.25 1.75L12.25 3.5L8.75 3.5L8.75 1.75L5.25 1.75L5.25 3.5L3.5 3.5L3.5 8.75L5.25 8.75L5.25 10.5L8.75 10.5L8.75 8.75L12.25 8.75L12.25 10.5L10.5 10.5L10.5 12.25L3.5 12.25ZM19.25 5.25L21 5.25L21 7L19.25 7L19.25 12.25L15.75 12.25L15.75 3.5L19.25 3.5L19.25 5.25ZM26.25 3.5L26.25 5.25L21 5.25L21 3.5L26.25 3.5ZM29.75 14L29.75 12.25L36.75 12.25L36.75 10.5L29.75 10.5L29.75 8.75L28 8.75L28 3.5L31.5 3.5L31.5 8.75L36.75 8.75L36.75 3.5L40.25 3.5L40.25 12.25L38.5 12.25L38.5 14L29.75 14ZM42 14L42 3.5L52.5 3.5L52.5 5.25L54.25 5.25L54.25 8.75L52.5 8.75L52.5 10.5L45.5 10.5L45.5 14L42 14ZM45.5 8.75L50.75 8.75L50.75 5.25L45.5 5.25L45.5 8.75ZM61.25 12.25L61.25 5.25L57.75 5.25L57.75 3.5L61.25 3.5L61.25 3.55841e-08L64.75 3.76175e-08L64.75 3.5L68.25 3.5L68.25 5.25L64.75 5.25L64.75 12.25L61.25 12.25ZM71.75 12.25L71.75 10.5L70 10.5L70 5.25L71.75 5.25L71.75 3.5L80.5 3.5L80.5 5.25L82.25 5.25L82.25 10.5L80.5 10.5L80.5 12.25L71.75 12.25ZM73.5 10.5L78.75 10.5L78.75 5.25L73.5 5.25L73.5 10.5ZM101.5 12.25L101.5 10.5L99.75 10.5L99.75 8.75L98 8.75L98 3.5L99.75 3.5L99.75 1.75L101.5 1.75L101.5 5.8968e-08L108.5 6.30348e-08L108.5 1.75L110.25 1.75L110.25 3.5L106.75 3.5L106.75 1.75L103.25 1.75L103.25 3.5L101.5 3.5L101.5 8.75L103.25 8.75L103.25 10.5L106.75 10.5L106.75 8.75L110.25 8.75L110.25 10.5L108.5 10.5L108.5 12.25L101.5 12.25ZM113.75 12.25L113.75 10.5L117.25 10.5L117.25 1.75L115.5 1.75L115.5 6.71015e-08L120.75 7.01516e-08L120.75 10.5L124.25 10.5L124.25 12.25L113.75 12.25ZM127.75 12.25L127.75 10.5L126 10.5L126 5.25L127.75 5.25L127.75 3.5L136.5 3.5L136.5 5.25L138.25 5.25L138.25 10.5L136.5 10.5L136.5 12.25L127.75 12.25ZM129.5 10.5L134.75 10.5L134.75 5.25L129.5 5.25L129.5 10.5ZM141.75 12.25L141.75 10.5L140 10.5L140 3.5L143.5 3.5L143.5 10.5L148.75 10.5L148.75 3.5L152.25 3.5L152.25 12.25L141.75 12.25ZM155.75 12.25L155.75 10.5L154 10.5L154 5.25L155.75 5.25L155.75 3.5L162.75 3.5L162.75 9.45521e-08L166.25 9.65855e-08L166.25 12.25L155.75 12.25ZM157.5 10.5L162.75 10.5L162.75 5.25L157.5 5.25L157.5 10.5ZM182 12.25L182 1.05736e-07L194.25 1.12853e-07L194.25 1.75L185.5 1.75L185.5 5.25L192.5 5.25L192.5 7L185.5 7L185.5 10.5L194.25 10.5L194.25 12.25L182 12.25ZM196 12.25L196 10.5L197.75 10.5L197.75 8.75L199.5 8.75L199.5 7L197.75 7L197.75 5.25L196 5.25L196 3.5L199.5 3.5L199.5 5.25L201.25 5.25L201.25 7L203 7L203 5.25L204.75 5.25L204.75 3.5L208.25 3.5L208.25 5.25L206.5 5.25L206.5 7L204.75 7L204.75 8.75L206.5 8.75L206.5 10.5L208.25 10.5L208.25 12.25L204.75 12.25L204.75 10.5L203 10.5L203 8.75L201.25 8.75L201.25 10.5L199.5 10.5L199.5 12.25L196 12.25ZM210 14L210 3.5L220.5 3.5L220.5 5.25L222.25 5.25L222.25 8.75L220.5 8.75L220.5 10.5L213.5 10.5L213.5 14L210 14ZM213.5 8.75L218.75 8.75L218.75 5.25L213.5 5.25L213.5 8.75ZM225.75 12.25L225.75 10.5L224 10.5L224 5.25L225.75 5.25L225.75 3.5L234.5 3.5L234.5 5.25L236.25 5.25L236.25 10.5L234.5 10.5L234.5 12.25L225.75 12.25ZM227.5 10.5L232.75 10.5L232.75 5.25L227.5 5.25L227.5 10.5Z" fill="#FEFEFE"/>
</svg>
