<svg width="214" height="83" viewBox="0 0 214 83" fill="none" xmlns="http://www.w3.org/2000/svg">
<g clip-path="url(#clip0_480_3057)">
<path d="M199.119 68.5616L199.112 68.5699L193.219 66.5602C193.5 65.9785 193.73 65.3717 193.923 64.734L199.119 68.5616Z" fill="#74ACDF"/>
<path d="M199.391 56.7L194.003 60.2757C193.854 59.6192 193.654 58.9834 193.407 58.3795L199.386 56.684L199.391 56.7Z" fill="#74ACDF"/>
<mask id="mask0_480_3057" style="mask-type:luminance" maskUnits="userSpaceOnUse" x="194" y="60" width="12" height="5">
<path d="M194.408 60.8438L205.235 61.0938L205.161 64.3028L194.334 64.0527L194.408 60.8438Z" fill="white"/>
</mask>
<g mask="url(#mask0_480_3057)">
<path d="M205.187 62.7545L205.186 62.7681L194.347 63.9287C194.425 63.4717 194.472 62.993 194.483 62.5136C194.494 62.0341 194.469 61.5549 194.412 61.0938L205.187 62.7545Z" fill="#74ACDF"/>
</g>
<path d="M176.133 66.2061L170.156 67.9017L170.149 67.8857L175.537 64.31C175.686 64.9665 175.886 65.601 176.133 66.2061Z" fill="#74ACDF"/>
<path d="M176.321 58.0255C176.04 58.6072 175.81 59.2128 175.617 59.8516L170.422 56.0228L170.428 56.0158L176.321 58.0255Z" fill="#74ACDF"/>
<mask id="mask1_480_3057" style="mask-type:luminance" maskUnits="userSpaceOnUse" x="164" y="60" width="12" height="4">
<path d="M164.381 60.1484L175.342 60.4016L175.268 63.6105L164.307 63.3574L164.381 60.1484Z" fill="white"/>
</mask>
<g mask="url(#mask1_480_3057)">
<path d="M175.061 62.0632C175.05 62.5426 175.073 63.0229 175.131 63.483L164.356 61.8232L164.356 61.8096L175.197 60.6481C175.118 61.1061 175.072 61.5837 175.061 62.0632Z" fill="#74ACDF"/>
</g>
<g filter="url(#filter0_d_480_3057)">
<path d="M73.6613 68.1877C68.7647 68.0746 65.2152 64.2112 65.3255 59.4335L65.3266 59.3859C65.4359 54.6557 69.0909 50.8636 74.2014 50.9816C77.3152 51.0536 79.2164 52.1439 80.7026 53.7003L78.3111 56.3325C77.0306 55.1376 75.7873 54.3954 74.0996 54.3564C71.2948 54.2916 69.2206 56.5744 69.1547 59.4268L69.1536 59.4743C69.0877 62.3267 71.0057 64.7492 73.8581 64.8151C75.7597 64.859 76.9414 64.1491 78.2768 62.967L80.5518 65.374C78.7981 67.1648 76.894 68.2624 73.6613 68.1877ZM81.994 68.0948L89.512 51.5017L92.8873 51.5797L99.6312 68.5021L95.8043 68.4137L94.3692 64.6467L87.3333 64.4842L85.7258 68.181L81.994 68.0948ZM88.7153 61.2817L93.1365 61.3839L91.0505 55.937L88.7153 61.2817ZM102.199 68.5614L102.583 51.9226L106.529 52.0137L110.74 59.1506L115.276 52.2157L119.222 52.3069L118.838 68.9458L115.201 68.8618L115.452 57.9989L110.605 64.998L110.51 64.9958L106.038 57.8528L105.788 68.6444L102.199 68.5614ZM122.836 69.0381L123.22 52.3992L130.018 52.5562C133.988 52.6479 136.335 55.0328 136.256 58.4557L136.255 58.5032C136.165 62.3777 133.125 64.2814 129.393 64.1952L126.612 64.131L126.496 69.1226L122.836 69.0381ZM126.687 60.8745L129.587 60.9415C131.417 60.9838 132.512 59.9151 132.545 58.4889L132.546 58.4413C132.584 56.8012 131.463 55.8954 129.633 55.8531L126.804 55.7878L126.687 60.8745ZM135.616 69.3333L143.134 52.7403L146.509 52.8182L153.253 69.7406L149.426 69.6523L147.991 65.8853L140.955 65.7227L139.348 69.4195L135.616 69.3333ZM142.337 62.5202L146.758 62.6224L144.672 57.1756L142.337 62.5202ZM155.821 69.8L156.205 53.1611L160.151 53.2522L164.362 60.3891L168.898 53.4542L172.844 53.5454L172.46 70.1843L168.823 70.1003L169.074 59.2375L164.227 66.2365L164.132 66.2343L159.659 59.0914L159.41 69.8829L155.821 69.8ZM184.532 70.7485C179.398 70.6299 175.802 66.7179 175.911 61.9877L175.912 61.9401C176.021 57.2099 179.843 53.4216 184.977 53.5402C190.111 53.6588 193.707 57.5709 193.598 62.3011L193.597 62.3486C193.488 67.0788 189.666 70.8671 184.532 70.7485ZM184.657 67.3743C187.605 67.4423 189.703 65.1601 189.769 62.3077L189.77 62.2602C189.836 59.4078 187.799 56.9825 184.851 56.9145C181.904 56.8464 179.806 59.1286 179.74 61.981L179.739 62.0285C179.673 64.8809 181.71 67.3062 184.657 67.3743ZM202.449 71.1148C199.905 71.056 197.406 70.1421 195.451 68.2895L197.674 65.7485C199.166 67.0197 200.693 67.8398 202.595 67.8837C204.116 67.9188 205.009 67.3449 205.032 66.3703L205.033 66.3228C205.054 65.3958 204.495 64.8834 201.73 64.1299C198.374 63.22 196.257 62.196 196.333 58.9158L196.334 58.8682C196.404 55.8495 198.851 53.9082 202.274 53.9873C204.722 54.0438 206.725 54.8511 208.405 56.2456L206.44 58.9589C204.966 57.9022 203.578 57.2518 202.151 57.2189C200.725 57.186 199.998 57.7875 199.979 58.6194L199.978 58.667C199.952 59.7842 200.658 60.1096 203.516 60.9367C206.871 61.9179 208.745 63.1503 208.678 66.0503L208.677 66.0978C208.6 69.4018 206.038 71.1977 202.449 71.1148Z" fill="white"/>
<mask id="mask2_480_3057" style="mask-type:luminance" maskUnits="userSpaceOnUse" x="63" y="49" width="147" height="24">
<path d="M209.877 53.2143L64.2871 49.8516L63.841 69.1645L209.431 72.5273L209.877 53.2143Z" fill="white"/>
<path d="M73.6613 68.1877C68.7647 68.0746 65.2152 64.2112 65.3255 59.4335L65.3266 59.3859C65.4359 54.6557 69.0909 50.8636 74.2014 50.9816C77.3152 51.0536 79.2164 52.1439 80.7026 53.7003L78.3111 56.3325C77.0306 55.1376 75.7873 54.3954 74.0996 54.3564C71.2948 54.2916 69.2206 56.5744 69.1547 59.4268L69.1536 59.4743C69.0877 62.3267 71.0057 64.7492 73.8581 64.8151C75.7597 64.859 76.9414 64.1491 78.2768 62.967L80.5518 65.374C78.7981 67.1648 76.894 68.2624 73.6613 68.1877ZM81.994 68.0948L89.512 51.5017L92.8873 51.5797L99.6312 68.5021L95.8043 68.4137L94.3692 64.6467L87.3333 64.4842L85.7258 68.181L81.994 68.0948ZM88.7153 61.2817L93.1365 61.3839L91.0505 55.937L88.7153 61.2817ZM102.199 68.5614L102.583 51.9226L106.529 52.0137L110.74 59.1506L115.276 52.2157L119.222 52.3069L118.838 68.9458L115.201 68.8618L115.452 57.9989L110.605 64.998L110.51 64.9958L106.038 57.8528L105.788 68.6444L102.199 68.5614ZM122.836 69.0381L123.22 52.3992L130.018 52.5562C133.988 52.6479 136.335 55.0328 136.256 58.4557L136.255 58.5032C136.165 62.3777 133.125 64.2814 129.393 64.1952L126.612 64.131L126.496 69.1226L122.836 69.0381ZM126.687 60.8745L129.587 60.9415C131.417 60.9838 132.512 59.9151 132.545 58.4889L132.546 58.4413C132.584 56.8012 131.463 55.8954 129.633 55.8531L126.804 55.7878L126.687 60.8745ZM135.616 69.3333L143.134 52.7403L146.509 52.8182L153.253 69.7406L149.426 69.6523L147.991 65.8853L140.955 65.7227L139.348 69.4195L135.616 69.3333ZM142.337 62.5202L146.758 62.6224L144.672 57.1756L142.337 62.5202ZM155.821 69.8L156.205 53.1611L160.151 53.2522L164.362 60.3891L168.898 53.4542L172.844 53.5454L172.46 70.1843L168.823 70.1003L169.074 59.2375L164.227 66.2365L164.132 66.2343L159.659 59.0914L159.41 69.8829L155.821 69.8ZM184.532 70.7485C179.398 70.6299 175.802 66.7179 175.911 61.9877L175.912 61.9401C176.021 57.2099 179.843 53.4216 184.977 53.5402C190.111 53.6588 193.707 57.5709 193.598 62.3011L193.597 62.3486C193.488 67.0788 189.666 70.8671 184.532 70.7485ZM184.657 67.3743C187.605 67.4423 189.703 65.1601 189.769 62.3077L189.77 62.2602C189.836 59.4078 187.799 56.9825 184.851 56.9145C181.904 56.8464 179.806 59.1286 179.74 61.981L179.739 62.0285C179.673 64.8809 181.71 67.3062 184.657 67.3743ZM202.449 71.1148C199.905 71.056 197.406 70.1421 195.451 68.2895L197.674 65.7485C199.166 67.0197 200.693 67.8398 202.595 67.8837C204.116 67.9188 205.009 67.3449 205.032 66.3703L205.033 66.3228C205.054 65.3958 204.495 64.8834 201.73 64.1299C198.374 63.22 196.257 62.196 196.333 58.9158L196.334 58.8682C196.404 55.8495 198.851 53.9082 202.274 53.9873C204.722 54.0438 206.725 54.8511 208.405 56.2456L206.44 58.9589C204.966 57.9022 203.578 57.2518 202.151 57.2189C200.725 57.186 199.998 57.7875 199.979 58.6194L199.978 58.667C199.952 59.7842 200.658 60.1096 203.516 60.9367C206.871 61.9179 208.745 63.1503 208.678 66.0503L208.677 66.0978C208.6 69.4018 206.038 71.1977 202.449 71.1148Z" fill="black"/>
</mask>
<g mask="url(#mask2_480_3057)">
<path d="M80.7038 53.7L81.1166 54.0747L81.4651 53.6905L81.1066 53.3152L80.7038 53.7ZM78.3123 56.3322L77.9321 56.7396L78.3453 57.1249L78.7251 56.7069L78.3123 56.3322ZM78.278 62.9667L78.683 62.5839L78.3123 62.1919L77.9086 62.5494L78.278 62.9667ZM80.5531 65.3737L80.9514 65.7636L81.3266 65.3806L80.9581 64.9909L80.5531 65.3737ZM73.6754 67.6303C69.0936 67.5244 65.7805 63.9232 65.8839 59.446L64.7697 59.4203C64.6524 64.4985 68.4383 68.6241 73.6497 68.7445L73.6754 67.6303ZM65.8839 59.446L65.885 59.3985L64.7708 59.3727L64.7697 59.4203L65.8839 59.446ZM65.885 59.3985C65.9874 54.9658 69.397 51.4277 74.1898 51.5384L74.2155 50.4242C68.7873 50.2988 64.8869 54.345 64.7708 59.3727L65.885 59.3985ZM74.1898 51.5384C77.1484 51.6067 78.9114 52.6295 80.301 54.0848L81.1066 53.3152C79.524 51.6576 77.4846 50.4997 74.2155 50.4242L74.1898 51.5384ZM80.2911 53.3252L77.8996 55.9574L78.7251 56.7069L81.1166 54.0747L80.2911 53.3252ZM78.6926 55.9247C77.3605 54.6814 75.9923 53.8423 74.1138 53.799L74.0881 54.9132C75.5848 54.9477 76.7033 55.593 77.9321 56.7396L78.6926 55.9247ZM74.1138 53.799C70.9537 53.726 68.6707 56.3033 68.5989 59.4136L69.7131 59.4393C69.773 56.8448 71.6384 54.8566 74.0881 54.9132L74.1138 53.799ZM68.5989 59.4136L68.5978 59.4611L69.712 59.4868L69.7131 59.4393L68.5989 59.4136ZM68.5978 59.4611C68.5262 62.5607 70.6292 65.2976 73.8465 65.3719L73.8722 64.2577C71.3847 64.2002 69.6518 62.092 69.712 59.4868L68.5978 59.4611ZM73.8465 65.3719C75.9442 65.4203 77.2575 64.614 78.6474 63.384L77.9086 62.5494C76.6279 63.6835 75.5777 64.2971 73.8722 64.2577L73.8465 65.3719ZM77.873 63.3494L80.1481 65.7565L80.9581 64.9909L78.683 62.5839L77.873 63.3494ZM80.1548 64.9838C79.3092 65.8477 78.4509 66.5195 77.4356 66.9709C76.4234 67.4211 75.2234 67.666 73.6754 67.6303L73.6497 68.7445C75.3344 68.7834 76.7028 68.5168 77.8893 67.9893C79.0727 67.4628 80.0433 66.6904 80.9514 65.7636L80.1548 64.9838ZM81.9953 68.0944L81.4878 67.8644L81.14 68.6321L81.9824 68.6515L81.9953 68.0944ZM89.5133 51.5014L89.5261 50.9443L89.1577 50.9358L89.0058 51.2714L89.5133 51.5014ZM92.8886 51.5794L93.4061 51.373L93.2699 51.0308L92.9014 51.0223L92.8886 51.5794ZM99.6325 68.5018L99.6196 69.0589L100.462 69.0784L100.15 68.2955L99.6325 68.5018ZM95.8055 68.4134L95.2844 68.6118L95.4183 68.9619L95.7927 68.9705L95.8055 68.4134ZM94.3704 64.6464L94.8916 64.448L94.7577 64.0979L94.3833 64.0893L94.3704 64.6464ZM87.3346 64.4839L87.3474 63.9268L86.9731 63.9181L86.8232 64.2617L87.3346 64.4839ZM85.7271 68.1806L85.7142 68.7377L86.0886 68.7464L86.2385 68.4028L85.7271 68.1806ZM88.7166 61.2814L88.206 61.0583L87.8733 61.8193L88.7037 61.8385L88.7166 61.2814ZM93.1378 61.3835L93.1249 61.9406L93.9554 61.9598L93.6582 61.1842L93.1378 61.3835ZM91.0518 55.9367L91.5722 55.7374L91.0857 54.4672L90.5412 55.7136L91.0518 55.9367ZM82.5028 68.3244L90.0208 51.7314L89.0058 51.2714L81.4878 67.8644L82.5028 68.3244ZM89.5004 52.0585L92.8757 52.1365L92.9014 51.0223L89.5261 50.9443L89.5004 52.0585ZM92.371 51.7857L99.1149 68.7081L100.15 68.2955L93.4061 51.373L92.371 51.7857ZM99.6453 67.9447L95.8184 67.8563L95.7927 68.9705L99.6196 69.0589L99.6453 67.9447ZM96.3266 68.215L94.8916 64.448L93.8493 64.8448L95.2844 68.6118L96.3266 68.215ZM94.3833 64.0893L87.3474 63.9268L87.3217 65.041L94.3576 65.2035L94.3833 64.0893ZM86.8232 64.2617L85.2157 67.9584L86.2385 68.4028L87.846 64.7061L86.8232 64.2617ZM85.74 67.6235L82.0081 67.5373L81.9824 68.6515L85.7142 68.7377L85.74 67.6235ZM88.7037 61.8385L93.1249 61.9406L93.1506 60.8264L88.7295 60.7243L88.7037 61.8385ZM93.6582 61.1842L91.5722 55.7374L90.5314 56.136L92.6174 61.5828L93.6582 61.1842ZM90.5412 55.7136L88.206 61.0583L89.2272 61.5045L91.5624 56.1598L90.5412 55.7136ZM102.2 68.5611L101.643 68.5482L101.63 69.1053L102.187 69.1182L102.2 68.5611ZM102.585 51.9222L102.598 51.3651L102.04 51.3523L102.028 51.9094L102.585 51.9222ZM106.53 52.0134L107.01 51.7301L106.853 51.4634L106.543 51.4563L106.53 52.0134ZM110.742 59.1503L110.262 59.4335L110.717 60.2055L111.208 59.4553L110.742 59.1503ZM115.278 52.2154L115.291 51.6583L114.981 51.6511L114.811 51.9103L115.278 52.2154ZM119.224 52.3065L119.781 52.3194L119.794 51.7623L119.236 51.7494L119.224 52.3065ZM118.839 68.9454L118.826 69.5025L119.383 69.5154L119.396 68.9583L118.839 68.9454ZM115.202 68.8614L114.645 68.8485L114.632 69.4057L115.19 69.4185L115.202 68.8614ZM115.453 57.9986L116.01 58.0115L116.053 56.1533L114.995 57.6814L115.453 57.9986ZM110.607 64.9976L110.594 65.5547L110.894 65.5617L111.065 65.3149L110.607 64.9976ZM110.511 64.9954L110.039 65.2912L110.198 65.5456L110.499 65.5525L110.511 64.9954ZM106.039 57.8525L106.512 57.5568L105.525 55.9813L105.482 57.8396L106.039 57.8525ZM105.79 68.644L105.777 69.2011L106.334 69.214L106.347 68.6569L105.79 68.644ZM102.757 68.574L103.142 51.9351L102.028 51.9094L101.643 68.5482L102.757 68.574ZM102.572 52.4793L106.518 52.5705L106.543 51.4563L102.598 51.3651L102.572 52.4793ZM106.05 52.2965L110.262 59.4335L111.222 58.867L107.01 51.7301L106.05 52.2965ZM111.208 59.4553L115.744 52.5204L114.811 51.9103L110.275 58.8452L111.208 59.4553ZM115.265 52.7725L119.211 52.8636L119.236 51.7494L115.291 51.6583L115.265 52.7725ZM118.666 52.2937L118.282 68.9325L119.396 68.9583L119.781 52.3194L118.666 52.2937ZM118.852 68.3883L115.215 68.3043L115.19 69.4185L118.826 69.5025L118.852 68.3883ZM115.76 68.8743L116.01 58.0115L114.896 57.9857L114.645 68.8485L115.76 68.8743ZM114.995 57.6814L110.149 64.6804L111.065 65.3149L115.912 58.3158L114.995 57.6814ZM110.619 64.4405L110.524 64.4383L110.499 65.5525L110.594 65.5547L110.619 64.4405ZM110.984 64.6997L106.512 57.5568L105.567 58.1482L110.039 65.2912L110.984 64.6997ZM105.482 57.8396L105.232 68.6311L106.347 68.6569L106.596 57.8654L105.482 57.8396ZM105.802 68.0869L102.213 68.004L102.187 69.1182L105.777 69.2011L105.802 68.0869ZM122.837 69.0378L122.28 69.0249L122.267 69.582L122.824 69.5949L122.837 69.0378ZM123.221 52.3989L123.234 51.8418L122.677 51.8289L122.664 52.386L123.221 52.3989ZM126.613 64.1306L126.626 63.5735L126.069 63.5607L126.056 64.1178L126.613 64.1306ZM126.498 69.1223L126.485 69.6794L127.042 69.6923L127.055 69.1352L126.498 69.1223ZM126.688 60.8742L126.131 60.8613L126.118 61.4184L126.675 61.4313L126.688 60.8742ZM126.806 55.7874L126.818 55.2303L126.261 55.2175L126.248 55.7746L126.806 55.7874ZM123.394 69.0506L123.778 52.4117L122.664 52.386L122.28 69.0249L123.394 69.0506ZM123.208 52.956L130.007 53.113L130.032 51.9988L123.234 51.8418L123.208 52.956ZM130.007 53.113C131.883 53.1563 133.317 53.7391 134.269 54.6574C135.217 55.5718 135.736 56.8669 135.7 58.4425L136.814 58.4682C136.857 56.6209 136.241 55.0122 135.043 53.8554C133.849 52.7026 132.125 52.0471 130.032 51.9988L130.007 53.113ZM135.7 58.4425L135.699 58.49L136.813 58.5157L136.814 58.4682L135.7 58.4425ZM135.699 58.49C135.658 60.2683 134.947 61.551 133.851 62.3919C132.739 63.2448 131.181 63.6788 129.407 63.6378L129.381 64.752C131.338 64.7972 133.166 64.3223 134.53 63.2763C135.909 62.2183 136.765 60.6119 136.813 58.5157L135.699 58.49ZM129.407 63.6378L126.626 63.5735L126.6 64.6877L129.381 64.752L129.407 63.6378ZM126.056 64.1178L125.94 69.1094L127.055 69.1352L127.17 64.1435L126.056 64.1178ZM126.51 68.5652L122.85 68.4806L122.824 69.5949L126.485 69.6794L126.51 68.5652ZM126.675 61.4313L129.575 61.4983L129.601 60.3841L126.701 60.3171L126.675 61.4313ZM129.575 61.4983C130.601 61.522 131.476 61.2341 132.106 60.6862C132.74 60.1357 133.083 59.3597 133.103 58.5014L131.989 58.4757C131.976 59.0435 131.755 59.515 131.375 59.8448C130.992 60.1773 130.405 60.4026 129.601 60.3841L129.575 61.4983ZM133.103 58.5014L133.104 58.4539L131.99 58.4281L131.989 58.4757L133.103 58.5014ZM133.104 58.4539C133.126 57.4943 132.805 56.6884 132.155 56.1265C131.522 55.5778 130.643 55.3187 129.647 55.2957L129.621 56.4099C130.455 56.4291 131.051 56.6441 131.426 56.9689C131.785 57.2805 132.006 57.7476 131.99 58.4281L133.104 58.4539ZM129.647 55.2957L126.818 55.2303L126.793 56.3445L129.621 56.4099L129.647 55.2957ZM126.248 55.7746L126.131 60.8613L127.245 60.887L127.363 55.8003L126.248 55.7746ZM135.617 69.3329L135.109 69.1029L134.761 69.8706L135.604 69.89L135.617 69.3329ZM143.135 52.7399L143.148 52.1828L142.779 52.1743L142.627 52.5099L143.135 52.7399ZM146.51 52.8179L147.028 52.6116L146.891 52.2693L146.523 52.2608L146.51 52.8179ZM153.254 69.7403L153.241 70.2974L154.084 70.3169L153.772 69.534L153.254 69.7403ZM149.427 69.6519L148.906 69.8503L149.039 70.2004L149.414 70.209L149.427 69.6519ZM147.992 65.8849L148.513 65.6865L148.379 65.3365L148.005 65.3278L147.992 65.8849ZM140.956 65.7224L140.969 65.1653L140.594 65.1566L140.445 65.5002L140.956 65.7224ZM139.349 69.4191L139.336 69.9762L139.71 69.9849L139.86 69.6413L139.349 69.4191ZM142.338 62.5199L141.827 62.2968L141.495 63.0578L142.325 63.077L142.338 62.5199ZM146.76 62.622L146.747 63.1791L147.576 63.1983L147.28 62.4227L146.76 62.622ZM144.674 57.1752L145.194 56.9759L144.708 55.7057L144.162 56.9521L144.674 57.1752ZM136.125 69.5629L143.643 52.9699L142.627 52.5099L135.109 69.1029L136.125 69.5629ZM143.122 53.297L146.497 53.375L146.523 52.2608L143.148 52.1828L143.122 53.297ZM145.992 53.0242L152.736 69.9466L153.772 69.534L147.028 52.6116L145.992 53.0242ZM153.267 69.1832L149.44 69.0948L149.414 70.209L153.241 70.2974L153.267 69.1832ZM149.948 69.4535L148.513 65.6865L147.471 66.0833L148.906 69.8503L149.948 69.4535ZM148.005 65.3278L140.969 65.1653L140.943 66.2795L147.979 66.442L148.005 65.3278ZM140.445 65.5002L138.837 69.1969L139.86 69.6413L141.467 65.9446L140.445 65.5002ZM139.362 68.862L135.63 68.7758L135.604 69.89L139.336 69.9762L139.362 68.862ZM142.325 63.077L146.747 63.1791L146.772 62.0649L142.351 61.9628L142.325 63.077ZM147.28 62.4227L145.194 56.9759L144.152 57.3745L146.238 62.8213L147.28 62.4227ZM144.162 56.9521L141.827 62.2968L142.849 62.743L145.184 57.3983L144.162 56.9521ZM155.822 69.7996L155.265 69.7867L155.252 70.3439L155.809 70.3567L155.822 69.7996ZM156.206 53.1607L156.219 52.6036L155.662 52.5908L155.649 53.1479L156.206 53.1607ZM160.152 53.2519L160.632 52.9687L160.475 52.7019L160.165 52.6948L160.152 53.2519ZM164.363 60.3888L163.883 60.672L164.339 61.444L164.83 60.6938L164.363 60.3888ZM168.899 53.4539L168.912 52.8968L168.603 52.8897L168.433 53.1488L168.899 53.4539ZM172.845 53.545L173.402 53.5579L173.415 53.0008L172.858 52.9879L172.845 53.545ZM172.461 70.1839L172.448 70.741L173.005 70.7539L173.018 70.1968L172.461 70.1839ZM168.824 70.0999L168.267 70.0871L168.254 70.6442L168.811 70.657L168.824 70.0999ZM169.075 59.2371L169.632 59.25L169.675 57.3918L168.616 58.9199L169.075 59.2371ZM164.228 66.2361L164.215 66.7932L164.516 66.8002L164.686 66.5534L164.228 66.2361ZM164.133 66.2339L163.66 66.5297L163.82 66.7841L164.12 66.791L164.133 66.2339ZM159.661 59.091L160.133 58.7953L159.146 57.2198L159.103 59.0781L159.661 59.091ZM159.411 69.8825L159.398 70.4396L159.956 70.4525L159.968 69.8954L159.411 69.8825ZM156.379 69.8125L156.764 53.1736L155.649 53.1479L155.265 69.7867L156.379 69.8125ZM156.194 53.7178L160.139 53.809L160.165 52.6948L156.219 52.6036L156.194 53.7178ZM159.672 53.535L163.883 60.672L164.843 60.1055L160.632 52.9687L159.672 53.535ZM164.83 60.6938L169.366 53.7589L168.433 53.1488L163.897 60.0837L164.83 60.6938ZM168.887 54.011L172.832 54.1022L172.858 52.9879L168.912 52.8968L168.887 54.011ZM172.288 53.5322L171.904 70.1711L173.018 70.1968L173.402 53.5579L172.288 53.5322ZM172.474 69.6268L168.837 69.5428L168.811 70.657L172.448 70.741L172.474 69.6268ZM169.381 70.1128L169.632 59.25L168.518 59.2242L168.267 70.0871L169.381 70.1128ZM168.616 58.9199L163.77 65.9189L164.686 66.5534L169.533 59.5543L168.616 58.9199ZM164.241 65.679L164.146 65.6768L164.12 66.791L164.215 66.7932L164.241 65.679ZM164.605 65.9382L160.133 58.7953L159.188 59.3867L163.66 66.5297L164.605 65.9382ZM159.103 59.0781L158.854 69.8696L159.968 69.8954L160.218 59.1039L159.103 59.0781ZM159.424 69.3254L155.835 69.2425L155.809 70.3567L159.398 70.4396L159.424 69.3254ZM184.546 70.191C179.714 70.0794 176.367 66.4177 176.469 62.0002L175.355 61.9745C175.239 67.0174 179.084 71.1797 184.52 71.3053L184.546 70.191ZM176.469 62.0002L176.47 61.9527L175.356 61.9269L175.355 61.9745L176.469 62.0002ZM176.47 61.9527C176.572 57.5351 180.133 53.9854 184.965 54.097L184.991 52.9828C179.554 52.8572 175.473 56.8841 175.356 61.9269L176.47 61.9527ZM184.965 54.097C189.797 54.2086 193.144 57.8704 193.042 62.2878L194.156 62.3136C194.273 57.2707 190.428 53.1084 184.991 52.9828L184.965 54.097ZM193.042 62.2878L193.041 62.3354L194.155 62.3611L194.156 62.3136L193.042 62.2878ZM193.041 62.3354C192.939 66.7529 189.378 70.3026 184.546 70.191L184.52 71.3053C189.957 71.4308 194.039 67.404 194.155 62.3611L193.041 62.3354ZM184.646 67.931C187.935 68.007 190.255 65.4455 190.327 62.3203L189.213 62.2945C189.153 64.8741 187.277 66.877 184.672 66.8168L184.646 67.931ZM190.327 62.3203L190.328 62.2727L189.214 62.247L189.213 62.2945L190.327 62.3203ZM190.328 62.2727C190.4 59.1471 188.154 56.433 184.866 56.357L184.84 57.4712C187.446 57.5314 189.274 59.6679 189.214 62.247L190.328 62.2727ZM184.866 56.357C181.576 56.281 179.256 58.8426 179.184 61.9678L180.298 61.9935C180.358 59.414 182.234 57.411 184.84 57.4712L184.866 56.357ZM179.184 61.9678L179.183 62.0153L180.297 62.041L180.298 61.9935L179.184 61.9678ZM179.183 62.0153C179.111 65.141 181.357 67.8551 184.646 67.931L184.672 66.8168C182.065 66.7566 180.238 64.6201 180.297 62.041L179.183 62.0153ZM195.452 68.2891L195.033 67.9222L194.68 68.3253L195.069 68.6937L195.452 68.2891ZM197.675 65.7482L198.036 65.3239L197.618 64.9674L197.256 65.3813L197.675 65.7482ZM208.406 56.2452L208.858 56.5721L209.163 56.1496L208.762 55.8164L208.406 56.2452ZM206.441 58.9586L206.116 59.4115L206.567 59.7346L206.893 59.2855L206.441 58.9586ZM203.518 60.9364L203.674 60.4015L203.673 60.4011L203.518 60.9364ZM202.463 70.5573C200.045 70.5015 197.681 69.6338 195.835 67.8846L195.069 68.6937C197.133 70.6497 199.769 71.6099 202.437 71.6715L202.463 70.5573ZM195.872 68.6561L198.094 66.1151L197.256 65.3813L195.033 67.9222L195.872 68.6561ZM197.313 66.1725C198.861 67.4901 200.507 68.3925 202.583 68.4405L202.609 67.3263C200.883 67.2864 199.474 66.5486 198.036 65.3239L197.313 66.1725ZM202.583 68.4405C203.405 68.4594 204.13 68.3175 204.673 67.9775C205.24 67.6215 205.574 67.0656 205.59 66.3829L204.476 66.3571C204.469 66.649 204.345 66.8673 204.081 67.0332C203.791 67.215 203.309 67.3424 202.609 67.3263L202.583 68.4405ZM205.59 66.3829L205.591 66.3353L204.477 66.3096L204.476 66.3571L205.59 66.3829ZM205.591 66.3353C205.598 66.0461 205.56 65.745 205.417 65.4508C205.274 65.1558 205.047 64.9138 204.747 64.7046C204.176 64.3044 203.258 63.9679 201.878 63.5919L201.585 64.6672C202.971 65.0447 203.714 65.3412 204.108 65.6173C204.292 65.7463 204.374 65.8533 204.415 65.9386C204.457 66.0248 204.481 66.1353 204.477 66.3096L205.591 66.3353ZM201.878 63.5919C200.199 63.1366 198.939 62.6772 198.102 61.9826C197.312 61.3267 196.857 60.4233 196.891 58.9283L195.777 58.9026C195.736 60.6878 196.302 61.9365 197.39 62.8402C198.432 63.7051 199.909 64.2127 201.586 64.6674L201.878 63.5919ZM196.891 58.9283L196.893 58.8808L195.778 58.855L195.777 58.9026L196.891 58.9283ZM196.893 58.8808C196.924 57.5303 197.481 56.4452 198.4 55.698C199.326 54.9445 200.656 54.507 202.262 54.5441L202.288 53.4299C200.471 53.3879 198.867 53.8815 197.696 54.8335C196.518 55.7918 195.817 57.1867 195.778 58.855L196.893 58.8808ZM202.262 54.5441C204.583 54.5977 206.465 55.3586 208.051 56.674L208.762 55.8164C206.987 54.3431 204.864 53.4894 202.288 53.4299L202.262 54.5441ZM207.955 55.9183L205.99 58.6317L206.893 59.2855L208.858 56.5721L207.955 55.9183ZM206.766 58.5057C205.255 57.4223 203.756 56.6982 202.166 56.6615L202.14 57.7757C203.403 57.8048 204.679 58.3815 206.116 59.4115L206.766 58.5057ZM202.166 56.6615C201.381 56.6433 200.713 56.7968 200.222 57.1359C199.712 57.4879 199.437 58.0121 199.423 58.6062L200.537 58.632C200.542 58.3941 200.641 58.2017 200.855 58.0531C201.089 57.8916 201.498 57.7608 202.14 57.7757L202.166 56.6615ZM199.423 58.6062L199.422 58.6538L200.536 58.6795L200.537 58.632L199.423 58.6062ZM199.422 58.6538C199.414 58.9912 199.46 59.3258 199.628 59.639C199.795 59.9529 200.055 60.1896 200.376 60.3857C200.984 60.7576 201.958 61.0651 203.362 61.4717L203.673 60.4011C202.219 59.9806 201.411 59.7118 200.958 59.4349C200.747 59.3066 200.657 59.2008 200.611 59.1136C200.564 59.0257 200.531 58.9006 200.536 58.6795L199.422 58.6538ZM203.361 61.4712C205.023 61.9573 206.227 62.4827 207.008 63.1874C207.755 63.8606 208.152 64.7316 208.122 66.037L209.236 66.0628C209.273 64.4683 208.767 63.2731 207.755 62.3598C206.777 61.4781 205.367 60.8967 203.674 60.4015L203.361 61.4712ZM208.122 66.037L208.121 66.0846L209.235 66.1103L209.236 66.0628L208.122 66.037ZM208.121 66.0846C208.086 67.5813 207.497 68.6941 206.54 69.4356C205.569 70.188 204.168 70.5967 202.463 70.5573L202.437 71.6715C204.322 71.715 205.996 71.2672 207.223 70.3165C208.464 69.3547 209.193 67.9176 209.235 66.1103L208.121 66.0846Z" fill="black"/>
</g>
</g>
<g filter="url(#filter1_d_480_3057)">
<path d="M86.6785 18.4118C86.4416 18.2762 83.7581 16.6893 83.6969 14.0634C83.6708 12.8451 84.2391 11.6957 85.0059 10.7401C85.5768 10.0282 86.3091 9.4698 86.9833 8.85093C87.6492 8.24369 88.2659 7.57227 88.7792 6.84329C89.0874 6.40117 89.39 5.88405 89.4063 5.34063C89.4328 4.57676 89.0896 3.95803 88.8453 3.59773C89.3848 3.9215 91.2608 5.1352 92.0431 7.49794C93.0293 10.4919 91.4799 12.9624 91.2272 13.3467C91.4918 13.1873 91.9534 12.863 92.3149 12.3C92.6071 11.8457 92.7181 11.4148 92.7667 11.1479C92.9924 11.3817 94.2632 12.7706 94.0695 14.7837C93.8421 17.198 91.7035 18.4056 91.4904 18.5229C91.5425 18.264 91.6138 17.7179 91.3846 17.09C91.2148 16.6211 90.9443 16.2995 90.7634 16.118C90.7807 16.2998 90.7855 16.6387 90.6207 17.0172C90.3898 17.5557 89.9625 17.8413 89.7968 17.94C89.9973 17.4323 90.0453 16.9921 90.0284 16.6291C89.9648 15.3943 89.1272 14.8784 88.9562 13.5622C88.8882 13.0326 88.9497 12.5572 89.047 12.1732C88.698 12.3543 87.2242 13.1597 86.5787 14.9141C85.9546 16.6099 86.5226 18.0496 86.6785 18.4118Z" fill="#74ACDF"/>
<path d="M86.6785 18.4118C86.4416 18.2762 83.7581 16.6893 83.6969 14.0634C83.6708 12.8451 84.2391 11.6957 85.0059 10.7401C85.5768 10.0282 86.3091 9.4698 86.9833 8.85093C87.6492 8.24369 88.2659 7.57227 88.7792 6.84329C89.0874 6.40117 89.39 5.88405 89.4062 5.34063C89.4328 4.57676 89.0896 3.95803 88.8453 3.59773C89.3848 3.9215 91.2608 5.1352 92.0431 7.49794C93.0293 10.4919 91.4799 12.9624 91.2272 13.3467C91.4918 13.1873 91.9534 12.863 92.3149 12.3C92.6071 11.8457 92.7181 11.4148 92.7667 11.1479C92.9924 11.3817 94.2632 12.7706 94.0695 14.7837C93.8421 17.198 91.7035 18.4056 91.4904 18.5229C91.5425 18.264 91.6138 17.7179 91.3846 17.09C91.2148 16.6211 90.9443 16.2995 90.7634 16.118C90.7807 16.2998 90.7855 16.6387 90.6207 17.0172C90.3898 17.5557 89.9625 17.8413 89.7968 17.94C89.9973 17.4323 90.0453 16.9921 90.0284 16.6291C89.9648 15.3943 89.1272 14.8784 88.9562 13.5622C88.8882 13.0326 88.9497 12.5572 89.047 12.1732C88.698 12.3543 87.2242 13.1597 86.5787 14.9141C85.9546 16.6099 86.5226 18.0496 86.6785 18.4118Z" stroke="white" stroke-width="0.75" stroke-miterlimit="10"/>
</g>
<g filter="url(#filter2_d_480_3057)">
<path d="M65.9822 35.1604L63.5929 37.6975L61.8005 36.0151C60.3529 36.9092 58.7013 37.3705 56.8235 37.3271C51.6892 37.2085 48.0932 33.2965 48.2025 28.5663L48.2036 28.5187C48.3129 23.7885 52.1342 20.0003 57.2685 20.1188C62.4028 20.2374 65.9987 24.1495 65.8894 28.8797L65.8883 28.9272C65.8472 30.7099 65.2637 32.2899 64.3043 33.6709L65.9822 35.1604ZM56.949 33.9529C57.7809 33.9721 58.4741 33.8216 59.1224 33.5512L56.4897 31.1835L58.8795 28.6226L61.556 31.1578C61.8809 30.4756 62.0411 29.7183 62.0603 28.8864L62.0614 28.8388C62.1273 25.9864 60.0904 23.5611 57.143 23.4931C54.1955 23.425 52.0975 25.7072 52.0316 28.5596L52.0305 28.6071C51.9647 31.4595 54.0015 33.8848 56.949 33.9529ZM75.8785 37.7434C71.4094 37.6402 68.733 35.105 68.8466 30.1847L69.0662 20.6767L72.7268 20.7613L72.5094 30.1741C72.4462 32.9077 73.7455 34.3171 76.004 34.3692C78.2621 34.4214 79.624 33.121 79.6855 30.4588L79.9056 20.9271L83.5662 21.0116L83.3493 30.4007C83.2329 35.4399 80.3472 37.8467 75.8785 37.7434ZM87.0764 37.7405L87.4607 21.1016L91.1213 21.1861L90.737 37.825L87.0764 37.7405Z" fill="#74ACDF"/>
<mask id="mask3_480_3057" style="mask-type:luminance" maskUnits="userSpaceOnUse" x="46" y="18" width="46" height="22">
<path d="M91.7325 20.0138L47.1641 18.9844L46.718 38.2974L91.2864 39.3268L91.7325 20.0138Z" fill="white"/>
<path d="M65.9822 35.1604L63.5929 37.6975L61.8005 36.0151C60.3529 36.9092 58.7013 37.3705 56.8235 37.3271C51.6892 37.2085 48.0932 33.2965 48.2025 28.5663L48.2036 28.5187C48.3129 23.7885 52.1342 20.0003 57.2685 20.1188C62.4028 20.2374 65.9987 24.1495 65.8894 28.8797L65.8883 28.9272C65.8472 30.7099 65.2637 32.2899 64.3043 33.6709L65.9822 35.1604ZM56.949 33.9529C57.7809 33.9721 58.4741 33.8216 59.1224 33.5512L56.4897 31.1835L58.8795 28.6226L61.556 31.1578C61.8809 30.4756 62.0411 29.7183 62.0603 28.8864L62.0614 28.8388C62.1273 25.9864 60.0904 23.5611 57.143 23.4931C54.1955 23.425 52.0975 25.7072 52.0316 28.5596L52.0305 28.6071C51.9647 31.4595 54.0015 33.8848 56.949 33.9529ZM75.8785 37.7434C71.4094 37.6402 68.733 35.105 68.8466 30.1847L69.0662 20.6767L72.7268 20.7613L72.5094 30.1741C72.4462 32.9077 73.7455 34.3171 76.004 34.3692C78.2621 34.4214 79.624 33.121 79.6855 30.4588L79.9056 20.9271L83.5662 21.0116L83.3493 30.4007C83.2329 35.4399 80.3472 37.8467 75.8785 37.7434ZM87.0764 37.7405L87.4607 21.1016L91.1213 21.1861L90.737 37.825L87.0764 37.7405Z" fill="black"/>
</mask>
<g mask="url(#mask3_480_3057)">
<path d="M65.9835 35.16L66.3891 35.5421L66.7826 35.1243L66.3534 34.7433L65.9835 35.16ZM63.5942 37.6972L63.2128 38.1035L63.6185 38.4842L63.9999 38.0792L63.5942 37.6972ZM61.8018 36.0148L62.1832 35.6084L61.872 35.3164L61.509 35.5407L61.8018 36.0148ZM64.3055 33.6706L63.8479 33.3526L63.5656 33.7589L63.9356 34.0873L64.3055 33.6706ZM59.1237 33.5509L59.3382 34.0652L60.1517 33.7259L59.4963 33.1365L59.1237 33.5509ZM56.491 31.1832L56.0836 30.803L55.6963 31.218L56.1184 31.5975L56.491 31.1832ZM58.8808 28.6223L59.2641 28.2177L58.8564 27.8316L58.4734 28.2421L58.8808 28.6223ZM61.5573 31.1575L61.174 31.5621L61.7307 32.0893L62.0604 31.3971L61.5573 31.1575ZM65.5778 34.778L63.1885 37.3151L63.9999 38.0792L66.3891 35.5421L65.5778 34.778ZM63.9755 37.2908L62.1832 35.6084L61.4204 36.4211L63.2128 38.1035L63.9755 37.2908ZM61.509 35.5407C60.1555 36.3766 58.6105 36.8106 56.8376 36.7697L56.8119 37.8839C58.7946 37.9297 60.5529 37.4411 62.0946 36.4889L61.509 35.5407ZM56.8376 36.7697C52.0059 36.6581 48.6588 32.9963 48.7609 28.5788L47.6467 28.5531C47.5302 33.596 51.375 37.7583 56.8119 37.8839L56.8376 36.7697ZM48.7609 28.5788L48.762 28.5313L47.6478 28.5055L47.6467 28.5531L48.7609 28.5788ZM48.762 28.5313C48.864 24.1137 52.4253 20.564 57.2569 20.6756L57.2826 19.5614C51.8457 19.4358 47.7642 23.4627 47.6478 28.5055L48.762 28.5313ZM57.2569 20.6756C62.0886 20.7872 65.4356 24.449 65.3336 28.8665L66.4478 28.8922C66.5643 23.8493 62.7195 19.687 57.2826 19.5614L57.2569 20.6756ZM65.3336 28.8665L65.3325 28.914L66.4467 28.9397L66.4478 28.8922L65.3336 28.8665ZM65.3325 28.914C65.2941 30.5761 64.7518 32.0515 63.8479 33.3526L64.7632 33.9885C65.7781 32.5276 66.4028 30.8431 66.4467 28.9397L65.3325 28.914ZM63.9356 34.0873L65.6135 35.5768L66.3534 34.7433L64.6755 33.2538L63.9356 34.0873ZM56.9374 34.5096C57.8504 34.5307 58.6209 34.3644 59.3382 34.0652L58.9092 33.0365C58.3298 33.2782 57.7139 33.4128 56.9631 33.3954L56.9374 34.5096ZM59.4963 33.1365L56.8636 30.7688L56.1184 31.5975L58.7511 33.9652L59.4963 33.1365ZM56.8984 31.5634L59.2882 29.0025L58.4734 28.2421L56.0836 30.803L56.8984 31.5634ZM58.4976 29.0269L61.174 31.5621L61.9405 30.7529L59.2641 28.2177L58.4976 29.0269ZM62.0604 31.3971C62.4247 30.6323 62.598 29.7953 62.6187 28.8989L61.5045 28.8731C61.4867 29.6406 61.3397 30.3183 61.0541 30.9179L62.0604 31.3971ZM62.6187 28.8989L62.6198 28.8513L61.5056 28.8256L61.5045 28.8731L62.6187 28.8989ZM62.6198 28.8513C62.692 25.7257 60.4456 23.0116 57.1571 22.9356L57.1314 24.0498C59.7378 24.11 61.5651 26.2465 61.5056 28.8256L62.6198 28.8513ZM57.1571 22.9356C53.8682 22.8597 51.548 25.4212 51.4758 28.5464L52.59 28.5721C52.6496 25.9926 54.5254 23.9896 57.1314 24.0498L57.1571 22.9356ZM51.4758 28.5464L51.4747 28.5939L52.5889 28.6197L52.59 28.5721L51.4758 28.5464ZM51.4747 28.5939C51.4025 31.7196 53.6489 34.4337 56.9374 34.5096L56.9631 33.3954C54.3567 33.3352 52.5293 31.1988 52.5889 28.6197L51.4747 28.5939ZM69.0675 20.6764L69.0804 20.1193L68.5233 20.1064L68.5104 20.6635L69.0675 20.6764ZM72.728 20.7609L73.2851 20.7738L73.298 20.2167L72.7409 20.2038L72.728 20.7609ZM79.9069 20.9267L79.9198 20.3696L79.3627 20.3568L79.3498 20.9139L79.9069 20.9267ZM83.5675 21.0113L84.1246 21.0242L84.1374 20.4671L83.5803 20.4542L83.5675 21.0113ZM75.8926 37.186C73.7577 37.1367 72.1297 36.5097 71.0469 35.3839C69.965 34.2589 69.3505 32.5562 69.405 30.1972L68.2908 30.1715C68.2316 32.7328 68.8985 34.7578 70.2436 36.1564C71.5877 37.554 73.5324 38.2463 75.8669 38.3002L75.8926 37.186ZM69.405 30.1972L69.6246 20.6893L68.5104 20.6635L68.2908 30.1715L69.405 30.1972ZM69.0546 21.2335L72.7152 21.318L72.7409 20.2038L69.0804 20.1193L69.0546 21.2335ZM72.1709 20.7481L71.9535 30.1609L73.0677 30.1867L73.2851 20.7738L72.1709 20.7481ZM71.9535 30.1609C71.92 31.6105 72.2455 32.7991 72.9638 33.639C73.6905 34.4888 74.7469 34.8972 75.9924 34.926L76.0181 33.8118C75.0047 33.7884 74.2824 33.466 73.8108 32.9147C73.3307 32.3534 73.0381 31.4706 73.0677 30.1867L71.9535 30.1609ZM75.9924 34.926C77.2314 34.9546 78.3036 34.611 79.0696 33.8191C79.8294 33.034 80.2111 31.8887 80.2439 30.4713L79.1296 30.4456C79.1009 31.6904 78.7702 32.5264 78.2692 33.044C77.7743 33.5548 77.0365 33.8353 76.0181 33.8118L75.9924 34.926ZM80.2439 30.4713L80.464 20.9396L79.3498 20.9139L79.1296 30.4456L80.2439 30.4713ZM79.894 21.4839L83.5546 21.5684L83.5803 20.4542L79.9198 20.3696L79.894 21.4839ZM83.0103 20.9984L82.7935 30.3875L83.9077 30.4132L84.1246 21.0242L83.0103 20.9984ZM82.7935 30.3875C82.7377 32.8043 82.0213 34.5058 80.865 35.5944C79.7072 36.6846 78.0275 37.2353 75.8926 37.186L75.8669 38.3002C78.2001 38.3541 80.1976 37.753 81.6289 36.4059C83.0617 35.0571 83.8471 33.0357 83.9077 30.4132L82.7935 30.3875ZM87.0777 37.7401L86.5206 37.7273L86.5077 38.2844L87.0648 38.2972L87.0777 37.7401ZM87.462 21.1012L87.4749 20.5441L86.9178 20.5313L86.9049 21.0884L87.462 21.1012ZM91.1225 21.1858L91.6796 21.1987L91.6925 20.6416L91.1354 20.6287L91.1225 21.1858ZM90.7382 37.8247L90.7254 38.3818L91.2825 38.3946L91.2953 37.8375L90.7382 37.8247ZM87.6348 37.753L88.0191 21.1141L86.9049 21.0884L86.5206 37.7273L87.6348 37.753ZM87.4491 21.6584L91.1097 21.7429L91.1354 20.6287L87.4749 20.5441L87.4491 21.6584ZM90.5654 21.1729L90.1811 37.8118L91.2953 37.8375L91.6796 21.1987L90.5654 21.1729ZM90.7511 37.2676L87.0906 37.183L87.0648 38.2972L90.7254 38.3818L90.7511 37.2676Z" fill="white"/>
</g>
</g>
<g filter="url(#filter3_d_480_3057)">
<mask id="mask4_480_3057" style="mask-type:luminance" maskUnits="userSpaceOnUse" x="0" y="1" width="76" height="73">
<path d="M2.50195 1.88281L75.4687 3.56813L73.8688 72.8349L0.902091 71.1496L2.50195 1.88281Z" fill="white" stroke="white" stroke-width="0.75"/>
</mask>
<g mask="url(#mask4_480_3057)">
<path fill-rule="evenodd" clip-rule="evenodd" d="M11.0944 67.7632C9.9132 67.7359 9.44161 66.8778 10.011 65.8509L36.2881 19.4075L31.4416 9.81982C31.1646 9.27683 31.3908 8.62477 31.9004 8.3562C32.4312 8.08805 33.0744 8.30491 33.3396 8.83559L37.5578 17.1697L42.1564 9.03923C42.4577 8.52164 43.122 8.34704 43.6282 8.62708C44.1337 8.92816 44.3206 9.5807 44.0189 10.1103L38.7228 19.4638L62.8276 67.0738C63.3611 68.1232 62.8412 68.9614 61.6691 68.9344L11.0943 67.7662L11.0944 67.7632Z" fill="#75ACDE" stroke="white" stroke-width="0.75" stroke-miterlimit="10"/>
</g>
</g>
<path d="M45.0058 58.4577L28.2237 58.0701L23.6369 67.4901L17.2643 67.3429L37.6237 26.1277L55.373 68.2231L48.8989 68.0736L45.0058 58.4577ZM42.7222 52.8419L37.2161 39.3784L30.8149 52.5669L42.7222 52.8419Z" fill="white"/>
<mask id="mask5_480_3057" style="mask-type:luminance" maskUnits="userSpaceOnUse" x="16" y="24" width="42" height="45">
<path d="M57.426 25.1686L17.3145 24.2422L16.3022 68.0678L56.4138 68.9943L57.426 25.1686Z" fill="white"/>
<path d="M45.0077 58.4655L28.2256 58.0779L23.6388 67.4979L17.2662 67.3507L37.6257 26.1355L55.375 68.2309L48.9008 68.0814L45.0077 58.4655ZM42.7242 52.8497L37.218 39.3862L30.8168 52.5747L42.7242 52.8497Z" fill="black"/>
</mask>
<g mask="url(#mask5_480_3057)">
<path d="M45.0069 58.458L45.5234 58.2489L45.3859 57.9094L45.0197 57.9009L45.0069 58.458ZM28.2248 58.0704L28.2376 57.5133L27.8803 57.5051L27.7238 57.8265L28.2248 58.0704ZM23.638 67.4904L23.6251 68.0475L23.9826 68.0558L24.1391 67.7344L23.638 67.4904ZM17.2654 67.3432L16.7658 67.0964L16.3787 67.8802L17.2525 67.9003L17.2654 67.3432ZM37.6248 26.128L38.1383 25.9116L37.6649 24.7887L37.1252 25.8813L37.6248 26.128ZM55.3741 68.2234L55.3613 68.7805L56.2222 68.8004L55.8876 68.0069L55.3741 68.2234ZM48.9 68.0739L48.3834 68.283L48.5209 68.6225L48.8871 68.631L48.9 68.0739ZM42.7233 52.8422L42.7105 53.3993L43.5613 53.419L43.2391 52.6312L42.7233 52.8422ZM37.2172 39.3787L37.7329 39.1678L37.2607 38.0129L36.7158 39.1354L37.2172 39.3787ZM30.816 52.5672L30.3147 52.3238L29.9359 53.1043L30.8031 53.1243L30.816 52.5672ZM45.0197 57.9009L28.2376 57.5133L28.2119 58.6275L44.994 59.0152L45.0197 57.9009ZM27.7238 57.8265L23.137 67.2465L24.1391 67.7344L28.7259 58.3144L27.7238 57.8265ZM23.6509 66.9333L17.2782 66.7861L17.2525 67.9003L23.6251 68.0475L23.6509 66.9333ZM17.765 67.5901L38.1244 26.3749L37.1252 25.8813L16.7658 67.0964L17.765 67.5901ZM37.1114 26.3445L54.8607 68.44L55.8876 68.0069L38.1383 25.9116L37.1114 26.3445ZM55.387 67.6663L48.9128 67.5168L48.8871 68.631L55.3613 68.7805L55.387 67.6663ZM49.4165 67.8648L45.5234 58.2489L44.4903 58.6671L48.3834 68.283L49.4165 67.8648ZM43.2391 52.6312L37.7329 39.1678L36.7014 39.5897L42.2076 53.0531L43.2391 52.6312ZM36.7158 39.1354L30.3147 52.3238L31.3173 52.8105L37.7185 39.622L36.7158 39.1354ZM30.8031 53.1243L42.7105 53.3993L42.7362 52.2851L30.8288 52.0101L30.8031 53.1243Z" fill="black"/>
</g>
<mask id="mask6_480_3057" style="mask-type:luminance" maskUnits="userSpaceOnUse" x="183" y="42" width="4" height="11">
<path d="M183.666 42.2031L186.934 42.2786L186.689 52.9092L183.42 52.8337L183.666 42.2031Z" fill="white"/>
</mask>
<g mask="url(#mask6_480_3057)">
<path d="M186.436 52.8881C185.971 52.8093 185.483 52.7646 184.996 52.7534C184.501 52.7419 184.02 52.7643 183.544 52.8213L185.226 42.2363L185.246 42.2368L186.436 52.8881Z" fill="#74ACDF"/>
</g>
<mask id="mask7_480_3057" style="mask-type:luminance" maskUnits="userSpaceOnUse" x="182" y="71" width="5" height="12">
<path d="M182.988 71.5547L186.257 71.6302L186.008 82.3926L182.74 82.3171L182.988 71.5547Z" fill="white"/>
</mask>
<g mask="url(#mask7_480_3057)">
<path d="M186 71.7699L184.319 82.3548L184.299 82.3543L183.107 71.7031C183.581 71.7809 184.06 71.8255 184.555 71.8369C185.042 71.8482 185.532 71.826 186 71.7699Z" fill="#74ACDF"/>
</g>
<path d="M199.581 48.5326L192.566 57.2748C191.992 56.4633 191.302 55.741 190.511 55.1289L199.574 48.5182L199.581 48.5326Z" fill="#74ACDF"/>
<path d="M179.031 69.4597L169.967 76.0701L169.96 76.0557L176.975 67.3135C177.55 68.1251 178.246 68.8477 179.031 69.4597Z" fill="#74ACDF"/>
<path d="M198.929 76.7304L198.921 76.7444L190.172 69.7225C190.991 69.1476 191.714 68.4578 192.325 67.6736L198.929 76.7304Z" fill="#74ACDF"/>
<path d="M179.368 54.8661C178.555 55.4411 177.826 56.1306 177.215 56.9147L170.611 47.8579L170.618 47.8439L179.368 54.8661Z" fill="#74ACDF"/>
<path d="M191.409 48.328L189.392 54.227C188.817 53.9452 188.212 53.7144 187.573 53.5233L191.394 48.3276L191.409 48.328Z" fill="#74ACDF"/>
<path d="M181.966 71.0664L178.146 76.2631L178.13 76.2628L180.148 70.3637C180.722 70.6384 181.328 70.8753 181.966 71.0664Z" fill="#74ACDF"/>
<path d="M190.759 76.5456L190.751 76.5515L187.167 71.1624C187.825 71.015 188.461 70.8146 189.058 70.5668L190.759 76.5456Z" fill="#74ACDF"/>
<path d="M182.375 53.4275C181.717 53.5758 181.08 53.7762 180.484 54.024L178.783 48.0391L178.792 48.0393L182.375 53.4275Z" fill="#74ACDF"/>
</g>
<defs>
<filter id="filter0_d_480_3057" x="60.7676" y="50.4219" width="152.471" height="29.25" filterUnits="userSpaceOnUse" color-interpolation-filters="sRGB">
<feFlood flood-opacity="0" result="BackgroundImageFix"/>
<feColorMatrix in="SourceAlpha" type="matrix" values="0 0 0 0 0 0 0 0 0 0 0 0 0 0 0 0 0 0 127 0" result="hardAlpha"/>
<feOffset dy="4"/>
<feGaussianBlur stdDeviation="2"/>
<feComposite in2="hardAlpha" operator="out"/>
<feColorMatrix type="matrix" values="0 0 0 0 0 0 0 0 0 0 0 0 0 0 0 0 0 0 0.25 0"/>
<feBlend mode="normal" in2="BackgroundImageFix" result="effect1_dropShadow_480_3057"/>
<feBlend mode="normal" in="SourceGraphic" in2="effect1_dropShadow_480_3057" result="shape"/>
</filter>
<filter id="filter1_d_480_3057" x="79.3203" y="2.39844" width="19.1445" height="24.8984" filterUnits="userSpaceOnUse" color-interpolation-filters="sRGB">
<feFlood flood-opacity="0" result="BackgroundImageFix"/>
<feColorMatrix in="SourceAlpha" type="matrix" values="0 0 0 0 0 0 0 0 0 0 0 0 0 0 0 0 0 0 127 0" result="hardAlpha"/>
<feOffset dy="4"/>
<feGaussianBlur stdDeviation="2"/>
<feComposite in2="hardAlpha" operator="out"/>
<feColorMatrix type="matrix" values="0 0 0 0 0 0 0 0 0 0 0 0 0 0 0 0 0 0 0.25 0"/>
<feBlend mode="normal" in2="BackgroundImageFix" result="effect1_dropShadow_480_3057"/>
<feBlend mode="normal" in="SourceGraphic" in2="effect1_dropShadow_480_3057" result="shape"/>
</filter>
<filter id="filter2_d_480_3057" x="43.6445" y="19.5547" width="52.0488" height="26.9297" filterUnits="userSpaceOnUse" color-interpolation-filters="sRGB">
<feFlood flood-opacity="0" result="BackgroundImageFix"/>
<feColorMatrix in="SourceAlpha" type="matrix" values="0 0 0 0 0 0 0 0 0 0 0 0 0 0 0 0 0 0 127 0" result="hardAlpha"/>
<feOffset dy="4"/>
<feGaussianBlur stdDeviation="2"/>
<feComposite in2="hardAlpha" operator="out"/>
<feColorMatrix type="matrix" values="0 0 0 0 0 0 0 0 0 0 0 0 0 0 0 0 0 0 0.25 0"/>
<feBlend mode="normal" in2="BackgroundImageFix" result="effect1_dropShadow_480_3057"/>
<feBlend mode="normal" in="SourceGraphic" in2="effect1_dropShadow_480_3057" result="shape"/>
</filter>
<filter id="filter3_d_480_3057" x="5.39453" y="7.86719" width="62.0176" height="69.4453" filterUnits="userSpaceOnUse" color-interpolation-filters="sRGB">
<feFlood flood-opacity="0" result="BackgroundImageFix"/>
<feColorMatrix in="SourceAlpha" type="matrix" values="0 0 0 0 0 0 0 0 0 0 0 0 0 0 0 0 0 0 127 0" result="hardAlpha"/>
<feOffset dy="4"/>
<feGaussianBlur stdDeviation="2"/>
<feComposite in2="hardAlpha" operator="out"/>
<feColorMatrix type="matrix" values="0 0 0 0 0 0 0 0 0 0 0 0 0 0 0 0 0 0 0.25 0"/>
<feBlend mode="normal" in2="BackgroundImageFix" result="effect1_dropShadow_480_3057"/>
<feBlend mode="normal" in="SourceGraphic" in2="effect1_dropShadow_480_3057" result="shape"/>
</filter>
<clipPath id="clip0_480_3057">
<rect width="211.013" height="78.0155" fill="white" transform="translate(2.26367 0.109375) rotate(1.32313)"/>
</clipPath>
</defs>
</svg>
