<?xml version="1.0" encoding="UTF-8"?>
<svg id="Calque_2" data-name="Calque 2" xmlns="http://www.w3.org/2000/svg" viewBox="0 0 72.21 9.23">
  <defs>
    <style>
      .cls-1 {
        fill: #fff;
      }

      .cls-2 {
        fill: #5d58a3;
      }
    </style>
  </defs>
  <g id="Calque_1-2" data-name="Calque 1">
    <g>
      <path class="cls-1" d="M5.9,9.08l-2.14-3.7c.61-.15,1.09-.46,1.45-.91.36-.46.54-1.01.54-1.66,0-.53-.12-.99-.36-1.4-.24-.4-.57-.72-1-.94-.42-.22-.92-.34-1.48-.34H0v.54c.2,0,.4,0,.6,0h2.33c.44,0,.83.09,1.16.27.34.18.6.43.79.74.19.32.28.69.28,1.11s-.1.79-.29,1.11-.45.58-.79.76c-.33.18-.72.27-1.16.27H.6c-.2,0-.4,0-.6,0v4.14h.6v-3.6h2.54l2.06,3.6h.71Z"/>
      <path class="cls-1" d="M11.74,9.23c-.6,0-1.17-.11-1.7-.34-.53-.22-1-.54-1.4-.95s-.71-.9-.94-1.46-.34-1.19-.34-1.87.11-1.3.34-1.86.54-1.05.95-1.46.87-.73,1.4-.95c.53-.22,1.09-.34,1.69-.34s1.16.11,1.69.34c.53.22.99.54,1.4.95.4.41.72.9.95,1.46s.34,1.18.34,1.85-.11,1.3-.34,1.87-.54,1.05-.94,1.46-.87.73-1.4.95c-.53.22-1.1.34-1.7.34ZM11.74,8.65c.56,0,1.07-.11,1.54-.32s.86-.51,1.2-.88.59-.81.77-1.3c.18-.49.27-1,.27-1.55s-.09-1.05-.27-1.53-.44-.91-.77-1.29-.73-.67-1.19-.89c-.46-.22-.98-.32-1.55-.32s-1.07.11-1.54.32c-.46.22-.86.51-1.2.89s-.59.81-.77,1.29-.27.99-.27,1.53.09,1.06.27,1.55c.18.49.44.92.77,1.3s.74.67,1.2.88c.46.21.98.32,1.54.32Z"/>
      <path class="cls-1" d="M18.23,9.08V.14h.48l3.31,5.06h-.18L25.19.14h.48v8.94h-.6V1.14l.07.1-3.18,4.9h-.02l-3.2-4.9.1-.1v7.94h-.6Z"/>
      <path class="cls-1" d="M31.01.14h-.58l-3.31,8.94h.66l.86-2.36c.06-.18.13-.36.19-.54l1.88-5.15,1.88,5.15c.06.18.13.36.19.54l.86,2.36h.66L31.01.14Z"/>
      <path class="cls-1" d="M35.77,9.08V.14h.6v8.94h-.6Z"/>
      <path class="cls-1" d="M38.75,9.08V.14h.48l5.59,8h-.19V.14h.6v8.94h-.48l-5.63-8.05h.23v8.05h-.6Z"/>
      <path class="cls-2" d="M56.09,2.24c-.34-.67-.83-1.18-1.46-1.55-.63-.36-1.38-.55-2.24-.55h-2.86c0,.18,0,.36,0,.54.2,0,.4,0,.6,0h2.23c.73,0,1.37.16,1.91.49.55.33.97.79,1.28,1.37.3.59.46,1.27.46,2.06s-.15,1.47-.46,2.06c-.3.59-.73,1.05-1.28,1.38-.55.33-1.19.49-1.91.49h-2.23v-3.62c-.2,0-.41,0-.61,0,0,1.39,0,2.77.01,4.16h2.86c.86,0,1.61-.18,2.24-.55.63-.37,1.12-.89,1.46-1.56.34-.67.52-1.46.52-2.36s-.17-1.7-.52-2.37Z"/>
      <path class="cls-2" d="M58.45.14v.54c.2,0,.4,0,.6,0h4.92V.14h-5.52Z"/>
      <path class="cls-2" d="M59.05,4.87h4.68v-.54h-4.68c-.2,0-.4,0-.6,0v.55c.2,0,.4,0,.6,0Z"/>
      <path class="cls-2" d="M59.05,8.54c-.2,0-.4,0-.6,0v.54h5.52v-.54h-4.92Z"/>
      <path class="cls-2" d="M68.27,9.08L64.9.14h.66l3.13,8.39h-.25L71.55.14h.66l-3.37,8.94h-.58Z"/>
    </g>
  </g>
</svg>