<?xml version="1.0" encoding="UTF-8"?>
<svg id="Calque_2" data-name="Calque 2" xmlns="http://www.w3.org/2000/svg" viewBox="0 0 72.62 9.35">
  <defs>
    <style>
      .cls-1 {
        fill: #5d58a3;
        stroke: #fff;
        stroke-miterlimit: 10;
        stroke-width: .05px;
      }

      .cls-2 {
        fill: #fff;
      }
    </style>
  </defs>
  <g id="Calque_1-2" data-name="Calque 1">
    <g>
      <g>
        <path class="cls-2" d="M6.06,8.99l-2.11-3.67c.59-.17,1.06-.48,1.4-.93.34-.45.52-1,.52-1.64,0-.54-.12-1.01-.36-1.42-.24-.41-.58-.72-1.01-.95-.43-.22-.94-.34-1.51-.34H0v.72c.26,0,.51,0,.77,0h2.24c.42,0,.78.08,1.09.25.31.16.56.39.73.68s.26.64.26,1.04-.09.75-.26,1.05c-.18.3-.42.53-.73.7s-.68.25-1.09.25H.77c-.25,0-.51,0-.76,0,0,1.42,0,2.84,0,4.26h.77v-3.54h2.37l2.01,3.54h.91Z"/>
        <path class="cls-2" d="M9.36,2c.32-.36.71-.64,1.16-.85.45-.2.94-.31,1.49-.31.41,0,.78.08,1.14.19.21.12.47.03.56-.17.08-.19-.02-.43-.23-.51-.17-.06-.38-.12-.63-.17-.14-.03-.44-.08-.83-.08-.62,0-1.19.11-1.72.34-.53.22-1,.54-1.41.95-.41.41-.73.9-.95,1.46s-.34,1.18-.34,1.86.11,1.3.34,1.87.54,1.05.95,1.46c.1.11.23.19.34.28.22.07.44-.03.52-.21.06-.13.02-.3-.08-.42-.04-.04-.12-.09-.19-.17-.03-.03-.06-.05-.09-.08-.32-.36-.57-.77-.75-1.24-.18-.47-.26-.97-.26-1.49s.09-1.01.26-1.48c.18-.47.43-.88.75-1.24Z"/>
        <path class="cls-2" d="M16.08,2.87c-.14-.36-.41-.9-.9-1.46-.19-.14-.44-.12-.57.03-.16.17-.13.49.1.65.29.34.52.72.69,1.16.18.47.26.96.26,1.48s-.09,1.03-.26,1.49c-.18.47-.43.88-.75,1.24-.32.36-.71.64-1.16.85-.26.12-.79.35-1.48.31-.22-.01-.53-.06-.89-.2-.21-.1-.46-.02-.55.18-.08.18-.01.4.17.51.52.19.97.23,1.27.24.84.02,1.46-.23,1.72-.34.54-.22,1.01-.54,1.41-.95.59-.6.86-1.25.95-1.46.75-1.84,0-3.72,0-3.72Z"/>
        <path class="cls-2" d="M18.23,8.99V.05h.65l3.34,4.97h-.31L25.25.05h.65v8.94h-.77V1.19l.18.11-3.23,4.84h-.04l-3.24-4.84.19-.11v7.8h-.77Z"/>
        <path class="cls-2" d="M31.31.05h-.79l-3.29,8.94h.83l.82-2.28c.08-.24.17-.47.25-.71l1.79-4.95,1.78,4.95c.09.24.18.47.26.71l.82,2.28h.83L31.31.05Z"/>
        <path class="cls-2" d="M35.93,8.99V.05h.77v8.94h-.77Z"/>
        <path class="cls-1" d="M49.78,4.52v4.47h2.89c.88,0,1.64-.18,2.28-.55.64-.37,1.14-.89,1.49-1.56.35-.67.53-1.46.53-2.36s-.18-1.7-.53-2.37c-.35-.67-.85-1.18-1.49-1.55-.64-.36-1.4-.55-2.28-.55h-2.89v.72c.26,0,.51,0,.77,0h2.11c.7,0,1.32.15,1.85.46s.94.74,1.23,1.3.44,1.22.44,1.98-.15,1.42-.44,1.99c-.29.56-.7,1-1.22,1.31-.52.31-1.14.46-1.85.46h-2.11v-3.75"/>
        <path class="cls-1" d="M59.46,8.27c-.26,0-.51,0-.77,0v.72h5.63v-.72h-4.86Z"/>
        <path class="cls-1" d="M59.46,4.86h4.62v-.71h-4.62c-.26,0-.51,0-.77,0v.71c.26,0,.51,0,.77,0Z"/>
        <path class="cls-1" d="M58.69.05v.72c.26,0,.51,0,.77,0h4.86V.05h-5.63Z"/>
        <path class="cls-1" d="M68.45,8.99L65.12.05h.82l3.01,8.24h-.23L71.72.05h.83l-3.32,8.94h-.78Z"/>
      </g>
      <path class="cls-2" d="M39.12,8.99V.05h.65l5.42,7.76h-.25V.05h.77v8.94h-.65l-5.45-7.81h.28v7.81h-.77Z"/>
    </g>
  </g>
</svg>