<svg width="230" height="154" viewBox="0 0 230 154" fill="none" xmlns="http://www.w3.org/2000/svg">
<mask id="mask0_480_2434" style="mask-type:luminance" maskUnits="userSpaceOnUse" x="199" y="5" width="31" height="15">
<path d="M227.857 5.25781L199.689 9.59409L201.56 19.4458L229.728 15.1095L227.857 5.25781Z" fill="white"/>
</mask>
<g mask="url(#mask0_480_2434)">
<path d="M227.825 5.44405C225.79 6.55529 223.515 7.36374 221.625 8.6845C215.627 15.3228 212.727 18.225 202.617 16.7541C222.755 13.6483 212.767 7.49617 227.825 5.44405Z" fill="white"/>
</g>
<path d="M219.866 6.70071C212.602 9.21834 212.607 14.9623 203.958 13.9359C211.941 12.3422 211.242 7.12991 219.866 6.70071Z" fill="white"/>
<path d="M210.451 9.46289C211.126 9.51809 213.152 9.57775 211.586 9.87185C208.885 10.691 206.234 11.8421 203.811 13.1597C204.825 10.9604 207.759 9.59605 210.451 9.46289Z" fill="white"/>
<path d="M200.602 15.0157C203.004 17.4372 203.542 19.5875 199.622 20.7323C197.595 21.5801 195.617 22.5274 193.603 23.4126C187.883 25.6917 182.656 28.8873 176.935 31.1609C174.453 32.0448 171.89 32.7552 169.342 33.4519C170.773 32.38 172.322 31.4368 173.969 30.6588C179.98 28.1657 185.822 25.3604 191.797 22.8053C193.886 21.9875 195.877 20.9818 197.935 20.101C200.711 19.0534 202.23 18.3458 200.755 15.3982C200.756 15.4037 200.756 15.4037 200.757 15.4092C200.732 15.3453 200.708 15.2813 200.683 15.2174C200.684 15.2229 200.684 15.2229 200.691 15.2275C200.666 15.1581 200.627 15.0851 200.602 15.0157Z" fill="white"/>
<path d="M198.554 15.3342C201.332 14.9631 198.321 15.7457 197.416 16.2865C195.058 17.3648 192.712 18.4722 190.277 19.4339C187.738 20.3446 185.376 21.5935 182.787 22.4038C180.507 23.1047 178.103 23.48 175.865 24.2722C178.655 22.3914 182.152 21.4825 185.174 19.9106C189.46 18.0824 193.775 15.9772 198.554 15.3342Z" fill="white"/>
<path d="M132.38 20.7513C133.304 21.545 134.009 22.4801 134.699 23.4119C134.689 23.3973 134.674 23.3836 134.664 23.3689C136.242 25.5357 138.844 27.0178 140.695 29.0081C135.477 27.2618 133.057 25.4721 132.38 20.7513Z" fill="white"/>
<path d="M136.418 26.2624C140.826 27.9724 145.733 28.1292 150.221 29.656C156.442 31.2239 163.44 33.8465 169.559 30.6356C165.089 35.5823 157.513 33.6586 151.773 31.8856C146.57 30.3321 140.395 29.9771 136.418 26.2624Z" fill="white"/>
<path d="M158.796 21.4527C160.43 21.8588 162.047 22.4334 163.758 22.4158C165.579 22.4042 167.443 22.2603 169.228 22.7288C173.148 23.5207 175.323 28.7326 171.015 30.471C174.211 27.3598 170.487 24.3936 166.881 24.2624C163.919 24.0665 161.089 23.3127 158.796 21.4527Z" fill="white"/>
<path d="M161.634 23.0524C162.585 26.1229 168.156 26.79 171.27 27.0981C173.364 27.016 169.721 28.1073 168.853 28.0176C165.666 28.2624 160.833 26.3982 161.634 23.0524Z" fill="white"/>
<path d="M154.065 20.8203C155.703 20.7136 157.357 21.3513 158.914 22.0702C156.937 22.6258 154.877 21.9976 152.848 21.7149C150.822 21.6831 153.196 20.8945 154.065 20.8203Z" fill="white"/>
<path d="M132.329 4.44592C136.965 4.83815 139.912 8.73602 143.568 10.8635C146.26 12.8808 152.34 16.7147 153.183 19.5887C153.047 19.4391 152.907 19.2681 152.764 19.1141C151.181 17.7073 148.921 17.0319 147.219 15.7315C144.925 14.1096 142.689 12.4293 140.394 10.8074C136.977 8.90181 134.176 4.01302 129.47 5.5132C129.476 5.51226 129.476 5.51226 129.476 5.51226C129.682 5.12853 131.399 4.41301 132.329 4.44592Z" fill="white"/>
<path d="M128.617 4.97656C128.576 5.01661 128.532 5.04575 128.496 5.07943C124.777 8.54944 122.072 12.7561 118.899 16.6195C115.455 20.3111 112.703 24.5588 108.722 27.8108C106.954 29.2228 104.822 30.326 103.562 32.1933C102.603 33.8065 102.026 35.5968 101.318 37.3117C101.04 38.1632 100.898 39.061 100.708 39.9269C100.597 39.405 100.478 38.8785 100.404 38.3566C99.7325 28.8016 105.849 28.9437 111.049 22.7077C113.436 19.92 115.772 17.0896 118.214 14.3328C120.971 10.629 124.008 6.84852 128.617 4.97656Z" fill="white"/>
<mask id="mask1_480_2434" style="mask-type:luminance" maskUnits="userSpaceOnUse" x="0" y="51" width="128" height="53">
<path d="M120.707 51.5469L0.938685 69.9842L7.27301 103.338L127.041 84.9008L120.707 51.5469Z" fill="white"/>
</mask>
<g mask="url(#mask1_480_2434)">
<path d="M120.398 52.0547C114.209 57.0929 106.555 60.1384 99.2048 63.5049C84.3961 71.3071 68.4993 77.0927 53.0413 83.7104C41.47 89.2997 29.3559 93.7731 17.3097 98.4397C14.9763 99.3647 12.6552 100.322 10.4445 101.466C10.4619 102.017 9.88033 102.373 9.38282 102.58C7.41009 103.596 5.83143 101.791 8.31371 100.894C7.60357 100.211 6.69344 96.6677 7.75139 98.6889C8.84191 100.06 9.18507 100.782 10.9508 99.6619C13.9284 98.3491 17.0133 97.2405 20.0421 96.033C27.9936 92.9756 36.1119 90.2377 43.7992 86.6439C57.2925 80.1645 71.4883 74.9859 85.094 68.7043C91.9386 65.4382 98.5493 61.7951 105.45 58.6279C110.295 56.1732 115.029 53.4923 120.398 52.0547Z" fill="white"/>
</g>
<path d="M133.592 43.0391C124.074 48.1822 113.719 51.8755 103.739 56.1958C97.328 59.016 91.1167 62.1959 84.6179 64.8485C76.9783 67.7108 69.5455 70.9712 62.0133 74.0376C52.0029 78.0004 42.2646 82.4758 32.3729 86.6693C25.6479 89.7755 19.0525 93.2352 11.9066 95.5065C5.88658 97.2594 8.86987 95.9627 12.2641 93.9351C15.8849 91.8839 19.8391 90.4038 23.6797 88.7205C30.158 85.6636 36.6977 82.733 43.3877 80.0679C57.1038 74.0069 71.0799 68.4264 85.1155 62.9952C95.1004 58.6346 104.913 53.961 115.11 49.9921C121.263 47.6531 127.111 44.6026 133.592 43.0391Z" fill="white"/>
<path d="M149.73 33.0625C149.264 33.3865 148.789 33.7059 148.314 34.0198C148.32 34.0188 148.325 34.0123 148.331 34.0114C147.78 34.3885 147.223 34.7666 146.664 35.1391C143.388 37.5976 139.301 38.8687 135.884 41.1195C132.875 42.769 132.246 46.0464 131.199 48.8494C129.358 52.8692 127.417 57.2941 123.41 59.9166C123.421 59.9036 123.438 59.8952 123.454 59.8812C122.257 60.7359 122.47 60.4625 123.219 59.5048C124.368 58.1015 125.231 56.5188 125.971 54.9149C125.962 54.9335 125.948 54.9586 125.94 54.9827C126.895 52.7212 128.313 50.6462 129.185 48.3513C130.076 45.985 130.606 43.3762 132.358 41.3701C134.392 39.3894 137.103 38.0953 139.734 36.8764C142.977 35.4317 146.204 33.8403 149.73 33.0625Z" fill="white"/>
<path d="M147.459 60.6562C147.315 61.9621 147 63.2663 147.079 64.5828C147.327 66.0189 147.912 67.392 148.125 68.8336C148.516 72.5068 149.544 76.1438 149.294 79.8541C149.483 86.8434 143.883 98.2389 138.543 103.176C137.824 103.707 137.046 104.157 136.27 104.613C137.25 103.358 138.293 102.121 138.992 100.707C144.351 91.2324 149.29 84.7935 146.875 73.4322C146.484 70.538 145.818 67.6415 145.723 64.7243C145.886 63.264 146.749 61.9428 147.459 60.6562Z" fill="white"/>
<path d="M156.211 33.0809C157.598 37.6205 156.013 42.1819 152.669 45.2826C151.422 46.6774 150.154 48.1104 149.41 49.8518C149.101 50.649 149.016 50.848 149.064 49.8412C149.741 42.8976 155.921 42.0044 156.211 33.0809Z" fill="white"/>
<path d="M165.653 34.0165C170.566 41.2903 162.574 46.7335 155.53 49.677C153.069 50.7158 155.486 49.2438 156.236 48.4297C161.419 44.1394 167.475 41.1226 165.653 34.0165Z" fill="white"/>
<path d="M164.357 34.8984C164.763 38.3161 162.541 41.3675 159.647 43.247C157.228 45.1952 155.754 43.3248 154.283 41.4655C153.214 40.2527 152.66 38.7452 152.043 37.3157C152.659 37.969 153.282 38.6269 153.899 39.2857C154.791 39.9816 157.304 42.8142 158.283 41.7622C161.059 40.1844 163.382 37.8259 164.357 34.8984Z" fill="white"/>
<path d="M164.303 46.4851C167.74 48.5225 167.914 52.5298 169.967 55.4218C173.274 58.7186 175.479 59.3306 180.302 58.164C181.455 58.0573 183.664 58.1032 181.178 58.5402C179.229 59.21 177.406 60.4802 175.224 60.3486C172.187 60.0875 169.599 58.1154 167.927 56.013C165.963 53.0585 166.594 49.286 164.303 46.4851Z" fill="white"/>
<path d="M179.556 51.6292C182.426 53.4584 184.124 56.4485 183.674 59.4597C183.595 59.8446 183.457 60.2215 183.302 60.5894C183.015 59.4236 182.475 58.3368 181.921 57.2522C181.93 57.2566 181.932 57.2678 181.933 57.2734C181.161 55.385 180.451 53.4758 179.556 51.6292Z" fill="white"/>
<path d="M179.307 50.3125C179.241 50.4452 179.181 50.5822 179.115 50.72C179.119 50.7089 179.123 50.7029 179.131 50.6909C178.031 52.9265 179.501 55.4958 180.371 57.6411C177.786 56.1912 176.358 51.9539 179.307 50.3125Z" fill="white"/>
<path d="M170.928 33.8853C174.852 38.1214 177.458 43.5331 178.308 49.098C175.221 44.651 172.804 39.7844 171.26 34.6721C171.27 34.6882 171.272 34.6996 171.281 34.7158C171.167 34.4345 171.046 34.1542 170.928 33.8853Z" fill="white"/>
<path d="M176.895 60.8916C178.359 62.0753 179.835 63.9501 177.954 65.4971C178.324 63.8649 176.785 62.517 176.895 60.8916Z" fill="white"/>
<path d="M176.08 61.0234C175.518 62.6208 175.767 64.2941 176.875 65.6695C174.747 64.8778 174.427 62.3722 176.08 61.0234Z" fill="white"/>
<path d="M159.923 47.1606C168.253 52.3724 164.647 62.2017 172.118 65.0678C172.062 65.0474 172.005 65.0271 171.948 65.0012C173.374 65.5825 174.922 65.8723 176.356 66.4292C173.757 66.4579 170.887 66.5863 168.683 65.1614C165.8 63.597 165.112 60.5631 164.447 57.8566C163.141 54.2331 162.363 50.3483 159.923 47.1606Z" fill="white"/>
<path d="M166.508 67.2624C167.828 69.8042 167.111 73.1128 163.743 75.1804C164.79 72.5533 165.614 69.8922 166.508 67.2624Z" fill="white"/>
<path d="M166.01 67.3438C164.984 69.9321 163.396 72.4059 163.484 75.225C161.355 72.4351 163.354 69.2052 166.01 67.3438Z" fill="white"/>
<path d="M156.507 54.4964C162.058 58.258 156.825 64.3855 157.573 69.3717C157.892 71.0819 159.578 72.2397 160.594 73.6219C155.685 71.3611 154.971 68.8347 156.078 64.0207C157.074 60.9002 158.918 57.5059 156.507 54.4964Z" fill="white"/>
<path d="M154.232 52.8054C155.25 53.3733 156.311 53.8703 157.277 54.516C158.369 55.3518 159.335 56.5237 160.885 56.1832C158.353 58.1511 155.608 54.6709 154.232 52.8054Z" fill="white"/>
<path d="M104.37 69.3369C106.524 71.7896 106.635 74.8786 106.528 77.8714C106.608 82.767 105.472 87.6181 102.858 91.9287C93.881 104.945 81.4009 115.778 67.9814 125.056C59.0751 131.397 52.4601 139.893 43.4692 146.151C45.8031 141.748 49.7517 138.406 53.5431 135.027C56.9025 131.777 60.3177 128.557 64.1251 125.723C78.1561 115.944 91.5639 105.025 100.974 91.3264C103.418 87.3751 104.525 82.8956 104.444 78.3898C104.648 75.3482 105.411 72.3167 104.37 69.3369Z" fill="white"/>
<path d="M101.271 35.0781C101.312 37.78 100.861 40.4513 100.416 43.1218C100.182 46.3628 100.245 49.6531 100.735 52.872C96.3681 46.4641 98.2555 41.5001 101.271 35.0781Z" fill="white"/>
<mask id="mask2_480_2434" style="mask-type:luminance" maskUnits="userSpaceOnUse" x="82" y="90" width="67" height="62">
<path d="M138.783 90.2109L82.2404 98.9152L92.3062 151.918L148.849 143.213L138.783 90.2109Z" fill="white"/>
</mask>
<g mask="url(#mask2_480_2434)">
<path d="M138.684 90.3125C138.647 90.352 138.617 90.3906 138.581 90.4301C138.58 90.4246 138.58 90.4246 138.586 90.4237C138.54 90.4761 138.488 90.5294 138.441 90.5818C138.446 90.5753 138.446 90.5753 138.452 90.5744C135.941 93.6204 132.734 96.0889 129.885 98.8699C126.585 102.128 123.735 105.758 121.111 109.489C117.395 115.131 113.567 120.711 109.782 126.313C105.822 133.169 101.942 140.081 97.1025 146.478C95.5848 148.313 94.0336 150.137 92.4295 151.911C92.9508 150.416 93.4974 148.923 94.2528 147.511C97.0127 142.39 100.908 137.858 103.831 132.808C107.108 126.368 111.517 120.529 115.533 114.461C121.537 105.259 128.041 95.6004 138.684 90.3125Z" fill="white"/>
</g>
<path d="M135.561 25.7109C133.094 30.5162 131.17 32.627 125.992 34.6771C128.9 31.4767 131.896 28.0589 135.561 25.7109Z" fill="white"/>
<path d="M134.274 34.7633C136.032 35.239 137.812 35.6996 139.667 35.4604C138.001 36.897 135.572 36.2875 134.274 34.7633Z" fill="white"/>
<path d="M152.043 14.3876C156.278 15.1774 160.546 18.5401 163.304 21.44C161.995 20.8726 160.721 20.2263 159.421 19.6405C159.435 19.6496 159.456 19.6578 159.469 19.6614C157.644 18.9077 155.933 17.9556 154.386 16.8029C153.285 16.1301 151.986 14.5546 150.537 15.4111C149.348 16.0463 151.234 14.0882 152.043 14.3876Z" fill="white"/>
<path d="M119.512 53.6042C123.337 53.1551 127.174 52.931 130.904 52.0135C129.178 53.3324 127.311 54.5915 125.007 54.7483C123.809 54.9909 115.638 53.8923 119.512 53.6042Z" fill="white"/>
<path d="M132.814 34.9844C133.273 37.2466 132.365 40.5132 129.289 40.1599C131.45 39.192 131.812 36.7979 132.814 34.9844Z" fill="white"/>
</svg>
